<svg xmlns="http://www.w3.org/2000/svg" viewBox="0 0 900 446" font-family="system-ui,-apple-system,'Segoe UI',Arial,sans-serif" role="img" aria-label="Битрикс24: облако или коробка"><rect width="900" height="446" fill="#ffffff" rx="14"/><rect x="1" y="1" width="898" height="444" fill="none" stroke="#e1e0d9" rx="13"/><text x="36" y="52" font-size="24" font-weight="700" fill="#0b0b0b">Битрикс24: облако или коробка</text><rect x="246" y="62" width="295" height="40" fill="#2a78d6" rx="8"/><text x="393.5" y="88" font-size="16" font-weight="700" fill="#fff" text-anchor="middle">Облако</text><rect x="555" y="62" width="295" height="40" fill="#008300" rx="8"/><text x="702.5" y="88" font-size="16" font-weight="700" fill="#fff" text-anchor="middle">Коробка</text><rect x="30" y="90" width="840" height="52" fill="#f4f4f1" rx="8"/><text x="42" y="120" font-size="14.5" font-weight="700" fill="#0b0b0b">Старт</text><text x="254" y="120" font-size="14" fill="#52514e">1–4 недели</text><text x="563" y="120" font-size="14" fill="#52514e">Дольше: сервер,
установка</text><text x="42" y="176" font-size="14.5" font-weight="700" fill="#0b0b0b">Оплата</text><text x="254" y="176" font-size="14" fill="#52514e">Подписка</text><text x="563" y="176" font-size="14" fill="#52514e">Лицензия + серверы</text><rect x="30" y="202" width="840" height="52" fill="#f4f4f1" rx="8"/><text x="42" y="232" font-size="14.5" font-weight="700" fill="#0b0b0b">Доработки</text><text x="254" y="232" font-size="14" fill="#52514e">В рамках тарифа</text><text x="563" y="232" font-size="14" fill="#52514e">Любые</text><text x="42" y="288" font-size="14.5" font-weight="700" fill="#0b0b0b">Данные</text><text x="254" y="288" font-size="14" fill="#52514e">В облаке Битрикс</text><text x="563" y="288" font-size="14" fill="#52514e">В вашем контуре</text><rect x="30" y="314" width="840" height="52" fill="#f4f4f1" rx="8"/><text x="42" y="344" font-size="14.5" font-weight="700" fill="#0b0b0b">Кому</text><text x="254" y="344" font-size="14" fill="#52514e">МСБ, быстрый старт</text><text x="563" y="344" font-size="14" fill="#52514e">Регламенты ИБ,
глубокие доработки</text></svg>