<svg xmlns="http://www.w3.org/2000/svg" viewBox="0 0 900 300" font-family="system-ui,-apple-system,'Segoe UI',Arial,sans-serif" role="img" aria-label="Инструменты в конвейере"><rect width="900" height="300" fill="#ffffff" rx="14"/><rect x="1" y="1" width="898" height="298" fill="none" stroke="#e1e0d9" rx="13"/><text x="36" y="52" font-size="24" font-weight="700" fill="#0b0b0b">Инструменты в конвейере</text><rect x="36" y="88" width="193" height="150" fill="#f4f4f1" rx="12"/><rect x="36" y="88" width="193" height="6" fill="#2a78d6" rx="3"/><text x="54" y="152" font-size="30" font-weight="800" fill="#0b0b0b">Git</text><text x="54" y="182" font-size="13.5" fill="#52514e">общие репозитории</text><text x="54" y="201" font-size="13.5" fill="#52514e">и базы семантики</text><rect x="247" y="88" width="193" height="150" fill="#f4f4f1" rx="12"/><rect x="247" y="88" width="193" height="6" fill="#2a78d6" rx="3"/><text x="265" y="152" font-size="26" font-weight="800" fill="#0b0b0b">Ahrefs API</text><text x="265" y="182" font-size="13.5" fill="#52514e">данные по ссылкам</text><text x="265" y="201" font-size="13.5" fill="#52514e">и запросам</text><rect x="458" y="88" width="193" height="150" fill="#f4f4f1" rx="12"/><rect x="458" y="88" width="193" height="6" fill="#2a78d6" rx="3"/><text x="476" y="152" font-size="18" font-weight="800" fill="#0b0b0b">Search Console</text><text x="476" y="182" font-size="13.5" fill="#52514e">индексация</text><text x="476" y="201" font-size="13.5" fill="#52514e">и запросы</text><rect x="669" y="88" width="193" height="150" fill="#f4f4f1" rx="12"/><rect x="669" y="88" width="193" height="6" fill="#2a78d6" rx="3"/><text x="687" y="152" font-size="18" font-weight="800" fill="#0b0b0b">Screaming Frog</text><text x="687" y="182" font-size="13.5" fill="#52514e">техвыгрузки</text><text x="687" y="201" font-size="13.5" fill="#52514e">по сайту</text></svg>