<svg xmlns="http://www.w3.org/2000/svg" viewBox="0 0 900 348" font-family="system-ui,-apple-system,'Segoe UI',Arial,sans-serif" role="img" aria-label="Какую долю обращений закрывает бот"><rect width="900" height="348" fill="#ffffff" rx="14"/><rect x="1" y="1" width="898" height="346" fill="none" stroke="#e1e0d9" rx="13"/><text x="36" y="52" font-size="24" font-weight="700" fill="#0b0b0b">Какую долю обращений закрывает бот</text><text x="300" y="106.0" font-size="15" fill="#0b0b0b" text-anchor="end">Рынок: банки, телеком, e-com</text><rect x="320" y="84" width="430" height="34" fill="#f4f4f1" rx="6"/><rect x="320" y="84" width="283" height="34" fill="#2a78d6" rx="6"/><text x="615" y="106.0" font-size="15" font-weight="700" fill="#0b0b0b">66%</text><text x="300" y="158.0" font-size="15" fill="#0b0b0b" text-anchor="end">ВТБ, мобильный чат</text><rect x="320" y="136" width="430" height="34" fill="#f4f4f1" rx="6"/><rect x="320" y="136" width="322" height="34" fill="#2a78d6" rx="6"/><text x="654" y="158.0" font-size="15" font-weight="700" fill="#0b0b0b">75%</text><text x="300" y="210.0" font-size="15" fill="#0b0b0b" text-anchor="end">Ozon</text><rect x="320" y="188" width="430" height="34" fill="#f4f4f1" rx="6"/><rect x="320" y="188" width="180" height="34" fill="#2a78d6" rx="6"/><text x="512" y="210.0" font-size="15" font-weight="700" fill="#0b0b0b">42%</text><text x="300" y="262.0" font-size="15" fill="#0b0b0b" text-anchor="end">Голосовой канал (ВТБ)</text><rect x="320" y="240" width="430" height="34" fill="#f4f4f1" rx="6"/><rect x="320" y="240" width="163" height="34" fill="#52514e" rx="6"/><text x="495" y="262.0" font-size="15" font-weight="700" fill="#0b0b0b">38%</text><text x="36" y="326" font-size="13" fill="#52514e">Источники: Markswebb/Коммерсантъ, пресс-данные ВТБ</text></svg>