<svg xmlns="http://www.w3.org/2000/svg" viewBox="0 0 900 390" font-family="system-ui,-apple-system,'Segoe UI',Arial,sans-serif" role="img" aria-label="Чат-бот, ИИ-агент или сотрудник"><rect width="900" height="390" fill="#ffffff" rx="14"/><rect x="1" y="1" width="898" height="388" fill="none" stroke="#e1e0d9" rx="13"/><text x="36" y="52" font-size="24" font-weight="700" fill="#0b0b0b">Чат-бот, ИИ-агент или сотрудник</text><rect x="246" y="62" width="192" height="40" fill="#52514e" rx="8"/><text x="342.0" y="88" font-size="16" font-weight="700" fill="#fff" text-anchor="middle">Чат-бот</text><rect x="452" y="62" width="192" height="40" fill="#2a78d6" rx="8"/><text x="548.0" y="88" font-size="16" font-weight="700" fill="#fff" text-anchor="middle">ИИ-агент</text><rect x="658" y="62" width="192" height="40" fill="#008300" rx="8"/><text x="754.0" y="88" font-size="16" font-weight="700" fill="#fff" text-anchor="middle">Сотрудник</text><rect x="30" y="90" width="840" height="52" fill="#f4f4f1" rx="8"/><text x="42" y="120" font-size="14.5" font-weight="700" fill="#0b0b0b">Что делает</text><text x="254" y="120" font-size="14" fill="#52514e">Отвечает по базе
знаний</text><text x="460" y="120" font-size="14" fill="#52514e">Выполняет действия
в системах</text><text x="666" y="120" font-size="14" fill="#52514e">Нетиповые задачи,
контроль</text><text x="42" y="176" font-size="14.5" font-weight="700" fill="#0b0b0b">График</text><text x="254" y="176" font-size="14" fill="#52514e">24/7</text><text x="460" y="176" font-size="14" fill="#52514e">24/7</text><text x="666" y="176" font-size="14" fill="#52514e">8/5, отпуск,
больничный</text><rect x="30" y="202" width="840" height="52" fill="#f4f4f1" rx="8"/><text x="42" y="232" font-size="14.5" font-weight="700" fill="#0b0b0b">Пример</text><text x="254" y="232" font-size="14" fill="#52514e">Ответил про
доставку</text><text x="460" y="232" font-size="14" fill="#52514e">Оформил возврат
целиком</text><text x="666" y="232" font-size="14" fill="#52514e">Разобрал конфликт</text><text x="42" y="288" font-size="14.5" font-weight="700" fill="#0b0b0b">Стоимость</text><text x="254" y="288" font-size="14" fill="#52514e">Низкая</text><text x="460" y="288" font-size="14" fill="#52514e">Доля ставки</text><text x="666" y="288" font-size="14" fill="#52514e">Ставка + налоги
+ место</text></svg>