<svg xmlns="http://www.w3.org/2000/svg" viewBox="0 0 900 348" font-family="system-ui,-apple-system,'Segoe UI',Arial,sans-serif" role="img" aria-label="Классы интернет-магазинов и бюджеты (рынок РФ)"><rect width="900" height="348" fill="#ffffff" rx="14"/><rect x="1" y="1" width="898" height="346" fill="none" stroke="#e1e0d9" rx="13"/><text x="36" y="52" font-size="24" font-weight="700" fill="#0b0b0b">Классы интернет-магазинов и бюджеты (рынок РФ)</text><text x="300" y="106.0" font-size="15" fill="#0b0b0b" text-anchor="end">Тест ниши</text><rect x="320" y="84" width="430" height="34" fill="#f4f4f1" rx="6"/><rect x="320" y="84" width="25" height="34" fill="#52514e" rx="6"/><text x="357" y="106.0" font-size="15" font-weight="700" fill="#0b0b0b">200–300 тыс ₽</text><text x="300" y="158.0" font-size="15" fill="#0b0b0b" text-anchor="end">Магазин для МСБ</text><rect x="320" y="136" width="430" height="34" fill="#f4f4f1" rx="6"/><rect x="320" y="136" width="60" height="34" fill="#2a78d6" rx="6"/><text x="392" y="158.0" font-size="15" font-weight="700" fill="#0b0b0b">300–700 тыс ₽</text><text x="300" y="210.0" font-size="15" fill="#0b0b0b" text-anchor="end">Системный с интеграциями</text><rect x="320" y="188" width="430" height="34" fill="#f4f4f1" rx="6"/><rect x="320" y="188" width="150" height="34" fill="#2a78d6" rx="6"/><text x="482" y="210.0" font-size="15" font-weight="700" fill="#0b0b0b">от 1.5 млн ₽</text><text x="300" y="262.0" font-size="15" fill="#0b0b0b" text-anchor="end">Highload / опт</text><rect x="320" y="240" width="430" height="34" fill="#f4f4f1" rx="6"/><rect x="320" y="240" width="430" height="34" fill="#008300" rx="6"/><text x="762" y="262.0" font-size="15" font-weight="700" fill="#0b0b0b">4–6+ млн ₽</text><text x="36" y="326" font-size="13" fill="#52514e">Источники: РБК Компании, Рейтинг Рунета/АКИТ (медиана 650 тыс – 2 млн ₽)</text></svg>