<svg xmlns="http://www.w3.org/2000/svg" viewBox="0 0 900 390" font-family="system-ui,-apple-system,'Segoe UI',Arial,sans-serif" role="img" aria-label="Визитка, корпсайт или портал"><rect width="900" height="390" fill="#ffffff" rx="14"/><rect x="1" y="1" width="898" height="388" fill="none" stroke="#e1e0d9" rx="13"/><text x="36" y="52" font-size="24" font-weight="700" fill="#0b0b0b">Визитка, корпсайт или портал</text><rect x="246" y="62" width="192" height="40" fill="#52514e" rx="8"/><text x="342.0" y="88" font-size="16" font-weight="700" fill="#fff" text-anchor="middle">Визитка</text><rect x="452" y="62" width="192" height="40" fill="#2a78d6" rx="8"/><text x="548.0" y="88" font-size="16" font-weight="700" fill="#fff" text-anchor="middle">Корпоративный сайт</text><rect x="658" y="62" width="192" height="40" fill="#008300" rx="8"/><text x="754.0" y="88" font-size="16" font-weight="700" fill="#fff" text-anchor="middle">Портал</text><rect x="30" y="90" width="840" height="52" fill="#f4f4f1" rx="8"/><text x="42" y="120" font-size="14.5" font-weight="700" fill="#0b0b0b">Задача</text><text x="254" y="120" font-size="14" fill="#52514e">Присутствие
и контакты</text><text x="460" y="120" font-size="14" fill="#52514e">Продажи услуг,
каталог</text><text x="666" y="120" font-size="14" fill="#52514e">Процессы
и кабинеты</text><text x="42" y="176" font-size="14.5" font-weight="700" fill="#0b0b0b">Интеграции</text><text x="254" y="176" font-size="14" fill="#52514e">Формы, карты</text><text x="460" y="176" font-size="14" fill="#52514e">CRM, 1С,
телефония</text><text x="666" y="176" font-size="14" fill="#52514e">ERP, ЛК,
API</text><rect x="30" y="202" width="840" height="52" fill="#f4f4f1" rx="8"/><text x="42" y="232" font-size="14.5" font-weight="700" fill="#0b0b0b">Ориентир цены</text><text x="254" y="232" font-size="14" fill="#52514e">от 120 тыс ₽</text><text x="460" y="232" font-size="14" fill="#52514e">300–900 тыс ₽</text><text x="666" y="232" font-size="14" fill="#52514e">от 1.6 млн ₽</text><text x="42" y="288" font-size="14.5" font-weight="700" fill="#0b0b0b">Срок</text><text x="254" y="288" font-size="14" fill="#52514e">3–6 недель</text><text x="460" y="288" font-size="14" fill="#52514e">2–3 месяца</text><text x="666" y="288" font-size="14" fill="#52514e">3–6 месяцев</text><text x="36" y="368" font-size="13" fill="#52514e">Вилки — рыночные обзоры 2026 (team-b, starta, d-option)</text></svg>