<svg xmlns="http://www.w3.org/2000/svg" viewBox="0 0 900 390" font-family="system-ui,-apple-system,'Segoe UI',Arial,sans-serif" role="img" aria-label="Конструктор, ИИ-генератор или заказной лендинг"><rect width="900" height="390" fill="#ffffff" rx="14"/><rect x="1" y="1" width="898" height="388" fill="none" stroke="#e1e0d9" rx="13"/><text x="36" y="52" font-size="24" font-weight="700" fill="#0b0b0b">Конструктор, ИИ-генератор или заказной лендинг</text><rect x="246" y="62" width="192" height="40" fill="#52514e" rx="8"/><text x="342.0" y="88" font-size="16" font-weight="700" fill="#fff" text-anchor="middle">Конструктор</text><rect x="452" y="62" width="192" height="40" fill="#c9750a" rx="8"/><text x="548.0" y="88" font-size="16" font-weight="700" fill="#fff" text-anchor="middle">ИИ-генератор</text><rect x="658" y="62" width="192" height="40" fill="#2a78d6" rx="8"/><text x="754.0" y="88" font-size="16" font-weight="700" fill="#fff" text-anchor="middle">Заказной</text><rect x="30" y="90" width="840" height="52" fill="#f4f4f1" rx="8"/><text x="42" y="120" font-size="14.5" font-weight="700" fill="#0b0b0b">Скорость</text><text x="254" y="120" font-size="14" fill="#52514e">Дни</text><text x="460" y="120" font-size="14" fill="#52514e">Часы</text><text x="666" y="120" font-size="14" fill="#52514e">3–6 недель</text><text x="42" y="176" font-size="14.5" font-weight="700" fill="#0b0b0b">Уникальность</text><text x="254" y="176" font-size="14" fill="#52514e">Шаблон</text><text x="460" y="176" font-size="14" fill="#52514e">Типовые блоки</text><text x="666" y="176" font-size="14" fill="#52514e">Под вашу воронку</text><rect x="30" y="202" width="840" height="52" fill="#f4f4f1" rx="8"/><text x="42" y="232" font-size="14.5" font-weight="700" fill="#0b0b0b">Интеграции CRM</text><text x="254" y="232" font-size="14" fill="#52514e">Базовые</text><text x="460" y="232" font-size="14" fill="#52514e">Минимум</text><text x="666" y="232" font-size="14" fill="#52514e">Полные + аналитика</text><text x="42" y="288" font-size="14.5" font-weight="700" fill="#0b0b0b">Когда выбирать</text><text x="254" y="288" font-size="14" fill="#52514e">Проверить гипотезу</text><text x="460" y="288" font-size="14" fill="#52514e">Черновик, MVP</text><text x="666" y="279" font-size="14" fill="#52514e">Трафик за деньги</text><text x="666" y="297" font-size="14" fill="#52514e">уже идёт</text></svg>