<svg xmlns="http://www.w3.org/2000/svg" viewBox="0 0 900 390" font-family="system-ui,-apple-system,'Segoe UI',Arial,sans-serif" role="img" aria-label="Обычный сайт или сайт с ИИ"><rect width="900" height="390" fill="#ffffff" rx="14"/><rect x="1" y="1" width="898" height="388" fill="none" stroke="#e1e0d9" rx="13"/><text x="36" y="52" font-size="24" font-weight="700" fill="#0b0b0b">Обычный сайт или сайт с ИИ</text><rect x="246" y="62" width="295" height="40" fill="#52514e" rx="8"/><text x="393.5" y="88" font-size="16" font-weight="700" fill="#fff" text-anchor="middle">Обычный сайт</text><rect x="555" y="62" width="295" height="40" fill="#2a78d6" rx="8"/><text x="702.5" y="88" font-size="16" font-weight="700" fill="#fff" text-anchor="middle">Сайт с ИИ</text><rect x="30" y="90" width="840" height="52" fill="#f4f4f1" rx="8"/><text x="42" y="120" font-size="14.5" font-weight="700" fill="#0b0b0b">Роль</text><text x="254" y="120" font-size="14" fill="#52514e">Витрина</text><text x="563" y="111" font-size="14" fill="#52514e">Рабочее место</text><text x="563" y="129" font-size="14" fill="#52514e">процессов</text><text x="42" y="176" font-size="14.5" font-weight="700" fill="#0b0b0b">Вопрос клиента</text><text x="254" y="176" font-size="14" fill="#52514e">Ищет сам</text><text x="563" y="167" font-size="14" fill="#52514e">Бот отвечает</text><text x="563" y="185" font-size="14" fill="#52514e">за секунды</text><rect x="30" y="202" width="840" height="52" fill="#f4f4f1" rx="8"/><text x="42" y="232" font-size="14.5" font-weight="700" fill="#0b0b0b">Заявка ночью</text><text x="254" y="232" font-size="14" fill="#52514e">Ждёт утра</text><text x="563" y="223" font-size="14" fill="#52514e">Квалифицирована,</text><text x="563" y="241" font-size="14" fill="#52514e">в CRM</text><text x="42" y="288" font-size="14.5" font-weight="700" fill="#0b0b0b">Поиск по сайту</text><text x="254" y="288" font-size="14" fill="#52514e">По словам</text><text x="563" y="288" font-size="14" fill="#52514e">Понимает смысл</text></svg>