<svg xmlns="http://www.w3.org/2000/svg" viewBox="0 0 900 446" font-family="system-ui,-apple-system,'Segoe UI',Arial,sans-serif" role="img" aria-label="Тильда или заказная разработка"><rect width="900" height="446" fill="#ffffff" rx="14"/><rect x="1" y="1" width="898" height="444" fill="none" stroke="#e1e0d9" rx="13"/><text x="36" y="52" font-size="24" font-weight="700" fill="#0b0b0b">Тильда или заказная разработка</text><rect x="246" y="62" width="295" height="40" fill="#c9750a" rx="8"/><text x="393.5" y="88" font-size="16" font-weight="700" fill="#fff" text-anchor="middle">Тильда</text><rect x="555" y="62" width="295" height="40" fill="#2a78d6" rx="8"/><text x="702.5" y="88" font-size="16" font-weight="700" fill="#fff" text-anchor="middle">Заказная</text><rect x="30" y="90" width="840" height="52" fill="#f4f4f1" rx="8"/><text x="42" y="120" font-size="14.5" font-weight="700" fill="#0b0b0b">Скорость запуска</text><text x="254" y="120" font-size="14" fill="#52514e">Дни–недели</text><text x="563" y="120" font-size="14" fill="#52514e">Недели–месяцы</text><text x="42" y="176" font-size="14.5" font-weight="700" fill="#0b0b0b">Подписка</text><text x="254" y="176" font-size="14" fill="#52514e">Платится всегда</text><text x="563" y="176" font-size="14" fill="#52514e">Нет: хостинг
копейки</text><rect x="30" y="202" width="840" height="52" fill="#f4f4f1" rx="8"/><text x="42" y="232" font-size="14.5" font-weight="700" fill="#0b0b0b">Интеграции 1С/CRM</text><text x="254" y="232" font-size="14" fill="#52514e">Ограничены</text><text x="563" y="232" font-size="14" fill="#52514e">Любые</text><text x="42" y="288" font-size="14.5" font-weight="700" fill="#0b0b0b">Нагрузка и каталог</text><text x="254" y="288" font-size="14" fill="#52514e">Небольшие</text><text x="563" y="288" font-size="14" fill="#52514e">Без ограничений</text><rect x="30" y="314" width="840" height="52" fill="#f4f4f1" rx="8"/><text x="42" y="344" font-size="14.5" font-weight="700" fill="#0b0b0b">Кому подходит</text><text x="254" y="344" font-size="14" fill="#52514e">Лендинг, MVP,
визитка</text><text x="563" y="344" font-size="14" fill="#52514e">Магазин, портал,
AI-функции</text></svg>