<svg xmlns="http://www.w3.org/2000/svg" viewBox="0 0 900 390" font-family="system-ui,-apple-system,'Segoe UI',Arial,sans-serif" role="img" aria-label="Готовый бот, конструктор или разработка"><rect width="900" height="390" fill="#ffffff" rx="14"/><rect x="1" y="1" width="898" height="388" fill="none" stroke="#e1e0d9" rx="13"/><text x="36" y="52" font-size="24" font-weight="700" fill="#0b0b0b">Готовый бот, конструктор или разработка</text><rect x="246" y="62" width="295" height="40" fill="#52514e" rx="8"/><text x="393.5" y="88" font-size="16" font-weight="700" fill="#fff" text-anchor="middle">Готовый/конструктор</text><rect x="555" y="62" width="295" height="40" fill="#2a78d6" rx="8"/><text x="702.5" y="88" font-size="16" font-weight="700" fill="#fff" text-anchor="middle">Разработка</text><rect x="30" y="90" width="840" height="52" fill="#f4f4f1" rx="8"/><text x="42" y="120" font-size="14.5" font-weight="700" fill="#0b0b0b">Логика</text><text x="254" y="111" font-size="14" fill="#52514e">Фиксированная</text><text x="254" y="129" font-size="14" fill="#52514e">или типовые блоки</text><text x="563" y="120" font-size="14" fill="#52514e">Любая, под ваш процесс</text><text x="42" y="176" font-size="14.5" font-weight="700" fill="#0b0b0b">Ответы</text><text x="254" y="176" font-size="14" fill="#52514e">Кнопки</text><text x="563" y="176" font-size="14" fill="#52514e">ИИ по базе знаний</text><rect x="30" y="202" width="840" height="52" fill="#f4f4f1" rx="8"/><text x="42" y="232" font-size="14.5" font-weight="700" fill="#0b0b0b">Интеграции</text><text x="254" y="232" font-size="14" fill="#52514e">Ограниченные</text><text x="563" y="232" font-size="14" fill="#52514e">CRM, оплата, 1С</text><text x="42" y="288" font-size="14.5" font-weight="700" fill="#0b0b0b">Цена</text><text x="254" y="288" font-size="14" fill="#52514e">0–2000 ₽/мес</text><text x="563" y="288" font-size="14" fill="#52514e">20–500 тыс ₽ разово</text></svg>