<svg xmlns="http://www.w3.org/2000/svg" viewBox="0 0 900 348" font-family="system-ui,-apple-system,'Segoe UI',Arial,sans-serif" role="img" aria-label="Сколько стоит внедрение CRM (рынок РФ, 2026)"><rect width="900" height="348" fill="#ffffff" rx="14"/><rect x="1" y="1" width="898" height="346" fill="none" stroke="#e1e0d9" rx="13"/><text x="36" y="52" font-size="24" font-weight="700" fill="#0b0b0b">Сколько стоит внедрение CRM (рынок РФ, 2026)</text><text x="300" y="106.0" font-size="15" fill="#0b0b0b" text-anchor="end">Базовое (малый бизнес)</text><rect x="320" y="84" width="430" height="34" fill="#f4f4f1" rx="6"/><rect x="320" y="84" width="43" height="34" fill="#2a78d6" rx="6"/><text x="375" y="106.0" font-size="15" font-weight="700" fill="#0b0b0b">30–80 тыс ₽</text><text x="300" y="158.0" font-size="15" fill="#0b0b0b" text-anchor="end">Стандартное</text><rect x="320" y="136" width="430" height="34" fill="#f4f4f1" rx="6"/><rect x="320" y="136" width="129" height="34" fill="#2a78d6" rx="6"/><text x="461" y="158.0" font-size="15" font-weight="700" fill="#0b0b0b">100–300 тыс ₽</text><text x="300" y="210.0" font-size="15" fill="#0b0b0b" text-anchor="end">Продвинутое</text><rect x="320" y="188" width="430" height="34" fill="#f4f4f1" rx="6"/><rect x="320" y="188" width="301" height="34" fill="#2a78d6" rx="6"/><text x="633" y="210.0" font-size="15" font-weight="700" fill="#0b0b0b">400–900 тыс ₽</text><text x="300" y="262.0" font-size="15" fill="#0b0b0b" text-anchor="end">Enterprise / заказная CRM</text><rect x="320" y="240" width="430" height="34" fill="#f4f4f1" rx="6"/><rect x="320" y="240" width="430" height="34" fill="#52514e" rx="6"/><text x="762" y="262.0" font-size="15" font-weight="700" fill="#0b0b0b">от 1 млн ₽</text><text x="36" y="326" font-size="13" fill="#52514e">Рыночные вилки: обзоры spark.ru, elma365; сроки от 1–4 недель (SaaS)</text></svg>