<svg xmlns="http://www.w3.org/2000/svg" viewBox="0 0 900 400" font-family="system-ui,-apple-system,'Segoe UI',Arial,sans-serif" role="img" aria-label="Эффекты внедрения ИИ в процессы"><rect width="900" height="400" fill="#ffffff" rx="14"/><rect x="1" y="1" width="898" height="398" fill="none" stroke="#e1e0d9" rx="13"/><text x="36" y="52" font-size="24" font-weight="700" fill="#0b0b0b">Эффекты внедрения ИИ в процессы</text><text x="300" y="106.0" font-size="15" fill="#0b0b0b" text-anchor="end">ФОТ первой линии поддержки</text><rect x="320" y="84" width="430" height="34" fill="#f4f4f1" rx="6"/><rect x="320" y="84" width="172" height="34" fill="#2a78d6" rx="6"/><text x="504" y="106.0" font-size="15" font-weight="700" fill="#0b0b0b">−30–40%</text><text x="300" y="158.0" font-size="15" fill="#0b0b0b" text-anchor="end">Стоимость обработки документа</text><rect x="320" y="136" width="430" height="34" fill="#f4f4f1" rx="6"/><rect x="320" y="136" width="344" height="34" fill="#2a78d6" rx="6"/><text x="676" y="158.0" font-size="15" font-weight="700" fill="#0b0b0b">−70–80%</text><text x="300" y="210.0" font-size="15" fill="#0b0b0b" text-anchor="end">Ошибки ручного ввода</text><rect x="320" y="188" width="430" height="34" fill="#f4f4f1" rx="6"/><rect x="320" y="188" width="387" height="34" fill="#2a78d6" rx="6"/><text x="719" y="210.0" font-size="15" font-weight="700" fill="#0b0b0b">−90%</text><text x="300" y="262.0" font-size="15" fill="#0b0b0b" text-anchor="end">Конверсия в продажах</text><rect x="320" y="240" width="430" height="34" fill="#f4f4f1" rx="6"/><rect x="320" y="240" width="129" height="34" fill="#008300" rx="6"/><text x="461" y="262.0" font-size="15" font-weight="700" fill="#0b0b0b">+15–30%</text><text x="300" y="314.0" font-size="15" fill="#0b0b0b" text-anchor="end">Продуктивность менеджеров</text><rect x="320" y="292" width="430" height="34" fill="#f4f4f1" rx="6"/><rect x="320" y="292" width="215" height="34" fill="#008300" rx="6"/><text x="547" y="314.0" font-size="15" font-weight="700" fill="#0b0b0b">+30–50%</text><text x="36" y="378" font-size="13" fill="#52514e">Данные: airassvet.ru (отчёт ROI ИИ 2025–2026), upr.ru, korusconsulting.ru</text></svg>