<svg width="196" height="36" viewBox="0 0 196 36" fill="none" xmlns="http://www.w3.org/2000/svg" aria-label="Skill Dev">
  <path d="M25.062 27.162c0-3.173-2.265-5.482-7.819-7.967-4.728-2.118-9.346-4.666-9.346-10.427 0-2.628.799-6.235 4.578-8.768H0v36h9.955c9.741 0 15.107-3.022 15.107-8.838zM28.07 26.398a8.62 8.62 0 0 0-.542-2.4H36v2.4h-7.93zM23.532 19.198c.983.708 1.87 1.5 2.595 2.4h9.87v-2.4H23.532zM27.984 28.799H36v2.4h-8.67a10.52 10.52 0 0 0 .654-2.4zM36 2.399V0H25.672c-3.974 0-8.396.48-11.35 2.399H36zM23.271 36a11.06 11.06 0 0 0 2.659-2.402h10.068V36H23.271z" fill="#005EB8"/>
  <path d="M11.95 4.8a7.031 7.031 0 0 0-.875 2.4h24.923V4.8H11.95zM18.485 16.421c-1.578-.706-2.864-1.367-3.9-2.022h21.413v2.4H19.311c-.242-.114-.486-.224-.729-.334l-.097-.044zM10.986 9.6c.104.88.39 1.663.903 2.4H36V9.6H10.985z" fill="#005EB8"/>
  <text x="44" y="25" font-family="'Open Sans', Arial, sans-serif" font-size="21" font-weight="700" fill="#005EB8">Skill Dev</text>
</svg>
