<svg id="eoNJ39y0CfF1" xmlns="http://www.w3.org/2000/svg" xmlns:xlink="http://www.w3.org/1999/xlink" viewBox="0 0 894 504" shape-rendering="geometricPrecision" text-rendering="geometricPrecision" project-id="2fd1bb525d974c79b3243314acb6dd7a" export-id="e94a9df17e5848759ce72969a319d023" cached="false" width="894" height="504"><defs><filter id="eoNJ39y0CfF31-filter" x="-150%" y="-150%" width="400%" height="400%"><feGaussianBlur id="eoNJ39y0CfF31-filter-blur-0" stdDeviation="10,10" result="result"/></filter><filter id="eoNJ39y0CfF69-filter" x="-150%" y="-150%" width="400%" height="400%"><feGaussianBlur id="eoNJ39y0CfF69-filter-blur-0" stdDeviation="10,10" result="result"/></filter><filter id="eoNJ39y0CfF71-filter" x="-150%" y="-150%" width="400%" height="400%"><feGaussianBlur id="eoNJ39y0CfF71-filter-drop-shadow-0-blur" in="SourceAlpha" stdDeviation="7.95,7.95"/><feOffset id="eoNJ39y0CfF71-filter-drop-shadow-0-offset" dx="0" dy="0" result="tmp"/><feFlood id="eoNJ39y0CfF71-filter-drop-shadow-0-flood" flood-color="rgba(212,220,233,0.18)"/><feComposite id="eoNJ39y0CfF71-filter-drop-shadow-0-composite" operator="in" in2="tmp"/><feMerge id="eoNJ39y0CfF71-filter-drop-shadow-0-merge" result="result"><feMergeNode id="eoNJ39y0CfF71-filter-drop-shadow-0-merge-node-1"/><feMergeNode id="eoNJ39y0CfF71-filter-drop-shadow-0-merge-node-2" in="SourceGraphic"/></feMerge></filter><filter id="eoNJ39y0CfF415-filter" x="-150%" y="-150%" width="400%" height="400%"><feGaussianBlur id="eoNJ39y0CfF415-filter-drop-shadow-0-blur" in="SourceAlpha" stdDeviation="7.95,7.95"/><feOffset id="eoNJ39y0CfF415-filter-drop-shadow-0-offset" dx="0" dy="0" result="tmp"/><feFlood id="eoNJ39y0CfF415-filter-drop-shadow-0-flood" flood-color="rgba(212,233,213,0.18)"/><feComposite id="eoNJ39y0CfF415-filter-drop-shadow-0-composite" operator="in" in2="tmp"/><feMerge id="eoNJ39y0CfF415-filter-drop-shadow-0-merge" result="result"><feMergeNode id="eoNJ39y0CfF415-filter-drop-shadow-0-merge-node-1"/><feMergeNode id="eoNJ39y0CfF415-filter-drop-shadow-0-merge-node-2" in="SourceGraphic"/></feMerge></filter></defs><g transform="translate(88.037109 47.504524)"><g id="eoNJ39y0CfF3" transform="matrix(.93 0 0 0.93-73.934459 25.44992)" opacity="0"><g id="eoNJ39y0CfF4" transform="matrix(1 0-.034921 1 46.196088-31.091272)" opacity="0.78"><rect width="864.178489" height="454.07989" rx="12" ry="12" transform="matrix(.914163 0 0 0.978814-4.153565-.898735)" fill="#fcfdff"/><g transform="matrix(.44 0 0 0.44 165.556581 1.58022)" opacity="0.3"><g><path d="M1280.88,59h-1.76c-3.11,12.0766-14.07,21-27.12,21-15.46,0-28-12.536-28-28s12.54-28,28-28c12.68,0,23.4,8.434,26.84,20h2.32c3.44-11.566,14.16-20,26.84-20s23.4,8.434,26.84,20h2.32c3.44-11.566,14.16-20,26.84-20c15.46,0,28,12.536,28,28s-12.54,28-28,28c-13.05,0-24.01-8.9234-27.12-21h-1.76c-3.11,12.0766-14.07,21-27.12,21s-24.01-8.9234-27.12-21Z" clip-rule="evenodd" fill="#fff" fill-rule="evenodd"/><path d="M1314.02,51.8v-2.89c0-3.3-2.7-6-6-6-3.31,0-6,2.69-6,6v2.89c0,.61-.26,1.54-.57,2.06l-1.15,1.91c-.71,1.18-.22,2.49,1.08,2.93c4.31,1.44,8.96,1.44,13.27,0c1.21-.4,1.74-1.83,1.08-2.93" fill="none" stroke="#93939a" stroke-width="1.5" stroke-linecap="round" stroke-miterlimit="10"/><path d="M1309.87,43.2c-.31-.09-.63-.16-.96-.2-.96-.12-1.88-.05-2.74.2.29-.74,1.01-1.26,1.85-1.26s1.56.52,1.85,1.26Z" fill="none" stroke="#93939a" stroke-width="1.5" stroke-linecap="round" stroke-linejoin="round" stroke-miterlimit="10"/><path d="M1311.02,59.06c0,1.65-1.35,3-3,3-.82,0-1.58-.34-2.12-.88s-.88-1.3-.88-2.12" fill="none" stroke="#93939a" stroke-width="1.5" stroke-miterlimit="10"/><path d="M1367.02,43.01c-.84-.64-1.88-1.01-3.02-1.01-2.76,0-5,2.24-5,5s2.24,5,5,5s5-2.24,5-5" fill="none" stroke="#93939a" stroke-width="1.5" stroke-linecap="round" stroke-linejoin="round"/><path d="M1372.59,62c0-3.87-3.85-7-8.59-7s-8.59,3.13-8.59,7" fill="none" stroke="#93939a" stroke-width="1.5" stroke-linecap="round" stroke-linejoin="round"/></g><g><rect width="450" height="864" rx="24" ry="24" transform="translate(942 120)" fill="#cecfe0"/><text dx="0" dy="0" font-family="&quot;eoNJ39y0CfF1:::Open Sans&quot;" font-size="14" font-weight="500" transform="translate(1337.039892 0)" fill="#fff"><tspan y="223.362" font-weight="500"><![CDATA[
SUN
]]></tspan></text><text dx="0" dy="0" font-family="&quot;eoNJ39y0CfF1:::Open Sans&quot;" font-size="16" font-weight="500" transform="translate(1366.57559-.000001)" fill="#fff"><tspan y="274.128" font-weight="500"><![CDATA[
5
]]></tspan></text><text dx="0" dy="0" font-family="&quot;eoNJ39y0CfF1:::Open Sans&quot;" font-size="16" font-weight="500" transform="translate(1358.113409 0)" fill="#fff"><tspan y="330.128" font-weight="500"><![CDATA[
12
]]></tspan></text><text dx="0" dy="0" font-family="&quot;eoNJ39y0CfF1:::Open Sans&quot;" font-size="16" font-weight="500" transform="translate(1358.464267 0)" fill="#fff"><tspan y="386.128" font-weight="500"><![CDATA[
19
]]></tspan></text><text dx="0" dy="0" font-family="&quot;eoNJ39y0CfF1:::Open Sans&quot;" font-size="16" font-weight="500" transform="translate(1358.648948 0)" fill="#fff"><tspan y="442.128" font-weight="500"><![CDATA[
26
]]></tspan></text><rect width="110" height="48" rx="24" ry="24" transform="translate(1266 136)" fill="#fff"/><text dx="0" dy="0" font-family="&quot;eoNJ39y0CfF1:::Open Sans&quot;" font-size="16" font-weight="500" transform="translate(1289.503694-1.315828)" fill="#93939a"><tspan y="166.128" font-weight="500"><![CDATA[
2023
]]></tspan></text><path d="M1349.28,157.967l-4.35,4.346c-.51.514-1.35.514-1.86,0l-4.35-4.346" fill="none" stroke="#93939a" stroke-width="1.5" stroke-linecap="round" stroke-linejoin="round" stroke-miterlimit="10"/></g></g></g><g id="eoNJ39y0CfF30" transform="matrix(.6 0-.010473 0.6 19.95725-100.720204)" opacity="0.88"><rect width="1316.666667" height="711.540395" rx="10" ry="10" transform="translate(39.870691 147.834952)" opacity="0.14" filter="url(#eoNJ39y0CfF31-filter)" fill="#71b9ff"/><rect width="1316.666667" height="744.409614" rx="18" ry="18" transform="translate(22.27681 107.381877)" fill="#fdfeff"/><g transform="translate(6.666668 0)"><g><path d="M1285.45,138.465h9.61c.56,0,1.11.225,1.51.625.4.401.62.944.62,1.51v2.135h-2.13v-2.135h-9.61v17.081h9.61v-2.135h2.13v2.135c0,.566-.22,1.109-.62,1.51-.4.4-.95.625-1.51.625h-9.61c-.57,0-1.11-.225-1.51-.625-.4-.401-.63-.944-.63-1.51v-17.081c0-.566.23-1.109.63-1.51.4-.4.94-.625,1.51-.625Z" fill="#828282"/><path d="M1296.22,152.973l1.51,1.505l5.33-5.338-5.33-5.338-1.51,1.506l2.76,2.764h-10.33v2.136h10.33l-2.76,2.765Z" fill="#828282"/></g><line x1="142.308" y1="528.764" x2="289.204" y2="528.764" fill="none" stroke="#e0e0e0" stroke-width="0.854047"/></g><g transform="translate(30.000006 0)"><g transform="translate(-19.297463-135.000009)"><text dx="0" dy="0" font-family="&quot;eoNJ39y0CfF1:::Open Sans&quot;" font-size="15.3728" font-weight="400" letter-spacing="0.02" transform="translate(1262.091757 0.184816)" fill="#1d1d1d"><tspan y="958.438" font-weight="400"><![CDATA[
Next
]]></tspan></text><path d="M1306.63,957.257l3.41-3.416-3.41-3.416" fill="none" stroke="#1d1d1d" stroke-width="1.70809" stroke-linecap="round" stroke-linejoin="round"/></g><g><path d="M1244.03,271.838c-2.25,0-4.46.668-6.33,1.919-1.87,1.252-3.33,3.03-4.19,5.111s-1.09,4.37-.65,6.579s1.52,4.238,3.12,5.831c1.59,1.592,3.62,2.677,5.83,3.116c2.21.44,4.5.214,6.58-.648s3.86-2.321,5.11-4.194s1.92-4.074,1.92-6.326c0-3.02-1.2-5.917-3.34-8.052-2.14-2.136-5.03-3.336-8.05-3.336Zm0,21.352c-1.97,0-3.9-.585-5.54-1.68s-2.91-2.651-3.67-4.471c-.75-1.821-.95-3.824-.56-5.757.38-1.933,1.33-3.708,2.72-5.102c1.4-1.393,3.17-2.342,5.1-2.727c1.94-.384,3.94-.187,5.76.567s3.38,2.031,4.47,3.67c1.1,1.639,1.68,3.565,1.68,5.536c0,2.642-1.05,5.177-2.92,7.045-1.86,1.869-4.4,2.919-7.04,2.919Z" fill="#333"/><path d="M1244.23,276.763c-.77-.012-1.53.145-2.23.461-.71.316-1.33.783-1.84,1.368-.07.065-.12.143-.16.23s-.06.181-.06.276c0,.088.01.175.05.255.03.081.08.154.15.216.06.061.13.108.22.14.08.032.16.046.25.044.19-.005.37-.079.51-.207.38-.446.85-.804,1.38-1.049.53-.246,1.11-.374,1.7-.374c1.68,0,2.73,1.082,2.73,2.427v.035c0,1.573-1.26,2.449-3.24,2.598-.08.003-.15.023-.23.059-.07.035-.13.086-.18.147-.05.062-.09.134-.11.211-.02.078-.03.159-.02.238c0,0,0,1.651,0,1.957.02.176.1.339.24.458.13.118.3.183.47.182h.08c.18-.017.34-.1.46-.232.12-.131.18-.302.18-.479v-1.466c2.14-.299,3.87-1.424,3.87-3.758v-.036c-.02-2.135-1.69-3.701-4.22-3.701Z" fill="#333"/><path d="M1243.87,289.951c.49,0,.89-.398.89-.889c0-.492-.4-.89-.89-.89s-.89.398-.89.89c0,.491.4.889.89.889Z" fill="#333"/></g><g><text dx="0" dy="0" font-family="&quot;eoNJ39y0CfF1:::Open Sans&quot;" font-size="15.3728" font-weight="400" letter-spacing="0.02" transform="translate(1222.183355-6.059553)" fill="#828282"><tspan y="359.751" font-weight="400"><![CDATA[
Options
]]></tspan></text><path d="M1258.55,414.108c1.06,0,1.92-.86,1.92-1.922c0-1.061-.86-1.921-1.92-1.921s-1.92.86-1.92,1.921c0,1.062.86,1.922,1.92,1.922Z" fill="#828282"/><path d="M1266.23,414.108c1.06,0,1.93-.86,1.93-1.922c0-1.061-.87-1.921-1.93-1.921s-1.92.86-1.92,1.921c0,1.062.86,1.922,1.92,1.922Z" fill="#828282"/><path d="M1273.92,414.108c1.06,0,1.92-.86,1.92-1.922c0-1.061-.86-1.921-1.92-1.921s-1.92.86-1.92,1.921c0,1.062.86,1.922,1.92,1.922Z" fill="#828282"/><path d="M1258.55,621.642c1.06,0,1.92-.86,1.92-1.922c0-1.061-.86-1.921-1.92-1.921s-1.92.86-1.92,1.921c0,1.062.86,1.922,1.92,1.922Z" fill="#828282"/><path d="M1266.23,621.642c1.06,0,1.93-.86,1.93-1.922c0-1.061-.87-1.921-1.93-1.921s-1.92.86-1.92,1.921c0,1.062.86,1.922,1.92,1.922Z" fill="#828282"/><path d="M1273.92,621.642c1.06,0,1.92-.86,1.92-1.922c0-1.061-.86-1.921-1.92-1.921s-1.92.86-1.92,1.921c0,1.062.86,1.922,1.92,1.922Z" fill="#828282"/><path d="M1258.55,483.286c1.06,0,1.92-.86,1.92-1.922c0-1.061-.86-1.921-1.92-1.921s-1.92.86-1.92,1.921c0,1.062.86,1.922,1.92,1.922Z" fill="#828282"/><path d="M1266.23,483.286c1.06,0,1.93-.86,1.93-1.922c0-1.061-.87-1.921-1.93-1.921s-1.92.86-1.92,1.921c0,1.062.86,1.922,1.92,1.922Z" fill="#828282"/><path d="M1273.92,483.286c1.06,0,1.92-.86,1.92-1.922c0-1.061-.86-1.921-1.92-1.921s-1.92.86-1.92,1.921c0,1.062.86,1.922,1.92,1.922Z" fill="#828282"/><path d="M1258.55,690.819c1.06,0,1.92-.86,1.92-1.921c0-1.062-.86-1.922-1.92-1.922s-1.92.86-1.92,1.922c0,1.061.86,1.921,1.92,1.921Z" fill="#828282"/><path d="M1266.23,690.819c1.06,0,1.93-.86,1.93-1.921c0-1.062-.87-1.922-1.93-1.922s-1.92.86-1.92,1.922c0,1.061.86,1.921,1.92,1.921Z" fill="#828282"/><path d="M1273.92,690.819c1.06,0,1.92-.86,1.92-1.921c0-1.062-.86-1.922-1.92-1.922s-1.92.86-1.92,1.922c0,1.061.86,1.921,1.92,1.921Z" fill="#828282"/><path d="M1258.55,552.464c1.06,0,1.92-.861,1.92-1.922s-.86-1.921-1.92-1.921-1.92.86-1.92,1.921.86,1.922,1.92,1.922Z" fill="#828282"/><path d="M1266.23,552.464c1.06,0,1.93-.861,1.93-1.922s-.87-1.921-1.93-1.921-1.92.86-1.92,1.921.86,1.922,1.92,1.922Z" fill="#828282"/><path d="M1273.92,552.464c1.06,0,1.92-.861,1.92-1.922s-.86-1.921-1.92-1.921-1.92.86-1.92,1.921.86,1.922,1.92,1.922Z" fill="#828282"/><path d="M1258.55,759.997c1.06,0,1.92-.86,1.92-1.922c0-1.061-.86-1.921-1.92-1.921s-1.92.86-1.92,1.921c0,1.062.86,1.922,1.92,1.922Z" fill="#828282"/><path d="M1266.23,759.997c1.06,0,1.93-.86,1.93-1.922c0-1.061-.87-1.921-1.93-1.921s-1.92.86-1.92,1.921c0,1.062.86,1.922,1.92,1.922Z" fill="#828282"/><path d="M1273.92,759.997c1.06,0,1.92-.86,1.92-1.922c0-1.061-.86-1.921-1.92-1.921s-1.92.86-1.92,1.921c0,1.062.86,1.922,1.92,1.922Z" fill="#828282"/></g></g></g><g transform="translate(25.151526-33.029761)"><rect width="808.402626" height="436.430687" rx="20" ry="20" transform="matrix(.983601 0 0 0.978814 6.687008 24.686343)" opacity="0.14" filter="url(#eoNJ39y0CfF69-filter)" fill="#71b9ff"/><rect width="808.402626" height="459.244109" rx="12" ry="12" transform="matrix(.983601 0 0 0.978814-4.963478-3.469001)" fill="#f8fbff"/><g transform="translate(1.104501 13.299215)" filter="url(#eoNJ39y0CfF71-filter)"><rect width="74" height="442" rx="12" ry="12" transform="translate(-2.324258-13.554963)" fill="#2290ff"/><g transform="translate(.301075-13.419755)"><g style="mix-blend-mode:hard-light" transform="translate(-.048387 0)" opacity="0.58"><path d="M44.8333,76.0832v-5.6667c0-1.25-.5333-1.75-1.8583-1.75h-3.3667c-1.325,0-1.8583.5-1.8583,1.75v5.6667c0,1.25.5333,1.75,1.8583,1.75h3.3667c1.325,0,1.8583-.5,1.8583-1.75Z" fill="none" stroke="#fff" stroke-width="1.6" stroke-linecap="round" stroke-linejoin="round"/><path d="M44.8333,83.5835v-1.5c0-1.25-.5333-1.75-1.8583-1.75h-3.3667c-1.325,0-1.8583.5-1.8583,1.75v1.5c0,1.25.5333,1.75,1.8583,1.75h3.3667c1.325,0,1.8583-.5,1.8583-1.75Z" fill="none" stroke="#fff" stroke-width="1.6" stroke-linecap="round" stroke-linejoin="round"/><path d="M35.2501,77.9165v5.6667c0,1.25-.5334,1.75-1.8584,1.75h-3.3666c-1.325,0-1.8584-.5-1.8584-1.75v-5.6667c0-1.25.5334-1.75,1.8584-1.75h3.3666c1.325,0,1.8584.5,1.8584,1.75Z" fill="none" stroke="#fff" stroke-width="1.6" stroke-linecap="round" stroke-linejoin="round"/><path d="M35.2501,70.4165v1.5c0,1.25-.5334,1.75-1.8584,1.75h-3.3666c-1.325,0-1.8584-.5-1.8584-1.75v-1.5c0-1.25.5334-1.75,1.8584-1.75h3.3666c1.325,0,1.8584.5,1.8584,1.75Z" fill="none" stroke="#fff" stroke-width="1.6" stroke-linecap="round" stroke-linejoin="round"/><text dx="0" dy="0" font-family="&quot;eoNJ39y0CfF1:::Open Sans&quot;" font-size="10" font-weight="400" letter-spacing="0.025" transform="translate(10.5 91)" fill="#fff"><tspan x="0" y="10.8794" font-family="&quot;eoNJ39y0CfF1:::Open Sans&quot;" font-size="10" font-weight="400" font-style="normal" letter-spacing="0.025" fill="#fff"><![CDATA[
Dashboard
]]></tspan></text></g><g style="mix-blend-mode:hard-light" transform="translate(-.247311-.688676)" opacity="0.58"><path d="M33.1667,116.667v2.5" fill="none" stroke="#fff" stroke-width="1.6" stroke-linecap="round" stroke-linejoin="round" stroke-miterlimit="10"/><path d="M39.8333,116.667v2.5" fill="none" stroke="#fff" stroke-width="1.6" stroke-linecap="round" stroke-linejoin="round" stroke-miterlimit="10"/><path d="M29.4167,122.575h14.1667" fill="none" stroke="#fff" stroke-width="1.6" stroke-linecap="round" stroke-linejoin="round" stroke-miterlimit="10"/><path d="M44,122.083v7.084c0,2.5-1.25,4.166-4.1667,4.166h-6.6666C30.25,133.333,29,131.667,29,129.167v-7.084c0-2.5,1.25-4.166,4.1667-4.166h6.6666c2.9167,0,4.1667,1.666,4.1667,4.166Z" fill="none" stroke="#fff" stroke-width="1.6" stroke-linecap="round" stroke-linejoin="round" stroke-miterlimit="10"/><path d="M39.5788,126.417h.0075" fill="none" stroke="#fff" stroke-width="1.6" stroke-linecap="round" stroke-linejoin="round"/><path d="M39.5788,128.917h.0075" fill="none" stroke="#fff" stroke-width="1.6" stroke-linecap="round" stroke-linejoin="round"/><path d="M36.4963,126.417h.0075" fill="none" stroke="#fff" stroke-width="1.6" stroke-linecap="round" stroke-linejoin="round"/><path d="M36.4963,128.917h.0075" fill="none" stroke="#fff" stroke-width="1.6" stroke-linecap="round" stroke-linejoin="round"/><path d="M33.4118,126.417h.0075" fill="none" stroke="#fff" stroke-width="1.6" stroke-linecap="round" stroke-linejoin="round"/><path d="M33.4118,128.917h.0075" fill="none" stroke="#fff" stroke-width="1.6" stroke-linecap="round" stroke-linejoin="round"/><text dx="0" dy="0" font-family="&quot;eoNJ39y0CfF1:::Open Sans&quot;" font-size="10" font-weight="400" letter-spacing="0.025" transform="translate(15 139)" fill="#fff"><tspan x="0" y="10.8794" font-family="&quot;eoNJ39y0CfF1:::Open Sans&quot;" font-size="10" font-weight="400" font-style="normal" letter-spacing="0.025" fill="#fff"><![CDATA[
Schedule
]]></tspan></text></g><g style="mix-blend-mode:hard-light" transform="translate(-1.22043 0.773683)" opacity="0.58"><path d="M37.2418,167.9h-6.4834c-1.425,0-2.5917,1.167-2.5917,2.592v9.466c0,1.209.8667,1.725,1.925,1.134l3.275-1.825c.35-.192.9167-.192,1.2584,0l3.275,1.825c1.0583.591,1.925.075,1.925-1.134v-9.466c.0083-1.425-1.1583-2.592-2.5833-2.592Z" fill="none" stroke="#fff" stroke-width="1.6" stroke-linecap="round" stroke-linejoin="round"/><path d="M39.8334,170.492v9.466c0,1.209-.8667,1.717-1.925,1.134l-3.275-1.825c-.35-.192-.9167-.192-1.2667,0l-3.275,1.825c-1.0583.583-1.925.075-1.925-1.134v-9.466c0-1.425,1.1667-2.592,2.5917-2.592h6.4834c1.425,0,2.5916,1.167,2.5916,2.592Z" fill="none" stroke="#fff" stroke-width="1.6" stroke-linecap="round" stroke-linejoin="round"/><path d="M44.8334,167.258v9.467c0,1.208-.8666,1.716-1.925,1.133l-3.075-1.717v-5.65c0-1.425-1.1666-2.591-2.5916-2.591h-4.0751v-.642c0-1.425,1.1667-2.591,2.5917-2.591h6.4834c1.425,0,2.5916,1.166,2.5916,2.591Z" fill="none" stroke="#fff" stroke-width="1.6" stroke-linecap="round" stroke-linejoin="round"/><text dx="0" dy="0" font-family="&quot;eoNJ39y0CfF1:::Open Sans&quot;" font-size="10" font-weight="400" letter-spacing="0.025" transform="translate(23.5 187)" fill="#fff"><tspan x="0" y="10.8794" font-family="&quot;eoNJ39y0CfF1:::Open Sans&quot;" font-size="10" font-weight="400" font-style="normal" letter-spacing="0.025" fill="#fff"><![CDATA[
Tasks
]]></tspan></text></g><g><path d="M34.1334,224.058c-.0834-.008-.1834-.008-.275,0-1.9834-.066-3.5584-1.691-3.5584-3.691c0-2.042,1.65-3.7,3.7-3.7c2.0417,0,3.7,1.658,3.7,3.7-.0083,2-1.5833,3.625-3.5666,3.691Z" fill="#fff" stroke="#fff" stroke-width="1.6" stroke-linecap="round" stroke-linejoin="round"/><path d="M40.175,218.333c1.6166,0,2.9167,1.309,2.9167,2.917c0,1.575-1.25,2.858-2.8084,2.917-.0666-.009-.1416-.009-.2166,0" fill="#fff"/><path d="M40.175,218.333c1.6166,0,2.9167,1.309,2.9167,2.917c0,1.575-1.25,2.858-2.8084,2.917-.0666-.009-.1416-.009-.2166,0" fill="none" stroke="#fff" stroke-width="1.6" stroke-linecap="round" stroke-linejoin="round"/><path d="M29.9666,227.133c-2.0167,1.35-2.0167,3.55,0,4.892c2.2917,1.533,6.05,1.533,8.3417,0c2.0166-1.35,2.0166-3.55,0-4.892-2.2834-1.525-6.0417-1.525-8.3417,0Z" fill="#fff" stroke="#fff" stroke-width="1.6" stroke-linecap="round" stroke-linejoin="round"/><path d="M41.7834,231.667c.6-.125,1.1667-.367,1.6334-.725c1.3-.975,1.3-2.584,0-3.559-.4584-.35-1.0167-.583-1.6084-.716" fill="#fff"/><path d="M41.7834,231.667c.6-.125,1.1667-.367,1.6334-.725c1.3-.975,1.3-2.584,0-3.559-.4584-.35-1.0167-.583-1.6084-.716" fill="none" stroke="#fff" stroke-width="1.6" stroke-linecap="round" stroke-linejoin="round"/><text dx="0" dy="0" font-family="&quot;eoNJ39y0CfF1:::Open Sans&quot;" font-size="10" font-weight="400" transform="translate(15.586236 252.148581)" fill="#fff"><tspan y="10.8794" font-weight="400"><![CDATA[
Records
]]></tspan><tspan x="0" y="20.8794" font-weight="400"><![CDATA[
 
]]></tspan></text><text dx="0" dy="0" font-family="&quot;eoNJ39y0CfF1:::Open Sans&quot;" font-size="10" font-weight="400" transform="translate(17.586236 240.673422)" fill="#fff"><tspan y="10.8794" font-weight="400"><![CDATA[
 Patient 
]]></tspan><tspan x="0" y="30.8794" font-weight="400"><![CDATA[
 
]]></tspan></text></g><g style="mix-blend-mode:hard-light" transform="translate(-.897849-.199753)" opacity="0.58"><path d="M40.6648,298.087h-8.3333c-2.5,0-4.1667-1.25-4.1667-4.167v-5.833c0-2.917,1.6667-4.167,4.1667-4.167h8.3333c2.5,0,4.1667,1.25,4.1667,4.167v5.833c0,2.917-1.6667,4.167-4.1667,4.167Z" fill="none" stroke="#fff" stroke-width="1.6" stroke-linecap="round" stroke-linejoin="round" stroke-miterlimit="10"/><path d="M40.6685,288.5l-2.6083,2.083c-.8583.684-2.2667.684-3.125,0l-2.6-2.083" fill="none" stroke="#fff" stroke-width="1.6" stroke-linecap="round" stroke-linejoin="round" stroke-miterlimit="10"/><text dx="0" dy="0" font-family="&quot;eoNJ39y0CfF1:::Open Sans&quot;" font-size="10" font-weight="400" letter-spacing="0.025" transform="translate(13.5 305)" fill="#fff"><tspan x="0" y="10.8794" font-family="&quot;eoNJ39y0CfF1:::Open Sans&quot;" font-size="10" font-weight="400" font-style="normal" letter-spacing="0.025" fill="#fff"><![CDATA[
Messages
]]></tspan></text></g><g style="mix-blend-mode:hard-light" transform="translate(-.352377 0.362075)" opacity="0.58"><path d="M28.1648,347.33h16.6667" fill="none" stroke="#fff" stroke-width="1.6" stroke-linecap="round" stroke-linejoin="round" stroke-miterlimit="10"/><path d="M34.625,332.337v15h3.75v-15c0-.917-.375-1.667-1.5-1.667h-.75c-1.125,0-1.5.75-1.5,1.667Z" fill="none" stroke="#fff" stroke-width="1.6" stroke-linecap="round" stroke-linejoin="round"/><path d="M29,337.337v10h3.3333v-10c0-.917-.3333-1.667-1.3333-1.667h-.6667c-1,0-1.3333.75-1.3333,1.667Z" fill="none" stroke="#fff" stroke-width="1.6" stroke-linecap="round" stroke-linejoin="round"/><path d="M40.6648,341.496v5.834h3.3333v-5.834c0-.916-.3333-1.666-1.3333-1.666h-.6667c-1,0-1.3333.75-1.3333,1.666Z" fill="none" stroke="#fff" stroke-width="1.6" stroke-linecap="round" stroke-linejoin="round"/><text dx="0" dy="0" font-family="&quot;eoNJ39y0CfF1:::Open Sans&quot;" font-size="10" font-weight="400" letter-spacing="0.025" transform="translate(15.5 353)" fill="#fff"><tspan x="0" y="10.8794" font-family="&quot;eoNJ39y0CfF1:::Open Sans&quot;" font-size="10" font-weight="400" font-style="normal" letter-spacing="0.025" fill="#fff"><![CDATA[
Analytics
]]></tspan></text></g></g></g><g transform="translate(5.523002 205.120305)"><rect width="542" height="99" rx="12" ry="12" transform="translate(238.055176 139.572744)" fill="#fff"/><g transform="translate(-4.584671 1.039723)"><text dx="0" dy="0" font-family="&quot;eoNJ39y0CfF1:::Open Sans&quot;" font-size="10" font-weight="400" transform="translate(256.439194-16.998121)" fill="#4d555e"><tspan y="199.879" font-weight="400"><![CDATA[
Date rec.: 05/20/2025 
]]></tspan></text><text dx="0" dy="0" font-family="&quot;eoNJ39y0CfF1:::Open Sans&quot;" font-size="16" font-weight="600" transform="translate(256.674857 0)" fill="#0c0f17"><tspan y="167.707" font-weight="600"><![CDATA[
Vitals
]]></tspan></text></g><g transform="translate(-3.288925 14.190111)"><g><rect width="124" height="28" rx="4" ry="4" transform="translate(255 182)" fill="#f9fbff"/><text dx="0" dy="0" font-family="&quot;eoNJ39y0CfF1:::Open Sans&quot;" font-size="12" font-weight="400" transform="translate(-10 0)" fill="#65707b"><tspan x="279.436" y="200.655" font-family="&quot;eoNJ39y0CfF1:::Open Sans&quot;" font-size="12" font-weight="400" font-style="normal" fill="#65707b"><![CDATA[
BP:
]]></tspan></text><text dx="0" dy="0" font-family="&quot;eoNJ39y0CfF1:::Open Sans&quot;" font-size="12" font-weight="600" transform="translate(291 0)" fill="#1f2d3b"><tspan y="200.655" font-weight="600"><![CDATA[
146/92
]]></tspan></text></g><text dx="0" dy="0" font-family="&quot;eoNJ39y0CfF1:::Open Sans&quot;" font-size="10" font-weight="400" transform="translate(335.66612-.364893)" fill="#4d555e"><tspan y="199.879" font-weight="400"><![CDATA[
mmHg 
]]></tspan></text><g transform="translate(0-.378716)"><rect width="132" height="28" rx="4" ry="4" transform="translate(387 182)" fill="#f9fbff"/><text dx="0" dy="0" font-family="&quot;eoNJ39y0CfF1:::Open Sans&quot;" font-size="12" font-weight="400" transform="translate(-9 0)" fill="#65707b"><tspan x="411.1" y="200.655" font-family="&quot;eoNJ39y0CfF1:::Open Sans&quot;" font-size="12" font-weight="400" font-style="normal" fill="#65707b"><![CDATA[
Heart Rate:
]]></tspan></text><text dx="0" dy="0" font-family="&quot;eoNJ39y0CfF1:::Open Sans&quot;" font-size="12" font-weight="600" transform="translate(467 0)" fill="#1f2d3b"><tspan y="200.655" font-weight="600"><![CDATA[
78
]]></tspan></text><text dx="0" dy="0" font-family="&quot;eoNJ39y0CfF1:::Open Sans&quot;" font-size="10" font-weight="400" transform="translate(-9 0)" fill="#4d555e"><tspan x="493" y="199.879" font-family="&quot;eoNJ39y0CfF1:::Open Sans&quot;" font-size="10" font-weight="400" font-style="normal" fill="#4d555e"><![CDATA[
bpm
]]></tspan></text></g><g><rect width="110" height="28" rx="4" ry="4" transform="translate(527 182)" fill="#f9fbff"/><text dx="0" dy="0" font-family="&quot;eoNJ39y0CfF1:::Open Sans&quot;" font-size="12" font-weight="400" transform="translate(-8 0)" fill="#65707b"><tspan x="550.418" y="200.655" font-family="&quot;eoNJ39y0CfF1:::Open Sans&quot;" font-size="12" font-weight="400" font-style="normal" fill="#65707b"><![CDATA[
Weight:
]]></tspan></text><text dx="0" dy="0" font-family="&quot;eoNJ39y0CfF1:::Open Sans&quot;" font-size="12" font-weight="600" transform="translate(587 0.000002)" fill="#1f2d3b"><tspan y="200.655" font-weight="600"><![CDATA[
182
]]></tspan></text><text dx="0" dy="0" font-family="&quot;eoNJ39y0CfF1:::Open Sans&quot;" font-size="10" font-weight="400" transform="translate(-8 0)" fill="#4d555e"><tspan x="619" y="199.879" font-family="&quot;eoNJ39y0CfF1:::Open Sans&quot;" font-size="10" font-weight="400" font-style="normal" fill="#4d555e"><![CDATA[
lbs
]]></tspan></text></g><g><rect width="101" height="28" rx="4" ry="4" transform="translate(645 182)" fill="#f9fbff"/><text dx="0" dy="0" font-family="&quot;eoNJ39y0CfF1:::Open Sans&quot;" font-size="12" font-weight="400" transform="translate(-8 0)" fill="#65707b"><tspan x="668.037" y="200.655" font-family="&quot;eoNJ39y0CfF1:::Open Sans&quot;" font-size="12" font-weight="400" font-style="normal" fill="#65707b"><![CDATA[
Height:
]]></tspan></text><text dx="0" dy="0" font-family="&quot;eoNJ39y0CfF1:::Open Sans&quot;" font-size="12" font-weight="600" transform="translate(703 0)" fill="#1f2d3b"><tspan y="200.655" font-weight="600"><![CDATA[
5'11
]]></tspan></text><text dx="0" dy="0" font-family="&quot;eoNJ39y0CfF1:::Open Sans&quot;" font-size="10" font-weight="400" transform="translate(-8 0)" fill="#4d555e"><tspan x="737" y="199.879" font-family="&quot;eoNJ39y0CfF1:::Open Sans&quot;" font-size="10" font-weight="400" font-style="normal" fill="#4d555e"><![CDATA[
''
]]></tspan></text></g></g></g><g id="eoNJ39y0CfF165" transform="translate(1.190116-82.929474)"><rect width="542" height="212" rx="4" ry="4" transform="translate(242.388064 211.205142)" fill="#fff"/><g id="eoNJ39y0CfF167" transform="translate(.062967-15.794859)"><g><rect width="164" height="158" rx="8" ry="8" transform="translate(428.667 269)" fill="#f9fbff"/><g transform="translate(.800371-1.424627)"><g transform="translate(-1.530015 0.000001)"><circle r="9.86034" transform="translate(446.527 289)" fill="#47a3ff"/><g><path d="M449.217,284.16h-5.02c-.285,0-.559.113-.761.315-.201.202-.315.476-.315.761v7.888c0,.285.114.559.315.761.202.201.476.315.761.315h5.02c.285,0,.559-.114.76-.315.202-.202.315-.476.315-.761v-7.888c0-.285-.113-.559-.315-.761-.201-.202-.475-.315-.76-.315Zm-4.303,2.152h.359v-.359c0-.095.037-.186.105-.254.067-.067.158-.105.253-.105s.187.038.254.105c.067.068.105.159.105.254v.359h.358c.095,0,.187.037.254.105.067.067.105.158.105.253s-.038.186-.105.254c-.067.067-.159.105-.254.105h-.358v.358c0,.095-.038.186-.105.254-.067.067-.159.105-.254.105s-.186-.038-.253-.105c-.068-.068-.105-.159-.105-.254v-.358h-.359c-.095,0-.186-.038-.253-.105-.068-.068-.105-.159-.105-.254s.037-.186.105-.253c.067-.068.158-.105.253-.105Zm2.51,6.095h-2.51c-.095,0-.186-.038-.253-.105-.068-.067-.105-.158-.105-.254c0-.095.037-.186.105-.253.067-.067.158-.105.253-.105h2.51c.095,0,.186.038.254.105.067.067.105.158.105.253c0,.096-.038.187-.105.254-.068.067-.159.105-.254.105Zm1.076-1.434h-3.586c-.095,0-.186-.038-.253-.105-.068-.068-.105-.159-.105-.254s.037-.186.105-.253c.067-.068.158-.105.253-.105h3.586c.095,0,.186.037.253.105.067.067.105.158.105.253s-.038.186-.105.254c-.067.067-.158.105-.253.105Zm0-1.434h-3.586c-.095,0-.186-.038-.253-.105-.068-.068-.105-.159-.105-.254s.037-.186.105-.254c.067-.067.158-.105.253-.105h3.586c.095,0,.186.038.253.105.067.068.105.159.105.254s-.038.186-.105.254c-.067.067-.158.105-.253.105Z" fill="#fff"/></g></g><text dx="0" dy="0" font-family="&quot;eoNJ39y0CfF1:::Open Sans&quot;" font-size="14" font-weight="600" transform="translate(460 0)" fill="#1f2d3b"><tspan y="294.431" font-weight="600"><![CDATA[
Medication List 
]]></tspan></text></g><g transform="translate(0 3.809484)"><text dx="0" dy="0" font-family="&quot;eoNJ39y0CfF1:::Open Sans&quot;" font-size="12" font-weight="600" transform="translate(439.19641 0)" fill="#3b3c3d"><tspan y="397.655" font-weight="600"><![CDATA[
Dr. Courtney Henry
]]></tspan></text><text dx="0" dy="0" font-family="&quot;eoNJ39y0CfF1:::Open Sans&quot;" font-size="10" font-weight="400" transform="translate(439.19641 0.000001)" fill="#788a9e"><tspan y="412.379" font-weight="400"><![CDATA[
Internal Medicine
]]></tspan></text></g></g><g transform="matrix(.6 0 0 0.6 73.750852 333.483703)"><g transform="translate(167.821756-70.383727)"><text dx="0" dy="0" font-family="&quot;eoNJ39y0CfF1:::Open Sans&quot;" font-size="10" font-weight="400" transform="translate(616.30631-.093982)" fill="#65707b"><tspan y="93.8794" font-weight="400"><![CDATA[
Started:
]]></tspan></text><text dx="0" dy="0" font-family="&quot;eoNJ39y0CfF1:::Open Sans&quot;" font-size="12" font-weight="600" transform="translate(615.403979 0.413636)" fill="#333"><tspan y="110.655" font-weight="600"><![CDATA[
02/15/2025
]]></tspan></text></g><g transform="translate(76.310267-34.715298)"><text dx="0" dy="0" font-family="&quot;eoNJ39y0CfF1:::Open Sans&quot;" font-size="10" font-weight="400" transform="translate(617.333335 0.475769)" fill="#65707b"><tspan y="57.8794" font-weight="400"><![CDATA[
Dose:
]]></tspan></text><text dx="0" dy="0" font-family="&quot;eoNJ39y0CfF1:::Open Sans&quot;" font-size="12" font-weight="600" transform="translate(615.329831 0.329898)" fill="#333"><tspan y="74.6553" font-weight="600"><![CDATA[
10mg daily 
]]></tspan></text></g><g transform="translate(-36.933484-.025205)"><text dx="0" dy="0" font-family="&quot;eoNJ39y0CfF1:::Open Sans&quot;" font-size="10" font-weight="400" transform="translate(651.844023 1.586399)" fill="#65707b"><tspan y="21.8794" font-weight="400"><![CDATA[
Medication
]]></tspan></text><text dx="0" dy="0" font-family="&quot;eoNJ39y0CfF1:::Open Sans&quot;" font-size="12" font-weight="600" transform="translate(650.88785-40.673447)" fill="#333"><tspan y="38.6553" font-weight="600"><![CDATA[
Current Medications 
]]></tspan></text><text dx="0" dy="0" font-family="&quot;eoNJ39y0CfF1:::Open Sans&quot;" font-size="12" font-weight="600" transform="translate(652.554517 0.346745)" fill="#333"><tspan y="38.6553" font-weight="600"><![CDATA[
Lisinopril
]]></tspan></text></g><rect width="90" height="45" rx="0" ry="0" transform="translate(680.310267 5.385089)" fill="none" stroke="#d0d9ef" stroke-width="0.3"/><rect width="73.333333" height="45" rx="0" ry="0" transform="translate(606.976934 5.385089)" fill="none" stroke="#d0d9ef" stroke-width="0.3"/><rect width="83.333333" height="45" rx="0" ry="0" transform="translate(770.310268 5.385089)" fill="none" stroke="#d0d9ef" stroke-width="0.3"/><rect width="246.666667" height="23.333333" rx="0" ry="0" transform="translate(606.976934-17.948244)" fill="none" stroke="#d0d9ef" stroke-width="0.3"/></g></g><g id="eoNJ39y0CfF204" transform="translate(5.968399-6.978087)"><g transform="translate(.30461 0.013822)"><rect width="164" height="158" rx="8" ry="8" transform="translate(249.770937 260.169363)" fill="#f9fbff"/><g transform="translate(-2.476009-8.217597)"><g transform="translate(-3.601193 0.000001)"><circle r="9.86034" transform="translate(272.86 289)" fill="#47a3ff"/><g><path d="M275.55,284.16h-5.02c-.285,0-.559.113-.76.315-.202.202-.315.476-.315.761v7.888c0,.285.113.559.315.761.201.201.475.315.76.315h5.02c.285,0,.559-.114.761-.315.201-.202.315-.476.315-.761v-7.888c0-.285-.114-.559-.315-.761-.202-.202-.476-.315-.761-.315Zm-4.303,2.152h.359v-.359c0-.095.038-.186.105-.254.067-.067.158-.105.253-.105.096,0,.187.038.254.105.067.068.105.159.105.254v.359h.359c.095,0,.186.037.253.105.067.067.105.158.105.253s-.038.186-.105.254c-.067.067-.158.105-.253.105h-.359v.358c0,.095-.038.186-.105.254-.067.067-.158.105-.254.105-.095,0-.186-.038-.253-.105-.067-.068-.105-.159-.105-.254v-.358h-.359c-.095,0-.186-.038-.253-.105-.067-.068-.105-.159-.105-.254s.038-.186.105-.253c.067-.068.158-.105.253-.105Zm2.51,6.095h-2.51c-.095,0-.186-.038-.253-.105s-.105-.158-.105-.254c0-.095.038-.186.105-.253s.158-.105.253-.105h2.51c.095,0,.187.038.254.105s.105.158.105.253c0,.096-.038.187-.105.254s-.159.105-.254.105Zm1.076-1.434h-3.586c-.095,0-.186-.038-.253-.105-.067-.068-.105-.159-.105-.254s.038-.186.105-.253c.067-.068.158-.105.253-.105h3.586c.095,0,.186.037.253.105.068.067.106.158.106.253s-.038.186-.106.254c-.067.067-.158.105-.253.105Zm0-1.434h-3.586c-.095,0-.186-.038-.253-.105-.067-.068-.105-.159-.105-.254s.038-.186.105-.254c.067-.067.158-.105.253-.105h3.586c.095,0,.186.038.253.105.068.068.106.159.106.254s-.038.186-.106.254c-.067.067-.158.105-.253.105Z" fill="#fff"/></g></g><text dx="0" dy="0" font-family="&quot;eoNJ39y0CfF1:::Open Sans&quot;" font-size="14" font-weight="600" transform="translate(283.398441-.000001)" fill="#1f2d3b"><tspan y="294.431" font-weight="600"><![CDATA[
Electrocardiogram
]]></tspan></text></g><g transform="translate(-5.903363-5.02111)"><text dx="0" dy="0" font-family="&quot;eoNJ39y0CfF1:::Open Sans&quot;" font-size="12" font-weight="600" transform="translate(.825795 0)" fill="#374048"><tspan x="266" y="397.655" font-family="&quot;eoNJ39y0CfF1:::Open Sans&quot;" font-size="12" font-weight="600" font-style="normal" fill="#3b3c3d"><![CDATA[
Dr. Emily Chen
]]></tspan></text><text dx="0" dy="0" font-family="&quot;eoNJ39y0CfF1:::Open Sans&quot;" font-size="10" font-weight="400" transform="translate(266.825795 0.000001)" fill="#788a9e"><tspan y="412.379" font-weight="400"><![CDATA[
Cardiology
]]></tspan></text></g></g><g transform="matrix(.4 0 0 0.4 260.401247 298.892862)"><line x1="0" y1="98.5039" x2="366" y2="98.5039" fill="none" stroke="#143da7" stroke-opacity="0.18"/><line x1="0" y1="78.707" x2="366" y2="78.707" fill="none" stroke="#143da7" stroke-opacity="0.18"/><line x1="0" y1="177.711" x2="366" y2="177.711" fill="none" stroke="#143da7" stroke-opacity="0.18"/><line x1="0" y1="58.9023" x2="366" y2="58.9023" fill="none" stroke="#143da7" stroke-opacity="0.18"/><line x1="0" y1="157.91" x2="366" y2="157.91" fill="none" stroke="#143da7" stroke-opacity="0.18"/><line x1="0" y1="39.1016" x2="366" y2="39.1016" fill="none" stroke="#143da7" stroke-opacity="0.18"/><line x1="0" y1="138.105" x2="366" y2="138.105" fill="none" stroke="#143da7" stroke-opacity="0.18"/><line x1="0" y1="19.3008" x2="366" y2="19.3008" fill="none" stroke="#143da7" stroke-opacity="0.18"/><line x1="0" y1="118.305" x2="366" y2="118.305" fill="none" stroke="#143da7" stroke-opacity="0.18"/><line x1="183.414" y1="175" x2="183.414" y2="0" transform="translate(0 10.012808)" fill="none" stroke="#143da7" stroke-opacity="0.18"/><line x1="146.996" y1="175" x2="146.996" y2="0" transform="translate(0 10.012808)" fill="none" stroke="#143da7" stroke-opacity="0.18"/><line x1="329.086" y1="175" x2="329.086" y2="0" transform="translate(0 10.012808)" fill="none" stroke="#143da7" stroke-opacity="0.18"/><line x1="110.578" y1="175" x2="110.578" y2="0" transform="translate(0 10.012808)" fill="none" stroke="#143da7" stroke-opacity="0.18"/><line x1="292.668" y1="175" x2="292.668" y2="0" transform="translate(0 10.012808)" fill="none" stroke="#143da7" stroke-opacity="0.18"/><line x1="74.1562" y1="175" x2="74.1562" y2="0" transform="translate(0 10.012808)" fill="none" stroke="#143da7" stroke-opacity="0.18"/><line x1="256.246" y1="175" x2="256.246" y2="0" transform="translate(0 10.012808)" fill="none" stroke="#143da7" stroke-opacity="0.18"/><line x1="37.7422" y1="175" x2="37.7422" y2="0" transform="translate(0 10.012808)" fill="none" stroke="#143da7" stroke-opacity="0.18"/><line x1="219.832" y1="175" x2="219.832" y2="0" transform="translate(0 10.012808)" fill="none" stroke="#143da7" stroke-opacity="0.18"/><path d="M145.342,55.7791l.642,3.5426l13.499,74.4763l6.032-34.4704.145-.8276h.84h14v2h-13.16l-6.855,39.172-1.969.006-13.858-76.4571-15.223,40.1341-.549,1.446-1.093-1.094-2.726-2.726-4.299,5.159-1.083,1.3-.616-1.576-3.835-9.7986-2.925,4.0226-.3.412h-.509-18.256L81.4578,139.787l-1.9501-.163-9.4659-75.7276L56.4454,103.326l-.5689,1.65-1.1358-1.325-2.1409-2.498-3.2677,4.902-1.1731,1.759-.6157-2.023-2.9549-9.7088-3.3144,4.0508-.3001.367h-.4739-20v-2h19.5261l4.1999-5.1332l1.1856-1.449.5451,1.791l2.8843,9.4772l2.8269-4.2407.7323-1.0983.8591,1.0022l1.8642,2.1748l14.4311-41.85l1.9377.202l9.412,75.296L91.5422,99.2127L91.756,98.5h.744h18.491l3.7-5.0882l1.075-1.4772.665,1.701l3.884,9.9244l3.917-4.7002.701-.8412.774.7743l2.407,2.4061l15.951-42.0537l1.277-3.3662Z" clip-rule="evenodd" fill="#ff2424" fill-rule="evenodd"/><path d="M293.484,59.3217l-.642-3.5426-1.277,3.3662-15.951,42.0537-2.407-2.4061-.774-.7743-.701.8412-3.917,4.7002-3.884-9.9244-.665-1.701-1.075,1.4772-3.7,5.0882h-18.491-.744l-.214.7127-10.638,35.4593-9.412-75.296-1.937-.202-14.431,41.85-1.865-2.1748-.859-1.0022-.732,1.0983-2.827,4.2407-2.884-9.4772-.545-1.791-1.186,1.449-4.2,5.1332h-19.526v2h20h.474l.3-.367l3.314-4.0508l2.955,9.7088.616,2.023l1.173-1.759l3.268-4.902l2.141,2.498l1.135,1.325.569-1.65l13.597-39.4296l9.466,75.7276l1.95.163L240.744,100.5h18.256.509l.3-.412l2.925-4.0226l3.835,9.7986.616,1.576l1.083-1.3l4.299-5.159l2.726,2.726l1.093,1.094.549-1.446l15.223-40.1341l13.858,76.4571l1.969-.006L314.84,100.5h10.061c.519.897,1.489,1.5,2.599,1.5c1.657,0,3-1.343,3-3c0-1.6569-1.343-3-3-3-1.486,0-2.72,1.0811-2.959,2.5h-10.541-.84l-.145.8276-6.032,34.4704-13.499-74.4763Z" clip-rule="evenodd" fill="#ff2424" fill-rule="evenodd"/></g></g><g id="eoNJ39y0CfF240" transform="matrix(.73 0 0 0.73 93.989005 78.264688)" opacity="0"><g><rect id="eoNJ39y0CfF242" width="164" height="156" rx="8" ry="8" transform="translate(255 268.663)" fill="#e7eeff"/><g transform="translate(0 0.000001)"><g transform="translate(-1.999634 0.000001)"><circle r="9.86034" transform="translate(272.86 289)" fill="#47a3ff"/><g transform="translate(-.441153 0)"><path d="M275.55,284.16h-5.02c-.285,0-.559.113-.76.315-.202.202-.315.476-.315.761v7.888c0,.285.113.559.315.761.201.201.475.315.76.315h5.02c.285,0,.559-.114.761-.315.201-.202.315-.476.315-.761v-7.888c0-.285-.114-.559-.315-.761-.202-.202-.476-.315-.761-.315Zm-4.303,2.152h.359v-.359c0-.095.038-.186.105-.254.067-.067.158-.105.253-.105.096,0,.187.038.254.105.067.068.105.159.105.254v.359h.359c.095,0,.186.037.253.105.067.067.105.158.105.253s-.038.186-.105.254c-.067.067-.158.105-.253.105h-.359v.358c0,.095-.038.186-.105.254-.067.067-.158.105-.254.105-.095,0-.186-.038-.253-.105-.067-.068-.105-.159-.105-.254v-.358h-.359c-.095,0-.186-.038-.253-.105-.067-.068-.105-.159-.105-.254s.038-.186.105-.253c.067-.068.158-.105.253-.105Zm2.51,6.095h-2.51c-.095,0-.186-.038-.253-.105s-.105-.158-.105-.254c0-.095.038-.186.105-.253s.158-.105.253-.105h2.51c.095,0,.187.038.254.105s.105.158.105.253c0,.096-.038.187-.105.254s-.159.105-.254.105Zm1.076-1.434h-3.586c-.095,0-.186-.038-.253-.105-.067-.068-.105-.159-.105-.254s.038-.186.105-.253c.067-.068.158-.105.253-.105h3.586c.095,0,.186.037.253.105.068.067.106.158.106.253s-.038.186-.106.254c-.067.067-.158.105-.253.105Zm0-1.434h-3.586c-.095,0-.186-.038-.253-.105-.067-.068-.105-.159-.105-.254s.038-.186.105-.254c.067-.067.158-.105.253-.105h3.586c.095,0,.186.038.253.105.068.068.106.159.106.254s-.038.186-.106.254c-.067.067-.158.105-.253.105Z" fill="#fff"/></g></g><text dx="0" dy="0" font-family="&quot;eoNJ39y0CfF1:::Open Sans&quot;" font-size="14" font-weight="600" transform="translate(285 0)" fill="#1f2d3b"><tspan y="294.431" font-weight="600"><![CDATA[
Lab Results
]]></tspan></text></g><g transform="translate(-4 1.73242)"><text dx="0" dy="0" font-family="&quot;eoNJ39y0CfF1:::Open Sans&quot;" font-size="12" font-weight="600" transform="translate(266.999999 0)" fill="#3b3c3d"><tspan y="397.655" font-weight="600"><![CDATA[
Dr. Courtney Henry
]]></tspan></text><text dx="0" dy="0" font-family="&quot;eoNJ39y0CfF1:::Open Sans&quot;" font-size="10" font-weight="400" transform="translate(267 0.000001)" fill="#788a9e"><tspan y="412.379" font-weight="400"><![CDATA[
Internal Medicine
]]></tspan></text></g><g transform="translate(264.973582 311.019653)"><rect width="147" height="7" rx="0" ry="0" transform="translate(1.058556 54.079384)" fill="none" stroke="#d0d9ef" stroke-width="0.3"/><rect width="147" height="9" rx="0" ry="0" transform="translate(1.058556 45.079384)" fill="none" stroke="#d0d9ef" stroke-width="0.3"/><rect width="147" height="6" rx="0" ry="0" transform="translate(1.058556 39.079384)" fill="none" stroke="#d0d9ef" stroke-width="0.3"/><rect width="147" height="7" rx="0" ry="0" transform="translate(1.058556 32.079384)" fill="none" stroke="#d0d9ef" stroke-width="0.3"/><rect width="147" height="7" rx="0" ry="0" transform="translate(1.058556 61.079384)" fill="none" stroke="#d0d9ef" stroke-width="0.3"/><rect width="147" height="6" rx="0" ry="0" transform="translate(1.058556 26.079384)" fill="none" stroke="#d0d9ef" stroke-width="0.3"/><rect width="147" height="6" rx="0" ry="0" transform="translate(1.058556 20.079384)" fill="none" stroke="#d0d9ef" stroke-width="0.3"/><rect width="147" height="7" rx="0" ry="0" transform="translate(1.058556 13.079384)" fill="none" stroke="#d0d9ef" stroke-width="0.3"/><rect width="147" height="12" rx="0" ry="0" transform="translate(1.058556 1.079384)" fill="none" stroke="#d0d9ef" stroke-width="0.3"/><g transform="translate(-20 46.325571)"><text dx="0" dy="0" font-family="&quot;eoNJ39y0CfF1:::Open Sans&quot;" font-size="3.65546" font-weight="600" transform="translate(132.460471-6)" fill="#333"><tspan y="19.4181" font-weight="600"><![CDATA[
Reference Range 
]]></tspan></text><text dx="0" dy="0" font-family="&quot;eoNJ39y0CfF1:::Open Sans&quot;" font-size="3.65546" font-weight="400" transform="translate(132.460471 0)" fill="#333"><tspan y="19.4181" font-weight="400"><![CDATA[
135–145 mmol/L 
]]></tspan></text></g><g transform="translate(0 47.325571)"><text dx="0" dy="0" font-family="&quot;eoNJ39y0CfF1:::Open Sans&quot;" font-size="3.65546" font-weight="600" transform="translate(6.460471-7)" fill="#333"><tspan y="19.4181" font-weight="600"><![CDATA[
Component
]]></tspan></text><text dx="0" dy="0" font-family="&quot;eoNJ39y0CfF1:::Open Sans&quot;" font-size="3.65546" font-weight="400" transform="translate(6.460471 0)" fill="#333"><tspan y="19.4181" font-weight="400"><![CDATA[
Sodium
]]></tspan></text></g><g transform="translate(0 5.520618)"><text dx="0" dy="0" font-family="&quot;eoNJ39y0CfF1:::Open Sans&quot;" font-size="3.65546" font-weight="600" transform="translate(6.460471-7)" fill="#333"><tspan y="19.4181" font-weight="600"><![CDATA[
Component
]]></tspan></text><text dx="0" dy="0" font-family="&quot;eoNJ39y0CfF1:::Open Sans&quot;" font-size="3.65546" font-weight="400" transform="translate(3.460471 0)" fill="#333"><tspan x="3" y="19.4181" font-family="&quot;eoNJ39y0CfF1:::Open Sans&quot;" font-size="3.65546" font-weight="400" font-style="normal" fill="#333"><![CDATA[
Hemoglobin
]]></tspan></text><text dx="0" dy="0" font-family="&quot;eoNJ39y0CfF1:::Open Sans&quot;" font-size="3.65546" font-weight="400" transform="translate(6.460471 0)" fill="#333"><tspan y="25.4181" font-weight="400"><![CDATA[
Hematocrit
]]></tspan></text><text dx="0" dy="0" font-family="&quot;eoNJ39y0CfF1:::Open Sans&quot;" font-size="3.65546" font-weight="400" transform="translate(6.460471 0)" fill="#333"><tspan y="38.4181" font-weight="400"><![CDATA[
Platelet Count 
]]></tspan></text><text dx="0" dy="0" font-family="&quot;eoNJ39y0CfF1:::Open Sans&quot;" font-size="3.65546" font-weight="400" transform="translate(6.460471 0)" fill="#333"><tspan y="31.4181" font-weight="400"><![CDATA[
WBC Count 
]]></tspan></text></g><g transform="translate(-12.000001 5.290165)"><text dx="0" dy="0" font-family="&quot;eoNJ39y0CfF1:::Open Sans&quot;" font-size="3.65546" font-weight="600" transform="translate(96.460471-18.769548)" fill="#333"><tspan y="31.4181" font-weight="600"><![CDATA[
Value
]]></tspan></text><text dx="0" dy="0" font-family="&quot;eoNJ39y0CfF1:::Open Sans&quot;" font-size="3.65546" font-weight="400" transform="translate(96.460471-12.769548)" fill="#333"><tspan y="31.4181" font-weight="400"><![CDATA[
14.8 g/dL 
]]></tspan></text><text dx="0" dy="0" font-family="&quot;eoNJ39y0CfF1:::Open Sans&quot;" font-size="3.65546" font-weight="400" transform="translate(96.460472 0)" fill="#333"><tspan y="25.4181" font-weight="400"><![CDATA[
44.2%
]]></tspan></text><text dx="0" dy="0" font-family="&quot;eoNJ39y0CfF1:::Open Sans&quot;" font-size="3.65546" font-weight="400" transform="translate(96.460472 0)" fill="#333"><tspan y="31.4181" font-weight="400"><![CDATA[
6.5 x10³/μL 
]]></tspan></text><text dx="0" dy="0" font-family="&quot;eoNJ39y0CfF1:::Open Sans&quot;" font-size="3.65546" font-weight="400" transform="translate(96.460472 0)" fill="#333"><tspan y="38.4181" font-weight="400"><![CDATA[
250 x10³/μL 
]]></tspan></text></g><g transform="translate(-12.000001 47.290165)"><text dx="0" dy="0" font-family="&quot;eoNJ39y0CfF1:::Open Sans&quot;" font-size="3.65546" font-weight="600" transform="translate(96.460471-18.769548)" fill="#333"><tspan y="31.4181" font-weight="600"><![CDATA[
Value
]]></tspan></text><text dx="0" dy="0" font-family="&quot;eoNJ39y0CfF1:::Open Sans&quot;" font-size="3.65546" font-weight="400" transform="translate(96.460471-12.769548)" fill="#333"><tspan y="31.4181" font-weight="400"><![CDATA[
138 mmol/L 
]]></tspan></text></g><g transform="translate(-20 4.520618)"><text dx="0" dy="0" font-family="&quot;eoNJ39y0CfF1:::Open Sans&quot;" font-size="3.65546" font-weight="600" transform="translate(132.460471-6)" fill="#333"><tspan y="19.4181" font-weight="600"><![CDATA[
Reference Range 
]]></tspan></text><text dx="0" dy="0" font-family="&quot;eoNJ39y0CfF1:::Open Sans&quot;" font-size="3.65546" font-weight="400" transform="translate(132.460471 0)" fill="#333"><tspan y="19.4181" font-weight="400"><![CDATA[
13.5–17.5 g/dL (M) 
]]></tspan></text><text dx="0" dy="0" font-family="&quot;eoNJ39y0CfF1:::Open Sans&quot;" font-size="3.65546" font-weight="400" transform="translate(132.460471 0)" fill="#333"><tspan y="25.4181" font-weight="400"><![CDATA[
41–53% (M) 
]]></tspan></text><text dx="0" dy="0" font-family="&quot;eoNJ39y0CfF1:::Open Sans&quot;" font-size="3.65546" font-weight="400" transform="translate(132.460471 0)" fill="#333"><tspan y="31.4181" font-weight="400"><![CDATA[
4.5–11.0 x10³/μL 
]]></tspan></text><text dx="0" dy="0" font-family="&quot;eoNJ39y0CfF1:::Open Sans&quot;" font-size="3.65546" font-weight="400" transform="translate(132.460471 0)" fill="#333"><tspan y="38.4181" font-weight="400"><![CDATA[
150–450 x10³/μL 
]]></tspan></text></g><text dx="0" dy="0" font-family="&quot;eoNJ39y0CfF1:::Open Sans&quot;" font-size="3.65546" font-weight="700" transform="translate(6.460471 44.479456)" fill="#333"><tspan y="7.4181" font-weight="700"><![CDATA[
COMPLETE BLOOD COUNT (CBC)  
]]></tspan></text><text dx="0" dy="0" font-family="&quot;eoNJ39y0CfF1:::Open Sans&quot;" font-size="3.65546" font-weight="700" transform="translate(6.460471 3)" fill="#333"><tspan y="7.4181" font-weight="700"><![CDATA[
COMPLETE BLOOD COUNT (CBC)  
]]></tspan></text></g></g></g><g transform="translate(426.199128-99.235188)"><text dx="0" dy="0" font-family="&quot;eoNJ39y0CfF1:::Open Sans&quot;" font-size="12" font-weight="400" transform="translate(262.136923 42.842768)" fill="#2291ff"><tspan y="294.431" font-weight="400"><![CDATA[
Add document
]]></tspan></text></g><g transform="translate(-1.057937-11.014203)"><text dx="0" dy="0" font-family="&quot;eoNJ39y0CfF1:::Open Sans&quot;" font-size="16" font-weight="600" transform="translate(257.101897-4.415134)" fill="#0c0f17"><tspan y="254.707" font-weight="600"><![CDATA[
Documents
]]></tspan></text></g></g><g transform="translate(11.578178-.255749)"><rect width="174" height="124.766712" rx="12" ry="12" transform="translate(600 0)" fill="#fff"/><g transform="translate(-36.933484 0.650152)"><text dx="0" dy="0" font-family="&quot;eoNJ39y0CfF1:::Open Sans&quot;" font-size="10" font-weight="400" transform="translate(4.274968 0)" fill="#65707b"><tspan x="649" y="21.8794" font-family="&quot;eoNJ39y0CfF1:::Open Sans&quot;" font-size="10" font-weight="400" font-style="normal" fill="#65707b"><![CDATA[
Primary Care Provider:
]]></tspan></text><text dx="0" dy="0" font-family="&quot;eoNJ39y0CfF1:::Open Sans&quot;" font-size="12" font-weight="600" transform="translate(653.274968-1.524902)" fill="#1f2d3b"><tspan y="38.6553" font-weight="600"><![CDATA[
Dr. Courtney Henry 
]]></tspan></text></g><g transform="translate(1.621034-1.349842)"><text dx="0" dy="0" font-family="&quot;eoNJ39y0CfF1:::Open Sans&quot;" font-size="10" font-weight="400" transform="translate(.72045 0)" fill="#65707b"><tspan x="614" y="57.8794" font-family="&quot;eoNJ39y0CfF1:::Open Sans&quot;" font-size="10" font-weight="400" font-style="normal" fill="#65707b"><![CDATA[
Specialty:
]]></tspan></text><text dx="0" dy="0" font-family="&quot;eoNJ39y0CfF1:::Open Sans&quot;" font-size="12" font-weight="600" transform="translate(614.720449-1.562756)" fill="#1f2d3b"><tspan y="74.6553" font-weight="600"><![CDATA[
Internal Medicine
]]></tspan></text></g><g transform="translate(.217054-3.423073)"><text dx="0" dy="0" font-family="&quot;eoNJ39y0CfF1:::Open Sans&quot;" font-size="10" font-weight="400" transform="translate(2.12443 0.073225)" fill="#65707b"><tspan x="614" y="93.8794" font-family="&quot;eoNJ39y0CfF1:::Open Sans&quot;" font-size="10" font-weight="400" font-style="normal" fill="#65707b"><![CDATA[
Department:
]]></tspan></text><text dx="0" dy="0" font-family="&quot;eoNJ39y0CfF1:::Open Sans&quot;" font-size="12" font-weight="600" transform="translate(616.12443-1.391535)" fill="#1f2d3b"><tspan y="110.655" font-weight="600"><![CDATA[
Internal Medicine 
]]></tspan></text></g></g><g transform="translate(3.578178-.361801)"><rect width="364" height="124.766712" rx="4" ry="4" transform="translate(240 0.106052)" fill="#fff"/><text dx="0" dy="0" font-family="&quot;eoNJ39y0CfF1:::Open Sans&quot;" font-size="16" font-weight="600" transform="translate(254.089952-3.311277)" fill="#0c0f17"><tspan y="32.207" font-weight="600"><![CDATA[
Personal Info
]]></tspan></text><g transform="translate(-.9198-2.158892)"><g transform="translate(1.009752-2.642702)"><text dx="0" dy="0" font-family="&quot;eoNJ39y0CfF1:::Open Sans&quot;" font-size="10" font-weight="400" transform="translate(0-.481457)" fill="#65707b"><tspan x="254" y="57.3794" font-family="&quot;eoNJ39y0CfF1:::Open Sans&quot;" font-size="10" font-weight="400" font-style="normal" fill="#65707b"><![CDATA[
First name:
]]></tspan></text><text dx="0" dy="0" font-family="&quot;eoNJ39y0CfF1:::Open Sans&quot;" font-size="12" font-weight="600" transform="translate(256.044406-1.630347)" fill="#1f2d3b"><tspan y="74.1553" font-weight="600"><![CDATA[
Albert
]]></tspan></text></g><g transform="translate(-1.093245-2.642702)"><text dx="0" dy="0" font-family="&quot;eoNJ39y0CfF1:::Open Sans&quot;" font-size="10" font-weight="400" transform="translate(0-.481457)" fill="#65707b"><tspan x="360.333" y="57.3794" font-family="&quot;eoNJ39y0CfF1:::Open Sans&quot;" font-size="10" font-weight="400" font-style="normal" fill="#65707b"><![CDATA[
Date of birth:
]]></tspan></text><text dx="0" dy="0" font-family="&quot;eoNJ39y0CfF1:::Open Sans&quot;" font-size="12" font-weight="600" transform="translate(360.102997-1.630347)" fill="#1f2d3b"><tspan y="74.1553" font-weight="600"><![CDATA[
10/01/68
]]></tspan></text></g><g transform="translate(-1.169905-2.642702)"><text dx="0" dy="0" font-family="&quot;eoNJ39y0CfF1:::Open Sans&quot;" font-size="10" font-weight="400" transform="translate(0-.481457)" fill="#65707b"><tspan x="466.667" y="57.3794" font-family="&quot;eoNJ39y0CfF1:::Open Sans&quot;" font-size="10" font-weight="400" font-style="normal" fill="#65707b"><![CDATA[
Relationship:
]]></tspan></text><text dx="0" dy="0" font-family="&quot;eoNJ39y0CfF1:::Open Sans&quot;" font-size="12" font-weight="600" transform="translate(466.179614-1.630347)" fill="#1f2d3b"><tspan y="74.1553" font-weight="600"><![CDATA[
Married
]]></tspan></text></g><g transform="translate(1.009737-1.782491)"><text dx="0" dy="0" font-family="&quot;eoNJ39y0CfF1:::Open Sans&quot;" font-size="10" font-weight="400" transform="translate(0-1.832214)" fill="#65707b"><tspan x="254" y="97.3794" font-family="&quot;eoNJ39y0CfF1:::Open Sans&quot;" font-size="10" font-weight="400" font-style="normal" fill="#65707b"><![CDATA[
Last name:
]]></tspan></text><text dx="0" dy="0" font-family="&quot;eoNJ39y0CfF1:::Open Sans&quot;" font-size="12" font-weight="600" transform="translate(255.106242-2.901355)" fill="#1f2d3b"><tspan y="114.155" font-weight="600"><![CDATA[
Flores
]]></tspan></text></g><g transform="translate(-1.093245 0.16921)"><text dx="0" dy="0" font-family="&quot;eoNJ39y0CfF1:::Open Sans&quot;" font-size="10" font-weight="400" transform="translate(0-1.832214)" fill="#65707b"><tspan x="360.333" y="97.3794" font-family="&quot;eoNJ39y0CfF1:::Open Sans&quot;" font-size="10" font-weight="400" font-style="normal" fill="#65707b"><![CDATA[
Gender:
]]></tspan></text><text dx="0" dy="0" font-family="&quot;eoNJ39y0CfF1:::Open Sans&quot;" font-size="12" font-weight="600" transform="translate(360.102997-3.025982)" fill="#1f2d3b"><tspan y="114.155" font-weight="600"><![CDATA[
Male
]]></tspan></text></g><g transform="translate(-.611098-1.782491)"><text dx="0" dy="0" font-family="&quot;eoNJ39y0CfF1:::Open Sans&quot;" font-size="10" font-weight="400" transform="translate(0-1.832214)" fill="#65707b"><tspan x="466.667" y="97.3794" font-family="&quot;eoNJ39y0CfF1:::Open Sans&quot;" font-size="10" font-weight="400" font-style="normal" fill="#65707b"><![CDATA[
Address
]]></tspan></text><text dx="0" dy="0" font-family="&quot;eoNJ39y0CfF1:::Open Sans&quot;" font-size="12" font-weight="600" transform="translate(465.620855-3.025982)" fill="#1f2d3b"><tspan y="114.155" font-weight="600"><![CDATA[
2316 Jefferson St…
]]></tspan></text></g></g></g><g transform="translate(-5.36126-47.794822)"><rect width="162" height="178" rx="4" ry="4" transform="translate(82.339285 312.839492)" fill="#fff"/><g transform="translate(-521.374602 353.188179)"><text dx="0" dy="0" font-family="&quot;eoNJ39y0CfF1:::Open Sans&quot;" font-size="10" font-weight="400" transform="translate(615.403992-.053456)" fill="#65707b"><tspan y="93.8794" font-weight="400"><![CDATA[
Date diagnosed: 
]]></tspan></text><text dx="0" dy="0" font-family="&quot;eoNJ39y0CfF1:::Open Sans&quot;" font-size="12" font-weight="600" transform="translate(615.403979-.979903)" fill="#243a50"><tspan y="110.655" font-weight="600"><![CDATA[
11/15/2024
]]></tspan></text></g><g transform="translate(-520.261687 339.934266)"><text dx="0" dy="0" font-family="&quot;eoNJ39y0CfF1:::Open Sans&quot;" font-size="10" font-weight="400" transform="translate(614.291091 0.321173)" fill="#65707b"><tspan y="57.8794" font-weight="400"><![CDATA[
ICD-10
]]></tspan></text><text dx="0" dy="0" font-family="&quot;eoNJ39y0CfF1:::Open Sans&quot;" font-size="12" font-weight="600" transform="translate(614.291092-.831441)" fill="#243a50"><tspan y="74.6553" font-weight="600"><![CDATA[
I10 - Essential (primary)
]]></tspan><tspan x="0" y="86.6553" font-weight="600"><![CDATA[
hypertension 
]]></tspan></text></g><g transform="translate(-2.076704 22.281792)"><text dx="0" dy="0" font-family="&quot;eoNJ39y0CfF1:::Open Sans&quot;" font-size="16" font-weight="600" transform="translate(96.106094-.398812)" fill="#0c0f17"><tspan y="318.431" font-weight="600"><![CDATA[
Diagnosis
]]></tspan></text><text dx="0" dy="0" font-family="&quot;eoNJ39y0CfF1:::Open Sans&quot;" font-size="12" font-weight="600" transform="translate(96.106094-.843646)" fill="#243a50"><tspan y="340.864" font-weight="600"><![CDATA[
Hypertension
]]></tspan><tspan x="0" y="352.864" font-weight="600"><![CDATA[
(Stage 1) 
]]></tspan></text></g></g><g transform="translate(-3.280068-10.230117)"><rect width="162" height="132.765347" rx="4" ry="4" transform="translate(80.258091 138.505768)" fill="#fff"/><g transform="translate(-6.027487 0.059586)"><text dx="0" dy="0" font-family="&quot;eoNJ39y0CfF1:::Open Sans&quot;" font-size="16" font-weight="600" transform="translate(97.975685-2.970095)" fill="#0c0f17"><tspan y="169.431" font-weight="600"><![CDATA[
Chief Complaint
]]></tspan></text><text dx="0" dy="0" font-family="&quot;eoNJ39y0CfF1:::Open Sans&quot;" font-size="12" font-weight="400" transform="translate(97.975685 9.265599)" fill="#7e8892" fill-rule="evenodd" stroke-linecap="round" stroke-linejoin="round"><tspan y="191.864" font-weight="400"><![CDATA[
hypertension
]]></tspan></text><text dx="0" dy="0" font-family="&quot;eoNJ39y0CfF1:::Open Sans&quot;" font-size="12" font-weight="400" transform="translate(97.975685 59.265599)" fill="#7e8892" fill-rule="evenodd" stroke-linecap="round" stroke-linejoin="round"><tspan y="191.864" font-weight="400"><![CDATA[
for ECG evaluation 
]]></tspan></text><text dx="0" dy="0" font-family="&quot;eoNJ39y0CfF1:::Open Sans&quot;" font-size="12" font-weight="400" transform="translate(97.975682 46.765599)" fill="#7e8892" fill-rule="evenodd" stroke-linecap="round" stroke-linejoin="round"><tspan y="191.864" font-weight="400"><![CDATA[
Referred to Cardiology
]]></tspan><tspan x="0" y="215.864" font-weight="400"><![CDATA[
 
]]></tspan></text><text dx="0" dy="0" font-family="&quot;eoNJ39y0CfF1:::Open Sans&quot;" font-size="12" font-weight="400" transform="translate(97.975682 34.265599)" fill="#7e8892" fill-rule="evenodd" stroke-linecap="round" stroke-linejoin="round"><tspan y="191.864" font-weight="400"><![CDATA[
medication adjustment.
]]></tspan><tspan x="0" y="215.864" font-weight="400"><![CDATA[
 
]]></tspan></text><text dx="0" dy="0" font-family="&quot;eoNJ39y0CfF1:::Open Sans&quot;" font-size="12" font-weight="400" transform="translate(97.975682 21.765599)" fill="#7e8892" fill-rule="evenodd" stroke-linecap="round" stroke-linejoin="round"><tspan y="191.864" font-weight="400"><![CDATA[
management and
]]></tspan><tspan x="0" y="215.864" font-weight="400"><![CDATA[
 
]]></tspan></text><text dx="0" dy="0" font-family="&quot;eoNJ39y0CfF1:::Open Sans&quot;" font-size="12" font-weight="400" transform="translate(97.975685-3.234401)" fill="#7e8892" fill-rule="evenodd" stroke-linecap="round" stroke-linejoin="round"><tspan y="191.864" font-weight="400"><![CDATA[
Follow-up for Stage 1
]]></tspan><tspan x="0" y="215.864" font-weight="400"><![CDATA[
 
]]></tspan></text></g></g><g transform="translate(-1.129525-.051415)" filter="url(#eoNJ39y0CfF415-filter)"><rect width="162" height="124.766712" rx="4" ry="4" transform="translate(78.107555-.204334)" fill="#fff"/><g transform="translate(0 1.039723)"><g><text dx="0" dy="0" font-family="&quot;eoNJ39y0CfF1:::Open Sans&quot;" font-size="12" font-weight="400" transform="translate(0-4.020508)" fill="#65707b"><tspan x="129.949" y="93.6553" font-family="&quot;eoNJ39y0CfF1:::Open Sans&quot;" font-size="12" font-weight="400" font-style="normal" fill="#65707b"><![CDATA[
Chart ID:
]]></tspan></text><text dx="0" dy="0" font-family="&quot;eoNJ39y0CfF1:::Open Sans&quot;" font-size="14" font-weight="600" transform="translate(110.727213-5.08006)" fill="#0c0f17"><tspan y="113.431" font-weight="600"><![CDATA[
AD810037394
]]></tspan></text></g><g transform="matrix(.7314 0 0 0.7314-261.988229-110.217795)"><ellipse rx="41.164242" ry="41.164242" transform="translate(568.917841 205.794656)" fill="#b6daff" stroke-width="0"/><g transform="matrix(2.758222 0 0 2.758222 518.492579 173.546945)"><path d="M5.556061,19.502701c0,0,4.372459-2.353401,6.801039-3.726801.104-.0594.2111-.1159.3211-.1783.2526-.1367.5231-.2705.7996-.4013.3121.0654.6271.1308.9393.1992c2.7406.5856,5.4605,1.2544,8.1626,2.0005c2.054.5677,4.4321.9631,6.0819,2.4196c1.2722,1.1266,1.550722.715933,1.418876.931393-.559551.914403-3.497458,5.323277-11.585375,5.695049s-12.93904-6.939341-12.93904-6.939341Z" fill="#645b9c"/><path d="M13.112,21.955c-.0624,0-.0802,0-.1427,0-.6747-.859-1.2752-1.7805-1.8638-2.702-.4667-.7253-.9423-1.4625-1.28412-2.2592.00594-.0386.01191-.0654.02082-.104.5797-.5737,1.2099-1.0999,1.8787-1.5666.1843-.1307.4042-.1991.6301-.2021.9899-.0148,3.8644-.0416,5.3031.0595.3091.0208.6182.0475.9274.0743.0386.003.0743-.0149.0892-.0505.0178-.0446.0683-.0744.1218-.0387l.1843.1278.3151.217l1.5339,1.0553.1873.1278c.0208.0149.0326.0327.0386.0565.0148.0713.0267.1456.0386.2199.2378,1.3793.0952,2.4108.1249,3.9981c0,.0416-.0149.2497-.0298.4162-.0059.0773-.101.11-.1546.0535-.3537-.3805-1.3019-1.3971-1.8042-1.9351-.0179-.0208-.0446-.0298-.0714-.0268-.7669.0773-1.5339.1546-2.2978.2289c0,0,0,0-.003,0-.0119.003-.0237.0089-.0386.0059-.437-.0148-.8739-.0327-1.3109-.0505-.0208,0-.0446.0059-.0625.0208-.8501.6748-1.6289,1.4417-2.3304,2.274Z" fill="#645b9c"/><path d="M12.8385,21.8628c.0208,0,.0416-.0059.0564-.0208.0416-.0327.0476-.0892.0149-.1308-1.082-1.3703-2.0392-2.8477-2.8507-4.3934-.0238-.0446-.08023-.0625-.12481-.0387s-.06247.0803-.03868.1249c.81749,1.5546,1.78059,3.0439,2.86859,4.4231.0178.0238.0445.0357.0713.0357h.003Z" fill="#2b254d"/><path d="M21.1824,21.301c.0446,0,.0863-.0327.0922-.0803.1694-1.3109.1427-2.6366-.0773-3.9386-.0089-.0505-.0565-.0832-.107-.0773-.0506.0089-.0832.0565-.0773.107.217,1.2841.2437,2.5921.0773,3.8851-.006.0506.0297.0981.0802.1041.003,0,.009,0,.0119,0Z" fill="#2b254d"/><path d="M9.88395,6.71229c.02378.10404.05054.20512.07729.30619.05346.19321.11596.38641.18436.57665.0238.06243.0475.12783.0713.19025.1041.27347.22.53803.3508.79962.1961.40129.4161.78772.6509,1.15335.5262.81445,1.1504,1.54575,1.8579,2.17295.0594.0565.1219.11.1843.1605.1219.1011.2586.0684.3478-.0149c1.2514-.2824,2.1194-1.4506,2.8893-2.36611.4577-.54695.9155-1.09687,1.3525-1.65868.3597-.46075.6777-.94229.868-1.49816.3359.01189.6658-.03568.9779-.13675.3865-.12484.7462-.32995,1.0613-.61234.7936-.70747,1.1177-1.82811.9779-2.87445-.0594-.45183-.2051-.8888-.4369-1.27226-.3954-.659905-1.1296-1.120641-1.9174-.957151-.3864.080259-.7014.279416-.9719.535051.0297-.270498-.006-.541002-.1071-.763943-.1694-.371569-.5945-.499398-.9809-.436974-.4816.077286-.8115.445892-1.1177.790708-.3508.392379-.7788.541009-1.2723.746109-.6064.2497-1.2603.3567-1.9024.49641-.9601.20511-1.9708.57966-2.6099,1.3436-.75797.90366-.78771,2.24131-.53207,3.32926l-.00298-.00893Z" fill="#e6dada"/><path d="M18.2217,3.22833c0,0,.0208-.00001.0297-.00595.1962-.07135.3507-.15756.4696-.26754.1665-.15755.2586-.38941.2289-.59749-.0208-.16349-.1189-.29428-.2675-.37156-.1189-.06243-.2675-.06539-.4043-.04756.1159-.1516.1932-.32699.217-.51129.006-.05053-.0297-.09808-.0803-.10403s-.098.02973-.104.08027c-.0326.25861-.1902.49938-.425.64504-.0416.02675-.0565.07729-.0327.1189.0208.04162.0713.06242.1159.04458.2051-.08323.4786-.14267.6302-.06241.0981.05053.1546.13079.1694.23482.0208.14566-.0505.32103-.1724.43696-.0981.09215-.2319.16647-.4043.22889-.0476.01784-.0743.07135-.0565.11891.0149.03865.0506.06241.0863.06241v-.00295Z" fill="#d1c5c5"/><path d="M12.3866,9.38414c.1278,2.19676.2259,4.39346.2972,6.59316.1962.1486.3894.3032.5797.4548c1.3079,1.0463,2.5415,2.1788,3.6829,3.3946.5381-.6272.9839-1.3168,1.3288-2.057.0743-.1575.1427-.3181.2081-.4786.113-.2764.2081-.5618.2913-.8501-.0505-.7848-.113-1.5695-.1933-2.3513-.0416-.4548-.0921-.9126-.1456-1.3674-.0178-.1546-.1397-.2378-.2675-.2497-1.1563-1.7954-3.0945-3.07953-5.2407-3.47191-.0832-.28537-.5766-.24673-.5558.0862c0,.0208,0,.04458.003.06836-.0297.07729-.0268.1635.0119.22889Z" fill="#f6a177"/><path d="M12.9752,12.6391c1.4238,1.95,3.3262,3.5522,5.5081,4.6521.113-.2765.2081-.5618.2913-.8502-.0505-.7847-.113-1.5695-.1933-2.3513-.0386-.0148-.0772-.0267-.1188-.0446-1.7241-.6123-3.4244-1.2781-5.0772-2.054-.2437-.1129-.434.1249-.3894.3181-.0803.0862-.107.211-.0207.3299Z" fill="#ba5e30"/><path d="M12.7969,12.9578c-.2824-1.849-.5143-3.70381-.4102-5.5676.0892-1.60518.7133-2.89528,2.262-3.58194c1.6855-.74908,4.0932-.77583,5.1128.9542.6213,1.05228.978,2.18184.6718,3.54624.3329.6718.4489,1.45359.4311,2.2205-.0268,1.0345-.2676,2.1165-.5619,3.0974-.5647,1.8935-2.3304,2.0838-4.004,1.5963c0-.0298-.0148-.0565-.0445-.0744-.4221-.2645-.8532-.5083-1.2842-.755-.7312-.4191-1.4625-.8442-2.1224-1.3703-.0179-.0208-.0327-.0416-.0505-.0624v-.003Z" fill="#f6a177"/><path d="M19.1908,8.5962c.1992.0654.3478-.05946.4013-.21106.0535-.16646.0476-.38643-.0802-.55884-.1486-.2051-.4162-.29726-.5529-.11593-.1754.22591-.1011.77286.2348.88879l-.003-.00296Z" fill="#4a3a4a"/><path d="M18.522,8.09741c.0208,0,.0416-.00593.0594-.02079.2022-.17241.4013-.27646.5945-.30916.223-.03864.4459.02973.5826.17242.0357.03864.0923.03864.1309.00297s.0386-.09215.003-.13079c-.1784-.19024-.4637-.27645-.7461-.22889-.226.03864-.4549.15754-.6837.35076-.0387.03269-.0446.09215-.009.13079.0179.02081.0446.03269.0714.03269h-.003Z" fill="#4a3a4a"/><path d="M18.0376,10.5619c.0208,0,.0416-.006.0595-.0208l.0683-.0565c.3508-.2824.7847-.63615.7758-1.09392-.003-.17538-.0654-.34483-.1189-.49346l-.7788-2.12833c-.0178-.04756-.0713-.07135-.1189-.05648-.0475.01783-.0713.07135-.0564.11891l.7787,2.12833c.0506.14269.1041.28835.1071.434.0059.3686-.3895.68665-.7075.94525l-.0714.0565c-.0386.0327-.0445.0892-.0118.1308.0178.0238.0446.0327.0713.0327l.003.003Z" fill="#ba5e30"/><path d="M17.0772,9.92454c.0208,0,.0417-.00595.0566-.02081.1724-.13674.425-.16052.6271-.05648.0446.02378.1011.00594.1249-.04162.0238-.04459.0059-.10107-.0416-.12485-.2705-.13673-.5946-.107-.8264.07729-.0387.0327-.0476.08918-.0149.1308.0178.02378.0447.03567.0714.03567h.0029Z" fill="#ba5e30"/><path d="M17.2528,11.6788c0,0,.0179,0,.0268-.0029.5589-.1606,1.1355-.2676,1.7182-.3211.0505-.0059.0891-.0505.0832-.101s-.0506-.0892-.1011-.0833c-.5945.0535-1.1831.1635-1.7509.327-.0505.0149-.0772.0654-.0624.1159.0119.0416.0476.0684.0892.0684l-.003-.003Z" fill="#ba5e30"/><path d="M14.2505,6.57186c.0208.21105.1426.41616.3299.40724l1.2277-.06541c.1011-.00297.2021-.01188.3061-.01486.1011-.00594.2081,0,.3032-.04162.3894-.15754.2943-.7253-.0446-.87393-.4577-.19916-.9482-.10403-1.4149-.0089-.321.06539-.7461.1843-.7074.59748Z" fill="#e6dada"/><path d="M20.2579,6.32558c0,.06837-.006.13375-.0208.1932-.0238.0981-.0893.19025-.1844.22294-.0416.01487-.0862.01487-.1307.01784-.3419.00892-.6837.01784-1.0256.02676-.0862,0-.1783.00297-.2556-.03864-.1368-.07432-.1783-.24969-.1754-.40427c0-.1189.0238-.24375.0892-.34185.1189-.18132.3567-.24374.5737-.25861.2229-.01486.4459.00595.6629.05946.107.02675.217.06242.3032.13079.1159.08918.1635.24375.1665.39238h-.003Z" fill="#e6dada"/><path d="M15.6773,6.84867c.0208,0,.0416-.00595.0565-.02081.2467-.19322.4251-.4667.5023-.7699.0119-.05053-.0178-.10107-.0653-.11296-.0506-.01189-.1011.01785-.113.06541-.0684.26456-.223.50236-.437.6718-.0416.0327-.0476.08918-.0149.13079.0179.02378.0446.03567.0743.03567h-.0029Z" transform="translate(-.039134 0.039134)" fill="#d1c5c5"/><path d="M15.0413,6.86698c0,0,.0267-.00001.0386-.00893.211-.09809.3865-.26752.4935-.47262.0237-.04459.0059-.10108-.0387-.12486s-.1011-.00595-.1248.03864c-.0892.16944-.2349.30915-.4103.38941-.0476.0208-.0654.07729-.0445.12188.0148.0327.0505.0535.0832.0535l.003.00298Z" transform="translate(-.039134 0.039134)" fill="#d1c5c5"/><path d="M19.4971,6.76562c0,0,.0297-.00296.0416-.00891.2556-.13079.4251-.41319.4221-.70153c0-.05053-.0416-.09512-.0921-.09215-.0506,0-.0922.04162-.0922.09513c0,.21996-.1278.43398-.3211.53505-.0445.02378-.0623.08027-.0386.12486.0179.0327.0476.05053.0833.05053l-.003-.00298Z" transform="translate(-.039134 0.039134)" fill="#d1c5c5"/><path d="M15.817,8.72413c.1991.0654.3478-.05946.4013-.21106.0535-.16646.0476-.38643-.0803-.55884-.1486-.2051-.4161-.29726-.5528-.11593-.1754.22591-.1011.77288.2348.88881l-.003-.00298Z" fill="#4a3a4a"/><path d="M14.8392,8.26075c.0178,0,.0356-.00594.0535-.01783.2556-.17538.5053-.27944.749-.31213.2884-.03865.5767.02974.7521.18134.0387.03269.0981.02971.1308-.00893s.0297-.0981-.0089-.13079c-.217-.18727-.5529-.27051-.8978-.22295-.2734.03568-.5499.15161-.8293.34483-.0416.02973-.0535.0862-.0237.12782.0178.02675.0475.03864.0772.03864h-.0029Z" fill="#4a3a4a"/><path d="M10.5023,9.25009c.0892.32104.2557.62425.4637.88581s.4519.5202.7581.6599c.3121.1427.6747.1427.9631-.0535.2764-.1902.4547-.4964.5379-.81743.327-1.24847-.7104-3.49869-2.2888-2.41074-.5291.36265-.5975,1.13848-.431,1.73894l-.003-.00298Z" fill="#f6a177"/><path d="M12.2676,9.33404c0-1.35548.0625-2.708.0922-4.06051.0595-.12187.1218-.24374.1843-.36264-.0684-.04756-.104-.12485-.107-.20808-.0684-.11891-.0743-.28239.0416-.40129c1.296-1.34359,3.1361-2.0154,4.9553-1.8311.1991.02081.2734.19917.2466.35968.1249.11891.2795.32698.1071.4548-1.3287.98985-2.9934,1.55168-4.6194,1.64977-.3299,1.81326-.1783,4.47368-.0594,5.88263.0178.1903.0475.3776.1099.5559c0,.006.0001.0089.003.0119.1487.431.4311.8026.7848,1.082.7877.6272,1.6587,1.1474,2.6218,1.4149.2765.0744.5558.1249.8412.1516.0149-.0089.0298-.0178.0446-.0267.0506-.0357.107-.0565.1694-.0624.0595-.0149.1219-.0149.1844,0c.0535.0119.101.0327.1456.0654.0238-.0179.0476-.0387.0743-.0565.0179-.0119.0357-.0238.0535-.0327.0505-.0268.1041-.0535.1576-.0714.1961-.0654.422-.0267.5766.1041.7045-.1754,1.3228-.6213,1.6617-1.2693c0-.003.003-.0089.0059-.0119.0565.4072.0387.8175-.0416,1.2158-.0149.0802-.0327.1575-.0505.2318-.0506.1843-.1219.3567-.214.5232.0237.0505.0416.1011.0535.1546.0327.1456.0327.2943-.0357.431-.0475.107-.1367.1932-.2408.2467-.1397.0743-.3032.113-.4637.1278-.0178.0535-.0446.1011-.0803.1398-.217.2378-.9541.324-1.9886.0446-.7193-.1933-1.3941-.5262-2.0362-.9156-.981-.5945-1.9589-1.2633-2.6961-2.1789-.1991-.2437-.324-.541-.3567-.8501-.0802-.8353-.1308-1.6736-.1278-2.51183l.0029.00297Z" fill="#e6dada"/><path d="M19.5534,15.3501c0,0,.0059,0,.0119,0c.0505-.0059.0862-.0505.0802-.104-.0446-.3775-.2794-.7253-.5826-.8621-.0475-.0208-.1011,0-.1219.0476s0,.1011.0476.1219c.2467.1129.4369.3983.4756.7163.0059.0476.0446.0803.0921.0803h-.0029Z" transform="translate(-.039134 0.039134)" fill="#d1c5c5"/><path d="M17.0831,15.4186c.0417,0,.0803-.0267.0892-.0713.0773-.3151-.0178-.6837-.2348-.8948-.0357-.0356-.0951-.0356-.1308,0s-.0357.0952,0,.1308c.1724.1695.2468.4667.1843.7194-.0118.0505.0179.1011.0684.113.006,0,.0148,0,.0208,0l.0029.0029Z" transform="translate(-.039134 0.039134)" fill="#d1c5c5"/><path d="M16.4769,15.0498c.0475,0,.0891-.0387.092-.0892.009-.1903-.0504-.3865-.1634-.5232-.0327-.0386-.0892-.0446-.1308-.0119-.0387.0327-.0446.0892-.0119.1308.0832.1041.1308.2527.1219.3983c0,.0506.0357.0952.0892.0981c0,0,.003,0,.0059,0l-.0029-.0029Z" transform="translate(-.039134 0.039134)" fill="#d1c5c5"/><path d="M13.6885,4.46444c0,0,.0179,0,.0268-.00297.5113-.1516.972-.49642,1.2604-.94527s.4131-1.01067.3418-1.53978c-.0059-.05053-.0535-.08621-.104-.08027s-.0862.05352-.0803.10405c.0654.48453-.0475,1.00175-.3151,1.41197-.2675.41318-.6896.72826-1.1593.86797-.0476.01487-.0773.06541-.0624.11594.0119.04161.0476.06539.0892.06539l.0029.00297Z" transform="translate(-.039134 0.039134)" fill="#d1c5c5"/><path d="M10.2969,7.02074c.0416,0,.0803-.02675.0892-.07133.1337-.52912.4429-1.00473.8739-1.34063.431-.33292.972-.51424,1.5159-.51127.0506,0,.0922-.04161.0922-.09214s-.0416-.09215-.0922-.09215c-.5885-.00595-1.1652.19023-1.6319.54991-.4637.35968-.7996.87097-.9423,1.4417-.0119.05053.0179.10107.0684.11296.0089,0,.0149,0,.0238,0l.003.00295Z" transform="translate(-.039134 0.039134)" fill="#d1c5c5"/></g></g></g></g></g></g><g transform="translate(-71-24)"><g id="eoNJ39y0CfF455" transform="translate(-61.636494-273.27438)"><ellipse id="eoNJ39y0CfF456" rx="14.54" ry="14.54" transform="matrix(1.269602 0 0 1.269602 734.297383 490.031087)" opacity="0" fill="none" stroke="#74abf3" stroke-width="2" stroke-opacity="0.48"/><ellipse id="eoNJ39y0CfF457" rx="14.54" ry="14.54" transform="translate(734.297383 490.031087)" opacity="0" fill="#a5bce3" fill-opacity="0.48" stroke="#81acd2"/></g></g></g>
<script><![CDATA[
(function(s,i,u,o,c,w,d,t,n,x,e,p,a,b){(a=Array.from(d.querySelectorAll('svg#' + i.root)).filter(n=> !n.svgatorPlayer)[0]||{}).svgatorPlayer={ready:(function(a){b=[];return function(c){return c?(b.push(c),a.svgatorPlayer):b}})(a)};w[o]=w[o]||{};w[o][s]=w[o][s]||[];w[o][s].push(i);e=d.createElementNS(n,t);e.async=true;e.setAttributeNS(x,'href',[u,s,'.','j','s','?','v','=',c].join(''));e.setAttributeNS(null,'src',[u,s,'.','j','s','?','v','=',c].join(''));p=d.getElementsByTagName(t)[0];p.parentNode.insertBefore(e,p);})('91c80d77',{"root":"eoNJ39y0CfF1","version":"2025-04-07","animations":[{"elements":{"eoNJ39y0CfF3":{"transform":{"data":{"t":{"x":-445.811145,"y":-223.607172}},"keys":{"o":[{"t":0,"v":{"x":340.669906,"y":233.40459,"type":"corner"}},{"t":500,"v":{"x":357.336573,"y":227.40459,"type":"corner"}},{"t":5000,"v":{"x":357.336573,"y":227.40459,"type":"corner"}},{"t":5500,"v":{"x":447.267239,"y":231.40459,"type":"corner"}}],"s":[{"t":0,"v":{"x":0.93,"y":0.93}},{"t":500,"v":{"x":1.03,"y":1.03}},{"t":5000,"v":{"x":1.03,"y":1.03}},{"t":5500,"v":{"x":0.93,"y":0.93}}]}},"opacity":[{"t":0,"v":0},{"t":500,"v":1},{"t":5000,"v":1,"e":[0.47,0,0.745,0.715]},{"t":5500,"v":0}]},"eoNJ39y0CfF4":{"transform":{"data":{"t":{"x":-380.665556,"y":-218.593434}},"keys":{"o":[{"t":0,"v":{"x":419.228193,"y":187.502162,"type":"corner"}},{"t":500,"v":{"x":457.394384,"y":212.317425,"type":"corner"}},{"t":5000,"v":{"x":457.394384,"y":212.317425,"type":"corner"}},{"t":5500,"v":{"x":387.403104,"y":182.12582,"type":"corner"}}],"k":[{"t":0,"v":{"x":-2,"y":0}},{"t":500,"v":{"x":-3,"y":0}},{"t":5000,"v":{"x":-3,"y":0}},{"t":5500,"v":{"x":-2,"y":0}}]}}},"eoNJ39y0CfF30":{"transform":{"data":{"s":{"x":0.6,"y":0.6},"t":{"x":-104.336974,"y":-113.793401}},"keys":{"o":[{"t":0,"v":{"x":81.367672,"y":-32.444163,"type":"corner"}},{"t":500,"v":{"x":105.095833,"y":-16.920061,"type":"corner"}},{"t":5000,"v":{"x":105.095833,"y":-16.920061,"type":"corner"}},{"t":5500,"v":{"x":77.499573,"y":-33.519432,"type":"corner"}}],"k":[{"t":0,"v":{"x":-1,"y":0}},{"t":500,"v":{"x":-2,"y":0}},{"t":5000,"v":{"x":-2,"y":0}},{"t":5500,"v":{"x":-1,"y":0}}]}}},"eoNJ39y0CfF165":{"transform":{"data":{"o":{"x":483.243734,"y":217.869091,"type":"corner"},"t":{"x":-482.053618,"y":-300.798565}},"keys":{"s":[{"t":2200,"v":{"x":1,"y":1},"e":[0.47,0,0.745,0.715]},{"t":2400,"v":{"x":0.96,"y":0.96},"e":[0.39,0.575,0.565,1]},{"t":2600,"v":{"x":1,"y":1}}]}}},"eoNJ39y0CfF167":{"transform":{"data":{"t":{"x":-510.500488,"y":-347}},"keys":{"o":[{"t":2450,"v":{"x":510.563455,"y":331.205141,"type":"corner"},"e":[0.403816,0.736197,0.728647,1.070926]},{"t":2800,"v":{"x":678.607437,"y":331.205141,"type":"corner"}}]}}},"eoNJ39y0CfF204":{"transform":{"data":{"t":{"x":-249.648559,"y":-260.183185}},"keys":{"o":[{"t":2200,"v":{"x":255.616958,"y":253.205098,"type":"corner"}},{"t":2500,"v":{"x":259.266613,"y":253.205098,"type":"corner"},"e":[0.389187,0.594396,0.717234,0.928456]},{"t":2900,"v":{"x":426.465478,"y":253.205098,"type":"corner"}}]}}},"eoNJ39y0CfF240":{"transform":{"data":{"o":{"x":339.877457,"y":331.574688,"type":"corner"},"t":{"x":-336.833496,"y":-347}},"keys":{"s":[{"t":2800,"v":{"x":0.73,"y":0.73},"e":[0.175,0.885,0.32,1.275]},{"t":3300,"v":{"x":1,"y":1}}]}},"opacity":[{"t":2800,"v":0},{"t":3150,"v":1}]},"eoNJ39y0CfF242":{"fill":[{"t":3300,"v":{"t":"c","v":{"r":231,"g":238,"b":255,"a":1}}},{"t":3500,"v":{"t":"c","v":{"r":249,"g":251,"b":255,"a":1}}}]},"eoNJ39y0CfF455":{"transform":{"data":{"t":{"x":-734.29738,"y":-490.031087}},"keys":{"o":[{"t":1500,"v":{"x":672.660886,"y":216.756707,"type":"corner"},"e":[0.39,0.575,0.565,1]},{"t":2300,"v":{"x":747.743134,"y":147.829577,"type":"corner"}}]}}},"eoNJ39y0CfF456":{"transform":{"data":{"o":{"x":734.297383,"y":490.031087,"type":"corner"}},"keys":{"s":[{"t":2300,"v":{"x":1.269602,"y":1.269602},"e":[0.42,0,0.58,1]},{"t":2600,"v":{"x":2.101332,"y":2.101332}}]}},"opacity":[{"t":2300,"v":0,"e":[0.42,0,0.58,1]},{"t":2500,"v":0.48},{"t":2700,"v":0}]},"eoNJ39y0CfF457":{"transform":{"data":{"o":{"x":734.297383,"y":490.031087,"type":"corner"}},"keys":{"s":[{"t":2300,"v":{"x":1,"y":1},"e":[0.42,0,0.58,1]},{"t":2600,"v":{"x":0.92,"y":0.92}},{"t":2700,"v":{"x":1,"y":1}}]}},"opacity":[{"t":1500,"v":0,"e":[0.42,0,0.58,1]},{"t":2300,"v":1,"e":[0.42,0,0.58,1]},{"t":2600,"v":0}]}},"s":"MDQA1ZGI0NWI5ZPGFlYWI5YWFkCYTJhOFdhNzVRiNzM2ZTZlNjQk2OTY1NWI5ZIGEyYWI5ZTljUYWRhMmE4YTcS1YjczNmE2NTPViYTJhZDllYTWI5YWFkSGEyFYThPYTdhY1IU1YjczNjk2NTIViOWZhMmE1YDTU1YjczNmE2ONTViOWFhNWFYkOWVhYk5hNzTlhYWQ5ZTViNDzM5ZjlhYTVhKYzllNjU1YmFKjUGE5OWU5ZTAlkTjViNzM2YFUg2NTViOWZhNOWFjNWI3MzZMhNjk2OWI2"}],"options":"MDLAxMDgyMjk3YGTdiNjg3OVg3WYjI5NDEyOTcQzNzY2ODZiMjHk4NA|"},'https://cdn.svgator.com/ply/','__SVGATOR_PLAYER__','2025-04-07',window,document,'script','http://www.w3.org/2000/svg','http://www.w3.org/1999/xlink')
]]></script>

<style><![CDATA[
@font-face {font-family: 'eoNJ39y0CfF1:::Open Sans';font-style: normal;font-weight: 400;font-stretch: normal;src: url(https://fonts.gstatic.com/l/font?kit=memSYaGs126MiZpBA-UvWbX2vVnXBbObj2OVZyOOSr4dVJWUgsjZ0C4nexse4I44Vxxpty0PLLvfNoUeY-6b4TP_Kre_kMSMvQGVrLZylvHLJmGt6ku7cSNXGBjCdBVFbBUVjxnNnq-j-b8OJy2Of116F8VKJ9ky&skey=62c1cbfccc78b4b2&v=v43) format('truetype');}@font-face {font-family: 'eoNJ39y0CfF1:::Open Sans';font-style: normal;font-weight: 500;font-stretch: normal;src: url(https://fonts.gstatic.com/l/font?kit=memSYaGs126MiZpBA-UvWbX2vVnXBbObj2OVZyOOSr4dVJWUgsjr0C4nexse4I44Vxxpty0PLLvfNoUeY-6b4TP_Kre_kMSMvQGVrLZylvHLJmGt6ku7cSNXGBjCdBVFbBUVjxnNnq-j-b8OJy2Of116F8VKJ9ky&skey=62c1cbfccc78b4b2&v=v43) format('truetype');}@font-face {font-family: 'eoNJ39y0CfF1:::Open Sans';font-style: normal;font-weight: 600;font-stretch: normal;src: url(https://fonts.gstatic.com/l/font?kit=memSYaGs126MiZpBA-UvWbX2vVnXBbObj2OVZyOOSr4dVJWUgsgH1y4nexse4I44Vxxpty0PLLvfNoUeY-6b4TP_Kre_kMSMvQGVrLZylvHLJmGt6ku7cSNXGBjCdBVFbBUVjxnNnq-j-b8OJy2Of116F8VKJ9ky&skey=62c1cbfccc78b4b2&v=v43) format('truetype');}@font-face {font-family: 'eoNJ39y0CfF1:::Open Sans';font-style: normal;font-weight: 700;font-stretch: normal;src: url(https://fonts.gstatic.com/l/font?kit=memSYaGs126MiZpBA-UvWbX2vVnXBbObj2OVZyOOSr4dVJWUgsg-1y4nexse4I44Vxxpty0PLLvfNoUeY-6b4TP_Kre_kMSMvQGVrLZylvHLJmGt6ku7cSNXGBjCdBVFbBUVjxnNnq-j-b8OJy2Of116F8VKJ9ky&skey=62c1cbfccc78b4b2&v=v43) format('truetype');}
]]></style>
</svg>
