<svg id="ee8ldHrkQGg1" xmlns="http://www.w3.org/2000/svg" xmlns:xlink="http://www.w3.org/1999/xlink" viewBox="0 0 894 504" shape-rendering="geometricPrecision" text-rendering="geometricPrecision" project-id="c10851bb2bf24e27a7439e314b3aeeea" export-id="2492e05d37744a98b02295e9bb59b070" cached="false" width="894" height="504"><defs><filter id="ee8ldHrkQGg27-filter" x="-150%" y="-150%" width="400%" height="400%"><feGaussianBlur id="ee8ldHrkQGg27-filter-blur-0" stdDeviation="10,10" result="result"/></filter><filter id="ee8ldHrkQGg49-filter" x="-150%" y="-150%" width="400%" height="400%"><feGaussianBlur id="ee8ldHrkQGg49-filter-blur-0" stdDeviation="10,10" result="result"/></filter><filter id="ee8ldHrkQGg191-filter" x="-150%" y="-150%" width="400%" height="400%"><feGaussianBlur id="ee8ldHrkQGg191-filter-blur-0" stdDeviation="10,10" result="result"/></filter></defs><g transform="translate(88.037109 47.504524)"><g id="ee8ldHrkQGg3" transform="matrix(.84 0 0 0.84 11.671578 35.839699)" opacity="0"><g id="ee8ldHrkQGg4" transform="matrix(.841025-.014662-.058739 0.84 214.627432 28.998711)" opacity="0.78"><rect width="346" height="476.422153" rx="12" ry="12" transform="translate(1.510115 4)" fill="#fff"/><g transform="translate(-17.148998-733.532926)" opacity="0.3"><text dx="0" dy="0" font-family="&quot;ee8ldHrkQGg1:::Open Sans&quot;" font-size="16" font-weight="400" transform="translate(57.150849 0.704185)" fill="#1b1b1b"><tspan y="796.8" font-weight="400"><![CDATA[
Additional information around Step 1
]]></tspan></text><rect width="264" height="44" rx="10" ry="10" transform="translate(76 815)" fill="#c453e9"/><text dx="0" dy="0" font-family="&quot;ee8ldHrkQGg1:::Open Sans&quot;" font-size="10" font-weight="400" transform="translate(80.015173 1.023282)" fill="#3d4551"><tspan y="880.125" font-weight="400"><![CDATA[
https://link.embedded-into-the-button-above.should-be-
]]></tspan><tspan x="0" y="890.125" font-weight="400"><![CDATA[
shown-here-in-order-to-give-an-alternative-way-to-
]]></tspan><tspan x="0" y="910.125" font-weight="400"><![CDATA[
access-a-link
]]></tspan></text><text dx="0" dy="0" font-family="&quot;ee8ldHrkQGg1:::Open Sans&quot;" font-size="16" font-weight="400" transform="translate(60.18431-.324517)" fill="#1b1b1b"><tspan y="985.8" font-weight="400"><![CDATA[
Additional information around Step 2
]]></tspan></text><text dx="0" dy="0" font-family="&quot;ee8ldHrkQGg1:::Open Sans&quot;" font-size="16" font-weight="400" transform="translate(61.698779 5.363767)" fill="#1b1b1b"><tspan y="1068.8" font-weight="400"><![CDATA[
Additional information around Step 3
]]></tspan></text><g transform="translate(20.813139 734.885914)"><g transform="translate(5.901545 0)"><path d="M301.486,15.585h16.922c1.23,0,2.227.9969,2.227,2.2266v5.7894c0,1.2297-.997,2.2266-2.227,2.2266h-16.922c-1.23,0-2.227-.9969-2.227-2.2266v-5.7894c0-1.2297.997-2.2266,2.227-2.2266Zm0,.8906c-.738,0-1.336.5982-1.336,1.336v5.7894c0,.7378.598,1.336,1.336,1.336h16.922c.738,0,1.336-.5982,1.336-1.336v-5.7894c0-.7378-.598-1.336-1.336-1.336h-16.922Z" opacity="0.98" clip-rule="evenodd" fill="#d8d8d8" fill-rule="evenodd"/><path d="M321.527,18.5249c.793.4054,1.336,1.2304,1.336,2.1823c0,.9518-.543,1.7768-1.336,2.1822v-4.3645Z" opacity="0.4" clip-rule="evenodd" fill="#fff" fill-rule="evenodd"/><path d="M301.933,17.3667h16.032c.492,0,.89.3988.89.8907v4.8986c0,.4919-.398.8907-.89.8907h-16.032c-.492,0-.891-.3988-.891-.8907v-4.8986c0-.4919.399-.8907.891-.8907Z" clip-rule="evenodd" fill-rule="evenodd"/><path d="M287.805,22.2134c.57,0,1.124.1492,1.612.4345l.197.1163c.15.0877.176.2926.054.415l-1.688,1.6826c-.103.103-.271.103-.375,0l-1.677-1.6719c-.121-.1218-.096-.3256.052-.414l.196-.1162c.492-.2925,1.052-.4463,1.629-.4463Zm.001-3.0938c1.417,0,2.778.4704,3.886,1.3408l.156.1231c.125.0981.136.2834.024.3955l-1.007,1.0039c-.093.0929-.241.1039-.347.0254l-.122-.0918c-.748-.5563-1.651-.8545-2.59-.8545-.944,0-1.852.3026-2.603.8652l-.122.0918c-.106.0792-.254.0688-.348-.0244l-1.007-1.0039c-.112-.1118-.101-.2963.024-.3945l.155-.1231c1.111-.8782,2.478-1.3535,3.901-1.3535Zm0-3.0888c2.249,0,4.4.7931,6.102,2.247l.144.1241c.118.1002.125.2786.016.3877l-1.004,1.0009c-.097.097-.253.1038-.358.0157l-.124-.1036c-1.34-1.1205-3.02-1.7304-4.776-1.7304-1.761,0-3.446.6139-4.788,1.7412l-.125.1045c-.105.0885-.261.0824-.358-.0147l-1.004-1.001c-.109-.1088-.102-.2873.015-.3876l.144-.1241c1.704-1.4617,3.861-2.2597,6.116-2.2597Z"/><path d="M275.662,16.0308h.891c.491,0,.89.3987.89.8906v7.1254c0,.4919-.399.8906-.89.8906h-.891c-.492,0-.891-.3987-.891-.8906v-7.1254c0-.4919.399-.8906.891-.8906Z" clip-rule="evenodd" fill="#d8d8d8" fill-rule="evenodd"/><path d="M264.529,20.9292c.492.0002.891.3989.891.8906v2.2266c0,.4918-.399.8904-.891.8906h-.89c-.492,0-.891-.3987-.891-.8906v-2.2266c0-.4918.399-.8906.891-.8906h.89Zm4.008-1.3359c.492,0,.891.3987.891.8906v3.5625c0,.4918-.399.8905-.891.8906h-.891c-.491,0-.89-.3987-.89-.8906v-3.5625c0-.4919.399-.8906.89-.8906h.891Zm4.008-1.7813c.492,0,.891.3987.891.8906v5.3438c0,.4919-.399.8906-.891.8906h-.891c-.492,0-.89-.3987-.89-.8906v-5.3438c0-.4919.398-.8906.89-.8906h.891Z"/></g></g></g></g><g id="ee8ldHrkQGg26" transform="matrix(.841025-.014662-.058739 0.84 161.438646 21.583759)" opacity="0.88"><rect width="346" height="476.422153" rx="12" ry="12" transform="translate(51.750247 3.954557)" opacity="0.14" filter="url(#ee8ldHrkQGg27-filter)" fill="#6d76ff"/><rect width="346" height="476.422153" rx="12" ry="12" transform="translate(39 0.000002)" fill="#fff"/><g transform="translate(11.083434-2.075564)" opacity="0.7"><text dx="0" dy="0" font-family="&quot;ee8ldHrkQGg1:::Open Sans&quot;" font-size="10" font-weight="500" transform="translate(325.593972 251.143792)" fill="#c7c3c3"><tspan y="11" font-weight="500"><![CDATA[
Quote
]]></tspan></text><circle r="8.06667" transform="translate(341.393972 235.410792)" fill="#fff" stroke="#d3dce6" stroke-width="1.17333"/><text dx="0" dy="0" font-family="&quot;ee8ldHrkQGg1:::Open Sans&quot;" font-size="8.8" font-weight="600" transform="translate(338.326972 228.810792)" fill="#d3dce6"><tspan y="9.58" font-weight="600"><![CDATA[
3
]]></tspan></text><rect width="327" height="45" rx="8" ry="8" transform="translate(39.088054 325.963544)" fill="#f6f6f6"/><rect width="327" height="45" rx="8" ry="8" transform="translate(37 421)" fill="#f6f6f6"/><text dx="0" dy="0" font-family="&quot;ee8ldHrkQGg1:::Open Sans&quot;" font-size="22" font-weight="600" transform="translate(63.180029 99.525573)" fill="#981a1a"><tspan y="22.7" font-weight="600"><![CDATA[
Upgrade to Comprehensive  
]]></tspan><tspan x="0" y="44.7" font-weight="600"><![CDATA[
Motor Insurance Plan
]]></tspan></text><text dx="0" dy="0" font-family="&quot;ee8ldHrkQGg1:::Open Sans&quot;" font-size="13" font-weight="400" transform="translate(57.841263 168.653668)" fill="#828282"><tspan y="14.55" font-weight="400"><![CDATA[
Fill or Update your information and we’ll get your 
]]></tspan><tspan x="0" y="27.55" font-weight="400"><![CDATA[
vehicle covered in no time. 
]]></tspan></text><g transform="matrix(.8 0 0 0.8 81.600101 3.766821)"><rect width="21" height="10.3333" rx="2.16667" ry="2.16667" transform="translate(327.501 13.833)" opacity="0.4" fill="none" stroke="#000"/><rect width="18" height="7.33333" rx="1.33333" ry="1.33333" transform="translate(329.001 15.3335)"/><path d="M312.106,21.8c1.287-1.0657,3.171-1.0657,4.458,0c.065.0573.103.1383.104.2236.002.0853-.032.1678-.094.2276l-2.016,1.9912c-.059.0585-.14.0918-.224.0918-.083-.0001-.164-.0334-.223-.0918l-2.015-1.9912c-.062-.0599-.096-.1422-.095-.2276.002-.0854.04-.1663.105-.2236Zm-2.673-2.8652c2.762-2.5789,7.04-2.5789,9.802,0c.062.0605.098.1444.099.2314c0,.0869-.033.1708-.094.2324l-1.16,1.1768c-.12.1201-.313.1227-.436.0059-.907-.8246-2.088-1.2814-3.311-1.2813-1.223.0006-2.403.4573-3.309,1.2813-.123.1168-.316.1142-.436-.0059l-1.16-1.1768c-.061-.0615-.094-.1454-.094-.2324.001-.087.037-.1709.099-.2314Zm-2.669-2.6201c4.232-3.9742,10.909-3.9743,15.141,0c.061.0589.095.1396.095.2236.001.0842-.033.1658-.093.2256l-1.16,1.1474c-.12.1178-.315.1189-.436.003-1.612-1.502-3.752-2.3398-5.977-2.3399-2.224,0-4.365.8377-5.977,2.3399-.121.1161-.315.1149-.435-.003l-1.161-1.1474c-.06-.0598-.094-.1414-.094-.2256.001-.0841.036-.1647.097-.2236Z"/><path d="M286.667,20.3335c.553,0,1,.4477,1,1v2c0,.5521-.447,1-1,1h-1c-.552,0-.999-.4479-1-1v-2c0-.5523.448-1,1-1h1Zm4.667-2c.553.0003,1,.4479,1,1v4c0,.5519-.448.9997-1,1h-1c-.552,0-.999-.4479-1-1v-4c0-.5523.448-1,1-1h1ZM296,15.9995c.553.0001,1,.4479,1,1v6.334c0,.5521-.447,1-1,1h-1c-.552,0-.999-.4478-1-1v-6.334c.001-.5521.448-1,1-1h1Zm4.667-2.333c.552,0,1,.4477,1,1v8.667c-.001.5521-.448,1-1,1h-1c-.553,0-1-.4479-1-1v-8.667c0-.5523.447-1,1-1h1Z"/></g></g></g><g transform="matrix(.84 0 0 0.84 186.3543 19.135162)"><rect width="345.52569" height="478.830744" rx="12" ry="12" transform="matrix(1 0-.034921 1 6.103665 9.916243)" opacity="0.14" filter="url(#ee8ldHrkQGg49-filter)" fill="#6d76ff"/><rect width="345.52569" height="478.830744" rx="12" ry="12" transform="translate(-12.100469 0.517746)" fill="#fff"/><g transform="translate(-8.75-5.692248)"><text dx="0" dy="0" font-family="&quot;ee8ldHrkQGg1:::Roboto&quot;" font-size="13.36" font-weight="600" transform="translate(-11.39467 0)"><tspan x="20.0442" y="24.8628" font-family="&quot;ee8ldHrkQGg1:::Roboto&quot;" font-size="13.36" font-weight="600" font-style="normal"><![CDATA[
12:22
]]></tspan></text><g transform="translate(5.901545 0)"><path d="M301.486,15.585h16.922c1.23,0,2.227.9969,2.227,2.2266v5.7894c0,1.2297-.997,2.2266-2.227,2.2266h-16.922c-1.23,0-2.227-.9969-2.227-2.2266v-5.7894c0-1.2297.997-2.2266,2.227-2.2266Zm0,.8906c-.738,0-1.336.5982-1.336,1.336v5.7894c0,.7378.598,1.336,1.336,1.336h16.922c.738,0,1.336-.5982,1.336-1.336v-5.7894c0-.7378-.598-1.336-1.336-1.336h-16.922Z" opacity="0.98" clip-rule="evenodd" fill="#d8d8d8" fill-rule="evenodd"/><path d="M321.527,18.5249c.793.4054,1.336,1.2304,1.336,2.1823c0,.9518-.543,1.7768-1.336,2.1822v-4.3645Z" opacity="0.4" clip-rule="evenodd" fill="#fff" fill-rule="evenodd"/><path d="M301.933,17.3667h16.032c.492,0,.89.3988.89.8907v4.8986c0,.4919-.398.8907-.89.8907h-16.032c-.492,0-.891-.3988-.891-.8907v-4.8986c0-.4919.399-.8907.891-.8907Z" clip-rule="evenodd" fill-rule="evenodd"/><path d="M287.805,22.2134c.57,0,1.124.1492,1.612.4345l.197.1163c.15.0877.176.2926.054.415l-1.688,1.6826c-.103.103-.271.103-.375,0l-1.677-1.6719c-.121-.1218-.096-.3256.052-.414l.196-.1162c.492-.2925,1.052-.4463,1.629-.4463Zm.001-3.0938c1.417,0,2.778.4704,3.886,1.3408l.156.1231c.125.0981.136.2834.024.3955l-1.007,1.0039c-.093.0929-.241.1039-.347.0254l-.122-.0918c-.748-.5563-1.651-.8545-2.59-.8545-.944,0-1.852.3026-2.603.8652l-.122.0918c-.106.0792-.254.0688-.348-.0244l-1.007-1.0039c-.112-.1118-.101-.2963.024-.3945l.155-.1231c1.111-.8782,2.478-1.3535,3.901-1.3535Zm0-3.0888c2.249,0,4.4.7931,6.102,2.247l.144.1241c.118.1002.125.2786.016.3877l-1.004,1.0009c-.097.097-.253.1038-.358.0157l-.124-.1036c-1.34-1.1205-3.02-1.7304-4.776-1.7304-1.761,0-3.446.6139-4.788,1.7412l-.125.1045c-.105.0885-.261.0824-.358-.0147l-1.004-1.001c-.109-.1088-.102-.2873.015-.3876l.144-.1241c1.704-1.4617,3.861-2.2597,6.116-2.2597Z"/><path d="M275.662,16.0308h.891c.491,0,.89.3987.89.8906v7.1254c0,.4919-.399.8906-.89.8906h-.891c-.492,0-.891-.3987-.891-.8906v-7.1254c0-.4919.399-.8906.891-.8906Z" clip-rule="evenodd" fill="#d8d8d8" fill-rule="evenodd"/><path d="M264.529,20.9292c.492.0002.891.3989.891.8906v2.2266c0,.4918-.399.8904-.891.8906h-.89c-.492,0-.891-.3987-.891-.8906v-2.2266c0-.4918.399-.8906.891-.8906h.89Zm4.008-1.3359c.492,0,.891.3987.891.8906v3.5625c0,.4918-.399.8905-.891.8906h-.891c-.491,0-.89-.3987-.89-.8906v-3.5625c0-.4919.399-.8906.89-.8906h.891Zm4.008-1.7813c.492,0,.891.3987.891.8906v5.3438c0,.4919-.399.8906-.891.8906h-.891c-.492,0-.89-.3987-.89-.8906v-5.3438c0-.4919.398-.8906.89-.8906h.891Z"/></g></g><g transform="translate(1.863145-16.545844)"><rect width="324" height="371" rx="4" ry="4" transform="translate(-3.516532 111.128626)" fill="#fff" stroke-width="0"/><g transform="translate(.062077-1.702827)"><text dx="0" dy="0" font-family="&quot;ee8ldHrkQGg1:::Urbanist&quot;" font-size="20" font-weight="700" transform="translate(11.315562-1.249146)" fill="#09070d"><tspan y="150.845" font-weight="700"><![CDATA[
Claim history
]]></tspan></text></g><g transform="matrix(1.2 0 0 1.2 323.343359 60.3722)"><g transform="translate(-262.471429 293.729148)"><rect width="251.666667" height="56.666667" rx="4" ry="4" transform="translate(0 0.411508)" fill="#fbfaff"/><g transform="translate(-17.542382-4.401753)"><text dx="0" dy="0" font-family="&quot;ee8ldHrkQGg1:::Open Sans&quot;" font-size="12" font-weight="500" transform="translate(27.804583 0.742223)" fill="#857c8f"><tspan y="26.1206" font-weight="500"><![CDATA[
🛡️ Claim #HOA-2024-7129
]]></tspan></text></g><g transform="translate(0-6.249999)" opacity="0"><rect width="87.5" height="21.875" rx="4" ry="4" transform="translate(157.389512 10.986942)" fill="#ffebe9" stroke-width="0"/><g transform="translate(-48.199281 1.235658)"><g><path d="M224.562,21.627c0,3.6225-2.94,6.5625-6.562,6.5625s-6.562-2.94-6.562-6.5625s2.94-6.5625,6.562-6.5625s6.562,2.94,6.562,6.5625Z" fill="none" stroke="#fd3f00" stroke-linecap="round" stroke-linejoin="round"/><path d="M218,17.6895v3.75" fill="none" stroke="#fd3f00" stroke-linecap="round" stroke-linejoin="round"/><path d="M215.75,13.1895h4.5" fill="none" stroke="#fd3f00" stroke-linecap="round" stroke-linejoin="round" stroke-miterlimit="10"/></g><text dx="0" dy="0" font-family="&quot;ee8ldHrkQGg1:::Open Sans&quot;" font-size="12" font-weight="400" transform="translate(229.442114-1.08202)" fill="#fd3f00"><tspan y="26.1206" font-weight="400"><![CDATA[
Processing
]]></tspan></text></g></g><g transform="translate(-56.413987-135.452706)"><rect width="71.666667" height="21.875" rx="4" ry="4" transform="translate(230.00952 142.793464)" fill="#80ff8c" fill-opacity="0.21" stroke-width="0"/><text dx="0" dy="0" font-family="&quot;ee8ldHrkQGg1:::Open Sans&quot;" font-size="12" font-weight="400" transform="translate(255.405627-.339846)" fill="#1f6424"><tspan y="159.121" font-weight="400"><![CDATA[
Settled
]]></tspan></text><path d="M245,148c2.209,0,4,1.791,4,4v4c0,2.209-1.791,4-4,4h-4c-2.209,0-4-1.791-4-4v-4c0-2.209,1.791-4,4-4h4Z" fill="#e1fbe6" stroke="#68cb71" stroke-linecap="round" stroke-linejoin="round"/><path d="M240,153.5l2.5,3L246,152" fill="none" stroke="#1f6424" stroke-linecap="round" stroke-linejoin="round" stroke-dasharray="9.61"/></g><text dx="0" dy="0" font-family="&quot;ee8ldHrkQGg1:::Open Sans&quot;" font-size="14" font-weight="600" transform="translate(10.262201-12.507278)" fill="#100e17"><tspan y="60.1724" font-size="14" font-weight="600"><![CDATA[
Theft claim 
]]></tspan><tspan y="60.1724" font-size="12" font-weight="400"><![CDATA[
(Electronics)
]]></tspan><tspan y="60.1724" font-size="14" font-weight="600"><![CDATA[
 
]]></tspan></text></g><g transform="translate(-260.365571 200.743233)"><rect width="251.666667" height="95" rx="4" ry="4" transform="translate(-2.105858-9.772743)" fill="#fbfaff"/><g transform="translate(-21.276143-14.939553)"><text dx="0" dy="0" font-family="&quot;ee8ldHrkQGg1:::Open Sans&quot;" font-size="12" font-weight="500" transform="translate(29.432486 1.59618)" fill="#857c8f"><tspan y="26.1206" font-weight="500"><![CDATA[
🏠 Claim #HOA-2024-9584
]]></tspan></text></g><g transform="translate(0-6.249999)" opacity="0"><rect width="87.5" height="21.875" rx="4" ry="4" transform="translate(157.389512 10.986942)" fill="#ffebe9" stroke-width="0"/><g transform="translate(-48.199281 1.235658)"><g><path d="M224.562,21.627c0,3.6225-2.94,6.5625-6.562,6.5625s-6.562-2.94-6.562-6.5625s2.94-6.5625,6.562-6.5625s6.562,2.94,6.562,6.5625Z" fill="none" stroke="#fd3f00" stroke-linecap="round" stroke-linejoin="round"/><path d="M218,17.6895v3.75" fill="none" stroke="#fd3f00" stroke-linecap="round" stroke-linejoin="round"/><path d="M215.75,13.1895h4.5" fill="none" stroke="#fd3f00" stroke-linecap="round" stroke-linejoin="round" stroke-miterlimit="10"/></g><text dx="0" dy="0" font-family="&quot;ee8ldHrkQGg1:::Open Sans&quot;" font-size="12" font-weight="400" transform="translate(229.442114-1.08202)" fill="#fd3f00"><tspan y="26.1206" font-weight="400"><![CDATA[
Processing
]]></tspan></text></g></g><g transform="translate(-58.519845-143.819506)"><rect width="71.666667" height="21.875" rx="4" ry="4" transform="translate(229.556644 142.793464)" fill="#80ff8c" fill-opacity="0.18" stroke-width="0"/><text dx="0" dy="0" font-family="&quot;ee8ldHrkQGg1:::Open Sans&quot;" font-size="12" font-weight="400" transform="translate(255.405627-.339846)" fill="#1f6424"><tspan y="159.121" font-weight="400"><![CDATA[
Settled
]]></tspan></text><path d="M245,148c2.209,0,4,1.791,4,4v4c0,2.209-1.791,4-4,4h-4c-2.209,0-4-1.791-4-4v-4c0-2.209,1.791-4,4-4h4Z" fill="#e1fbe6" stroke="#68cb71" stroke-linecap="round" stroke-linejoin="round"/><path d="M240,153.5l2.5,3L246,152" fill="none" stroke="#1f6424" stroke-linecap="round" stroke-linejoin="round" stroke-dasharray="9.61"/></g><text dx="0" dy="0" font-family="&quot;ee8ldHrkQGg1:::Open Sans&quot;" font-size="14" font-weight="600" transform="translate(8.605924-22.746822)" fill="#100e17"><tspan y="60.1724" font-size="14" font-weight="600"><![CDATA[
Property damage 
]]></tspan><tspan y="60.1724" font-size="12" font-weight="400"><![CDATA[
(Roof repair)
]]></tspan><tspan y="60.1724" font-size="14" font-weight="600"><![CDATA[
 
]]></tspan></text><g transform="translate(-2.957955-29.850853)"><g><g><text dx="0" dy="0" font-family="&quot;ee8ldHrkQGg1:::Open Sans&quot;" font-size="10" font-weight="400" transform="translate(3.114298 0.15219)" fill="#65707b"><tspan x="8" y="87.0688" font-family="&quot;ee8ldHrkQGg1:::Open Sans&quot;" font-size="10" font-weight="400" font-style="normal" fill="#65707b"><![CDATA[
Creation date
]]></tspan></text><text dx="0" dy="0" font-family="&quot;ee8ldHrkQGg1:::Open Sans&quot;" font-size="12" font-weight="600" transform="translate(11.726967-4.716595)" fill="#333"><tspan y="107.845" font-weight="600"><![CDATA[
4/22/2024
]]></tspan></text></g></g></g></g><g transform="translate(-260.93592 90.438839)"><rect width="251.666667" height="95" rx="4" ry="4" transform="translate(-1.53551-2.115875)" fill="#fbfaff"/><g transform="translate(-5.053737-4.769486)"><g id="ee8ldHrkQGg125" transform="translate(24.724251-1.139762)"><rect width="67.5" height="21.875" rx="4" ry="4" transform="translate(157.389512 10.986942)" fill="#ff8c80" fill-opacity="0.18" stroke-width="0"/><g transform="translate(-68.719278 1.235658)"><text dx="0" dy="0" font-family="&quot;ee8ldHrkQGg1:::Open Sans&quot;" font-size="12" font-weight="400" transform="translate(229.442114-1.08202)" fill="#e62511"><tspan y="26.1206" font-weight="400"><![CDATA[
Processing
]]></tspan></text></g></g><g id="ee8ldHrkQGg130" transform="matrix(.93 0 0 0.93-34.049359-103.023962)" opacity="0"><rect width="71.666667" height="21.875" rx="4" ry="4" transform="translate(230.009521 142.793464)" fill="#e1fbe6" stroke-width="0"/><text dx="0" dy="0" font-family="&quot;ee8ldHrkQGg1:::Open Sans&quot;" font-size="12" font-weight="400" transform="translate(255.405627-.339846)" fill="#1f6424"><tspan y="159.121" font-weight="400"><![CDATA[
Settled
]]></tspan></text><path d="M245,148c2.209,0,4,1.791,4,4v4c0,2.209-1.791,4-4,4h-4c-2.209,0-4-1.791-4-4v-4c0-2.209,1.791-4,4-4h4Z" transform="translate(.000003 0)" fill="#e1fbe6" stroke="#68cb71" stroke-linecap="round" stroke-linejoin="round"/><path id="ee8ldHrkQGg135" d="M240,153.5l2.5,3L246,152" fill="none" stroke="#1f6424" stroke-linecap="round" stroke-linejoin="round" stroke-dashoffset="9.61" stroke-dasharray="9.61"/></g><text dx="0" dy="0" font-family="&quot;ee8ldHrkQGg1:::Open Sans&quot;" font-size="12" font-weight="500" transform="matrix(1 0 0.017455 1 13.549511-.576882)" fill="#857c8f"><tspan y="26.1206" font-size="11" font-weight="500"><![CDATA[
🚿
]]></tspan><tspan y="26.1206" font-size="12" font-weight="500"><![CDATA[
 Claim #HOA-2025-0173
]]></tspan></text></g><text dx="0" dy="0" font-family="&quot;ee8ldHrkQGg1:::Open Sans&quot;" font-size="14" font-weight="600" transform="translate(8.726692-14.12289)" fill="#100e17"><tspan y="60.1724" font-size="14" font-weight="600"><![CDATA[
Water damage 
]]></tspan><tspan y="60.1724" font-size="12" font-weight="400"><![CDATA[
(Kitchen pipe leak)
]]></tspan><tspan y="60.1724" font-size="14" font-weight="600"><![CDATA[
 
]]></tspan></text><g transform="translate(-2.548756-22.075873)"><g><g><text dx="0" dy="0" font-family="&quot;ee8ldHrkQGg1:::Open Sans&quot;" font-size="10" font-weight="400" transform="translate(3.275448 0.15219)" fill="#65707b"><tspan x="8" y="87.0688" font-family="&quot;ee8ldHrkQGg1:::Open Sans&quot;" font-size="10" font-weight="400" font-style="normal" fill="#65707b"><![CDATA[
Creation date
]]></tspan></text><text dx="0" dy="0" font-family="&quot;ee8ldHrkQGg1:::Open Sans&quot;" font-size="12" font-weight="600" transform="translate(11.275447-4.716595)" fill="#333"><tspan y="107.845" font-weight="600"><![CDATA[
3/14/2025
]]></tspan></text></g></g></g></g></g></g><g transform="translate(2.625394 0)"><rect width="324" height="60" rx="4" ry="4" transform="translate(-4.278781 29.58278)" fill="#fff" stroke-width="0"/><g transform="translate(.274758-17.83322)"><g transform="translate(36.057475 1.476497)"><rect width="214" height="32" rx="16" ry="16" transform="translate(15.258087 61.1895)" fill="#f9f8ff"/><text dx="0" dy="0" font-family="&quot;ee8ldHrkQGg1:::Urbanist&quot;" font-size="14" font-weight="400" transform="translate(27.534817 0)" fill="#65727b"><tspan y="82.7895" font-weight="400"><![CDATA[
Search
]]></tspan></text></g><g transform="translate(-18.684438 0.226497)"><rect width="32" height="32" rx="16" ry="16" transform="translate(294 61.1895)" fill="#f9f8ff"/><g id="ee8ldHrkQGg159"><path d="M304.381,81.0361h11.239c.312,0,.489-.5008.305-.7877-.425-.6644-.839-1.6438-.839-2.8249l.018-1.6155c0-3.2044-2.285-5.8021-5.104-5.8021-2.778,0-5.03,2.56-5.03,5.7179l-.019,1.6997c0,1.173-.428,2.1471-.872,2.8113-.191.2862-.014.8013.302.8013Z" fill="#8d80ff"/><path d="M308,83.2988c.531.4397,1.232.7071,2,.7071s1.469-.2674,2-.7071" fill="none" stroke="#8d80ff" stroke-width="2" stroke-linecap="round" stroke-linejoin="round"/></g><ellipse id="ee8ldHrkQGg162" rx="3.002127" ry="3.002127" transform="matrix(0 0 0 0 313.980659 72.088385)" fill="#cf1e6d" stroke="#f9f8ff"/></g><g><circle r="16" transform="translate(25.315562 77.416)" fill="#8d80ff"/><g transform="matrix(1.236106 0 0 1.236106 6.252889 61.767698)"><path d="M21.5268,11.7825c-.1868-.3711-1.242-2.09397-1.4311-1.90254.0677-.0677.1285-.1424.1892-.24045.063-.09805-.0211-.20309-.1238-.21243-1.5781-.14007-3.462,1.33062-3.9779,2.73832-.2545.6933-.4412,1.7789-.1027,2.4699.3665.7446,1.0715.4715,1.6948.7773c1.403.6887,3.1142.4086,3.7888-1.1182.3432-.775.2661-1.6738-.014-2.4535-.0047-.0117-.014-.0303-.0257-.056l.0024-.0024Z" fill="#a8571e"/><path d="M23.6698,22.482759c-1.4871-.656-4.1904-1.009759-4.746-2.720859-.5089-1.5688-.3571-3.6838-.3431-5.3109c0-.1774-.1308-.2685-.2685-.2755-.1704-1.5221-1.6131-2.3531-3.1188-2.2364-1.7415.1377-3.0348,1.3937-3.4434,3.0465-.1214.0513-.2217.168-.1914.3315.2381,1.3119.6373,3.4363.1074,4.7436q-.3805.9384-4.58488,2.3624c-.3385.1401,6.24238,2.8784,8.11458,3.0115q2.8154.1984,8.4741-2.951841Z" fill="#ffa769"/><path d="M10.291,12.9988c-.1868-.2521-.44822-.698-.7517-.8147-.10972-.0421-.20311-.0164-.30583.0256-.08637.0374-.16574.0888-.25678.1238-.07704.028-.38519.1424-.43655.091-.13306-.1307-.33616.0747-.20309.2031.02334.0234.05135.0397.0817.0514.007.0046.01169.0116.02103.0163.53926.2545,1.09719.4272,1.68782.5136.1074.0163.2474-.0981.1634-.2124v.0023Z" fill="#a96636"/><path d="M17.7052,3.45563c-1.9913-2.39982-5.8244-1.0435-6.0042-.98748C7.80713,3.71709,8.40008,9.077,9.2755,12.1165c.41087,1.4263.7587,3.7281,2.2971,4.3794c1.333.565,3.1329.2381,4.4472-.1354c3.8845-1.1042,2.8573-4.767,3.0277-7.97916c0-.01168,0-.02101,0-.03035.3362-1.51973-.2754-3.60674-1.3423-4.89536Z" fill="#ffa769"/><path d="M19.7269,3.01204c-2.3181-3.02779-8.2033-2.822358-10.72688-.1424-1.07618,1.14388-2.07767,2.6893-2.6893,4.12966-1.07151,2.52121.00935,5.3179,2.80836,5.9412.69567.1541-.24278-1.8886-.28947-2.1757c0,0,2.96009-2.32281,3.64639-5.15918.0537-.22177.3549-.26145.4973-.0817c1.1252,1.43102,3.6254,2.2084,5.4229,2.771.0771.02335.1401.07704.1751.14941.3899.81239.733,1.64347,1.0248,2.50017.1144.3362.4296.1681.6233-.2357.8498-1.77657,1.1579-5.53972-.4925-7.69676Z" fill="#a8571e"/><path d="M19.7922,8.81324c-.3408-.31982-.6443.08871-.7844.38519-.2404.50891-.3408,1.05287-.3314,1.60847-.0794.3198-.0934.6256.0793.8544.1121.1494.3058.1984.4529.0583.3875-.3688.5556-.8474.6583-1.3609.0841-.41791.2848-1.20929-.0747-1.54312v-.00234Z" fill="#ffa769"/><path d="M9.57665,12.3125c-.0607-.7004-.12841-1.982-.13308-1.9773-.17742.1377-.47857.2848-.677.4575-.03268.0281-.00233.2708.01168.3152.03502.1004.06771.1984.09572.2848.0747.2381.38284,1.4077.74702,1.4497-.01401-.1728-.02803-.3478-.04204-.5276l-.0023-.0023Z" fill="#ffa769"/><path d="M23.820107,22.4231c-.956302.8871-3.80198,3.120468-8.731807,3.120468s-8.19625-3.202068-8.19625-3.202068s3.037239-1.082925,3.989739-1.638525c.5766-.3362.830911-2.437475.842611-2.558875-.0187-.0934.0537-.2054.1727-.1727c2.1897.6162,4.4658.5065,6.5879-.3082.049-.0187.0863-.0093.1167.0117.0373.0117.0677.042.0747.0957.077.5579.1191,1.1415.2381,1.6925.1564.7307.5626,1.0995,1.1953,1.466.9991.579,2.629507,1.0924,3.710307,1.494Z" transform="translate(0 0.059659)" fill="#3d3d4f"/><path d="M12.3523,21.2348c1.8629.705,3.9079.6723,5.7451-.1004.2171-.091.1214-.4482-.098-.3572-1.7836.7494-3.7398.7844-5.549.1004-.2218-.084-.3199.2731-.0981.3572Z" fill="#210d0d"/><path d="M16.1692,9.92895c-.0957-.36884-.3712-.684-.6957-.51825-.4926.25212-.2545,1.4193.3151,1.3446.3899-.0513.4739-.4622.3806-.82635Z" fill="#280d0d"/><path d="M12.2776,10.627c-.0957-.3688-.3712-.68399-.6957-.5182-.4925.2521-.2544,1.4193.3152,1.3446.3898-.0514.4739-.4622.3805-.8264Z" fill="#280d0d"/><path d="M12.9079,10.536c-.3384.586-.0816,1.2303.4903,1.5384.2101.1121.3968-.2054.1867-.3198-.3945-.2124-.6022-.614-.3571-1.0318.119-.2055-.2008-.3922-.3199-.1868Z" fill="#cc6441"/><path d="M14.2059,11.6565c.0794-.0887.2194-.1121.3268-.0584.2124.1074.3992-.2124.1868-.3198-.2498-.126-.579-.098-.7751.1167-.1587.1751.1004.4389.2615.2615Z" fill="#cc6441"/><path d="M18.9705,9.5066c.0304.48323-.07.9851-.1214,1.4637-.0257.2358.3455.2335.3688,0c.0514-.4786.1495-.9828.1214-1.4637-.014-.23578-.3851-.23812-.3688,0Z" fill="#cc6441"/><path d="M15.3941,12.3966c-.1447-.0326-.4669.0934-.5346.1121-.3431.0957-.698.2148-1.0505.2685-.3502.0513-.719.0093-1.0692-.0187-.1144-.0094-.1611.0443-.1074.1424.0047.0093.0117.0163.0187.0257.2358.3688.8077.5065,1.2653.4902.3081-.0093.6163-.091.8778-.2381.1727-.0957.3454-.2031.4808-.3478.0747-.0794.1424-.1891.1775-.2918.0303-.0864,0-.1284-.0607-.1401l.0023-.0024Z" fill="#bf5239"/><path d="M18.0834,14.8968c-.4599,1.0669-1.3306,1.4754-2.4091,1.7369-1.1603.2824-2.3555.3595-3.5157.0397-.2288-.0631-.3269.2941-.0981.3571c1.2933.3572,2.6309.2451,3.9172-.091c1.0972-.2872,1.961-.7797,2.4232-1.8536.0934-.2171-.2264-.4038-.3198-.1867l.0023-.0024Z" fill="#cc6441"/><path d="M16.8414,8.32757c-.0513-.11672-.1587-.2101-.2801-.25912-.4669-.18442-.9921-.21711-1.473-.06303-.3619.11438-.7634.43887-.6467.86841.1377.50658.6327.19843.9291.07704.4226-.17275,1.2139.15408,1.4591-.32916.0513-.10271.049-.20543.0093-.29414h.0023Z" fill="#a8571e"/><path d="M10.0156,9.5134c0-.12606.0653-.2568.1587-.34784.3595-.35017.831-.58361,1.333-.62797.3781-.03502.873.10972.9314.55093.07.52059-.5066.42721-.8264.42955-.4552.00466-1.0598.61393-1.473.26379-.0887-.07471-.1237-.17042-.1237-.26846Z" fill="#a8571e"/><path d="M17.2501,3.39028c1.5571,1.08086,2.3694,2.95309,2.1243,4.82766-.021.15641.2265.15641.2475,0c.2544-1.96328-.6233-3.91255-2.2458-5.04009-.1307-.09105-.2544.12373-.1237.21243h-.0023Z" fill="#85401b"/><path d="M9.78436,3.8361C8.22494,5.74335,6.19398,8.77115,8.3697,11.0309c.10971.1144.2848-.0607.17508-.1751-2.06833-2.14768-.05371-5.05175,1.41467-6.84695.10035-.12139-.07471-.29647-.17509-.17508v.00233Z" fill="#85401b"/><path d="M19.5238,12.1095c.3525.2381.6817.5673.733,1.0085.049.4248-.1914.8334-.6256.9174-.1564.0304-.0887.2685.0653.2381.4763-.091.7961-.5206.8171-.9991.0234-.5953-.4039-1.0669-.8661-1.3773-.1331-.0888-.2544.1237-.1237.2124Z" fill="#85401b"/><path d="M20.0257,5.42589c.3992.79138.3945,1.67614-.0117,2.46285-.0723.14007.1401.26613.2125.12373.4482-.87075.4505-1.83955.0116-2.71264-.0723-.1424-.2848-.01634-.2124.12373v.00233Z" fill="#85401b"/><path d="M10.6388,8.74314c-.1961.19143-.3782.39219-.5486.60462-.09803.12373.0747.29881.1751.17509.1704-.21244.3548-.41553.5486-.60463.1144-.10972-.0607-.2848-.1751-.17508Z" fill="#85401b"/></g></g></g><g id="ee8ldHrkQGg189" transform="matrix(.93 0 0 0.93-160.778493-30.275625)" opacity="0"><polygon points="26.769955,-11.31345 63.337646,52.247844 -9.797735,52.247844 26.769955,-11.31345" transform="matrix(.150406 0 0 0.150406 473.473638 87.105499)" fill="#8d80ff" stroke-width="0"/><rect width="288" height="48" rx="4" ry="4" transform="translate(228.715637 99.625274)" opacity="0.14" filter="url(#ee8ldHrkQGg191-filter)" fill="#8d80ff" stroke-width="0"/><rect width="288" height="48" rx="4" ry="4" transform="translate(224.538529 94.403889)" fill="#8d80ff" stroke-width="0"/><text dx="0" dy="0" font-family="&quot;ee8ldHrkQGg1:::Open Sans&quot;" font-size="14" font-weight="600" transform="translate(234.497886 63.619032)" fill="#fff"><tspan y="60.1724" font-weight="600"><![CDATA[
Your claim #HOA-2025-0173 was settled
]]></tspan></text></g></g></g></g></g>
<script><![CDATA[
(function(s,i,u,o,c,w,d,t,n,x,e,p,a,b){(a=Array.from(d.querySelectorAll('svg#' + i.root)).filter(n=> !n.svgatorPlayer)[0]||{}).svgatorPlayer={ready:(function(a){b=[];return function(c){return c?(b.push(c),a.svgatorPlayer):b}})(a)};w[o]=w[o]||{};w[o][s]=w[o][s]||[];w[o][s].push(i);e=d.createElementNS(n,t);e.async=true;e.setAttributeNS(x,'href',[u,s,'.','j','s','?','v','=',c].join(''));e.setAttributeNS(null,'src',[u,s,'.','j','s','?','v','=',c].join(''));p=d.getElementsByTagName(t)[0];p.parentNode.insertBefore(e,p);})('91c80d77',{"root":"ee8ldHrkQGg1","version":"2025-04-07","animations":[{"elements":{"ee8ldHrkQGg3":{"transform":{"data":{"t":{"x":-410.669907,"y":-204.119362}},"keys":{"o":[{"t":0,"v":{"x":356.6343,"y":207.299963,"type":"corner"},"e":[0.39,0.575,0.565,1]},{"t":500,"v":{"x":461.770375,"y":175.339074,"type":"corner"}},{"t":5000,"v":{"x":461.770375,"y":175.339074,"type":"corner"}},{"t":5500,"v":{"x":600.6343,"y":227.429146,"type":"corner"},"e":[0.175,0.885,0.32,1.275]}],"s":[{"t":0,"v":{"x":0.84,"y":0.84},"e":[0.39,0.575,0.565,1]},{"t":500,"v":{"x":1.14,"y":1.14}},{"t":5000,"v":{"x":1.14,"y":1.14}},{"t":5500,"v":{"x":0.93,"y":0.93},"e":[0.260516,0.517404,0.49444,0.862484]}]}},"opacity":[{"t":0,"v":0,"e":[0.39,0.575,0.565,1]},{"t":500,"v":1},{"t":5000,"v":1},{"t":5300,"v":0,"e":[0.68,-0.55,0.265,1.55]}]},"ee8ldHrkQGg4":{"transform":{"data":{"s":{"x":0.84,"y":0.84},"t":{"x":-167,"y":-259.720001}},"keys":{"o":[{"t":200,"v":{"x":339.823086,"y":244.714915,"type":"corner"},"e":[0.405365,0.4954,0.624911,0.883339]},{"t":700,"v":{"x":369.588556,"y":256.849441,"type":"corner"}},{"t":5500,"v":{"x":369.588556,"y":256.849441,"type":"corner"}}],"k":[{"t":200,"v":{"x":-4,"y":-1}},{"t":700,"v":{"x":-4,"y":1}}]}}},"ee8ldHrkQGg26":{"transform":{"data":{"s":{"x":0.84,"y":0.84},"t":{"x":-167,"y":-259.720001}},"keys":{"o":[{"t":100,"v":{"x":286.6343,"y":237.299963,"type":"corner"},"e":[0.39,0.575,0.565,1]},{"t":600,"v":{"x":312.148853,"y":249.400233,"type":"corner"}},{"t":5500,"v":{"x":312.148853,"y":249.400233,"type":"corner"}}],"k":[{"t":100,"v":{"x":-4,"y":-1}},{"t":600,"v":{"x":-3,"y":1}}]}}},"ee8ldHrkQGg125":{"opacity":[{"t":2600,"v":1,"e":[0.68,-0.55,0.265,1.55]},{"t":3000,"v":0}]},"ee8ldHrkQGg130":{"transform":{"data":{"t":{"x":-269.234314,"y":-153.652115}},"keys":{"o":[{"t":2700,"v":{"x":216.338553,"y":39.872505,"type":"corner"}},{"t":3100,"v":{"x":216.338553,"y":20.705838,"type":"corner"}}],"s":[{"t":2700,"v":{"x":0.93,"y":0.93}},{"t":3000,"v":{"x":1,"y":1}}]}},"opacity":[{"t":2700,"v":0,"e":[0.42,0,0.58,1]},{"t":3100,"v":1}]},"ee8ldHrkQGg135":{"stroke-dashoffset":[{"t":1500,"v":9.61,"e":[0.42,0,0.58,1]},{"t":2200,"v":0}],"stroke-dasharray":[{"t":1500,"v":[9.61],"e":[0.42,0,0.58,1]},{"t":2200,"v":[9.61]}]},"ee8ldHrkQGg159":{"transform":{"data":{"o":{"x":309.999832,"y":77.005898,"type":"corner"},"t":{"x":-309.999832,"y":-77.005898}},"keys":{"r":[{"t":1500,"v":0},{"t":1800,"v":18.304309},{"t":2000,"v":-9.102785},{"t":2200,"v":5.286114},{"t":2300,"v":-6.812626},{"t":2400,"v":10.452579},{"t":2600,"v":-9.222543},{"t":2700,"v":3.893082},{"t":2800,"v":0}]}}},"ee8ldHrkQGg162":{"transform":{"data":{"o":{"x":313.980659,"y":72.088385,"type":"corner"}},"keys":{"s":[{"t":1700,"v":{"x":0,"y":0}},{"t":2000,"v":{"x":1,"y":1}}]}}},"ee8ldHrkQGg189":{"transform":{"data":{"t":{"x":-369,"y":-118.403896}},"keys":{"o":[{"t":2100,"v":{"x":182.391507,"y":79.839998,"type":"corner"},"e":[0.175,0.885,0.32,1.275]},{"t":2500,"v":{"x":182.391507,"y":112.839998,"type":"corner"}}],"s":[{"t":2100,"v":{"x":0.93,"y":0.93}},{"t":2400,"v":{"x":1,"y":1}}]}},"opacity":[{"t":2100,"v":0},{"t":2400,"v":1}]}},"s":"MDKA1ZGIwNTc5OWWFhYTc5NmE5ROWVWYTRhMzUX3NmY2YTZhQzEY1NjU2MVY1NCzk5OWVJYTc5YYTk4YTk5ZWEQ0YTM1NzZmNjGY2MTU3OWVhOLTlhYTc5NmE5QQTllYTRhM2EE4QjU3NmY2NTGYxNTc5YjllYMTFhMTU3NmY2VNjYxNTc5NmEMxYTk5YWE3YTSM5NmE5OWE1NYzZmOWI5NmExCRGE4OWFCNjEQ1N2E4YTU5YTAlhOTk1NzZmNFjZBNjE1NzliNYTVhODU3NmYP2NjY1NjViMgQ|"}],"options":"MDGAxMDgyMjk3YCTdiNjg3OTdiGMjk0MTI5NzMB3NjY4SzZiVjXI5ODQ/"},'https://cdn.svgator.com/ply/','__SVGATOR_PLAYER__','2025-04-07',window,document,'script','http://www.w3.org/2000/svg','http://www.w3.org/1999/xlink')
]]></script>

<style><![CDATA[
@font-face {font-family: 'ee8ldHrkQGg1:::Open Sans';font-style: normal;font-weight: 400;font-stretch: normal;src: url(https://fonts.gstatic.com/l/font?kit=memSYaGs126MiZpBA-UvWbX2vVnXBbObj2OVZyOOSr4dVJWUgsjZ0C4nexse5oE5Ux9oqCwMLbzeNIsQYZbi5Tf0J7m0mNyUpR6Mt657pcD8F1Kc7EGxfipcER_bbA1ddA0NhqkeCFpMYX_4FRLDbGNZb_opWsI1&skey=62c1cbfccc78b4b2&v=v43) format('truetype');}@font-face {font-family: 'ee8ldHrkQGg1:::Open Sans';font-style: normal;font-weight: 500;font-stretch: normal;src: url(https://fonts.gstatic.com/l/font?kit=memSYaGs126MiZpBA-UvWbX2vVnXBbObj2OVZyOOSr4dVJWUgsjr0C4nexse5oE5Ux9oqCwMLbzeNIsQYZbi5Tf0J7m0mNyUpR6Mt657pcD8F1Kc7EGxfipcER_bbA1ddA0NhqkeCFpMYX_4FRLDbGNZb_opWsI1&skey=62c1cbfccc78b4b2&v=v43) format('truetype');}@font-face {font-family: 'ee8ldHrkQGg1:::Open Sans';font-style: normal;font-weight: 600;font-stretch: normal;src: url(https://fonts.gstatic.com/l/font?kit=memSYaGs126MiZpBA-UvWbX2vVnXBbObj2OVZyOOSr4dVJWUgsgH1y4nexse5oE5Ux9oqCwMLbzeNIsQYZbi5Tf0J7m0mNyUpR6Mt657pcD8F1Kc7EGxfipcER_bbA1ddA0NhqkeCFpMYX_4FRLDbGNZb_opWsI1&skey=62c1cbfccc78b4b2&v=v43) format('truetype');}@font-face {font-family: 'ee8ldHrkQGg1:::Roboto';font-style: normal;font-weight: 600;font-stretch: normal;src: url(https://fonts.gstatic.com/l/font?kit=KFOMCnqEu92Fr1ME7kSn66aGLdTylUAMQXC89YmC2DPNWuYaammTmkP-tXQP8kEZ40pF3vP1csjTeWF4dY3MntxQ3VDXXiDG-ylJgmd6ZgGN-PeF3rA3RJVAGlOsdOe_jI0dShdeM1qXk3NqY-rkT_cPjrQR&skey=a0a0114a1dcab3ac&v=v48) format('truetype');}@font-face {font-family: 'ee8ldHrkQGg1:::Urbanist';font-style: normal;font-weight: 400;src: url(https://fonts.gstatic.com/l/font?kit=L0xjDF02iFML4hGCyOCpRdycFsGxSrqDyx4fFovjY-aVA7GaZ7QdSbQWOBhspf9hG8hb2NmMO-AWDKJq2iRzp2278J2zK-wGcgDtHE8q7yCx_FWjfvg-7mUtNKzg0WfFaRe08rVE2FvqoQ&skey=1cdbdfe57ba870bf&v=v17) format('truetype');}@font-face {font-family: 'ee8ldHrkQGg1:::Urbanist';font-style: normal;font-weight: 700;src: url(https://fonts.gstatic.com/l/font?kit=L0xjDF02iFML4hGCyOCpRdycFsGxSrqDLBkfFovjY-aVA7GaZ7QdSbQWOBhspf9hG8hb2NmMO-AWDKJq2iRzp2278J2zK-wGcgDtHE8q7yCx_FWjfvg-7mUtNKzg0WfFaRe08rVE2FvqoQ&skey=1cdbdfe57ba870bf&v=v17) format('truetype');}
]]></style>
</svg>
