<svg id="eRNHuhEBagO1" xmlns="http://www.w3.org/2000/svg" xmlns:xlink="http://www.w3.org/1999/xlink" viewBox="0 0 894 504" shape-rendering="geometricPrecision" text-rendering="geometricPrecision" project-id="c4b843cab79f414c8309b5656bd94e2d" export-id="b821a1d743d64d0a8a082fd511e0c1fc" cached="false" width="894" height="504"><defs><linearGradient id="eRNHuhEBagO12-stroke" x1="920.224" y1="694.516" x2="1013.62" y2="314.846" spreadMethod="pad" gradientUnits="userSpaceOnUse" gradientTransform="translate(0 0)"><stop id="eRNHuhEBagO12-stroke-0" offset="0%" stop-color="rgba(69,175,238,0.01)"/><stop id="eRNHuhEBagO12-stroke-1" offset="3.75866%" stop-color="rgba(67,177,236,0.615533)"/><stop id="eRNHuhEBagO12-stroke-2" offset="8.05049%" stop-color="rgba(65,179,233,0.767526)"/><stop id="eRNHuhEBagO12-stroke-3" offset="14.6149%" stop-color="#3eb7e5"/><stop id="eRNHuhEBagO12-stroke-4" offset="74.7659%" stop-color="#23dbbd"/><stop id="eRNHuhEBagO12-stroke-5" offset="84.2081%" stop-color="rgba(30,224,183,0.852977)"/><stop id="eRNHuhEBagO12-stroke-6" offset="89.6184%" stop-color="rgba(28,228,179,0.768733)"/><stop id="eRNHuhEBagO12-stroke-7" offset="92.7591%" stop-color="rgba(27,229,177,0.144475)"/><stop id="eRNHuhEBagO12-stroke-8" offset="100%" stop-color="rgba(23,234,172,0.01)"/></linearGradient><linearGradient id="eRNHuhEBagO13-stroke" x1="682.416" y1="622.067" x2="710.937" y2="342.228" spreadMethod="pad" gradientUnits="userSpaceOnUse" gradientTransform="translate(0 0)"><stop id="eRNHuhEBagO13-stroke-0" offset="0%" stop-color="rgba(241,133,134,0.01)"/><stop id="eRNHuhEBagO13-stroke-1" offset="12.4227%" stop-color="#f78d7d"/><stop id="eRNHuhEBagO13-stroke-2" offset="100%" stop-color="rgba(255,159,70,0.01)"/></linearGradient><linearGradient id="eRNHuhEBagO14-stroke" x1="1450" y1="393" x2="1305.81" y2="886.539" spreadMethod="pad" gradientUnits="userSpaceOnUse" gradientTransform="translate(0 0)"><stop id="eRNHuhEBagO14-stroke-0" offset="0%" stop-color="rgba(255,68,214,0.01)"/><stop id="eRNHuhEBagO14-stroke-1" offset="19.4726%" stop-color="#ff7979"/><stop id="eRNHuhEBagO14-stroke-2" offset="39.1043%" stop-color="#ff4dca"/><stop id="eRNHuhEBagO14-stroke-3" offset="94.0665%" stop-color="#fc6aa4"/><stop id="eRNHuhEBagO14-stroke-4" offset="100%" stop-color="rgba(227,78,129,0.594203)"/></linearGradient><filter id="eRNHuhEBagO19-filter" x="-150%" y="-150%" width="400%" height="400%"><feGaussianBlur id="eRNHuhEBagO19-filter-blur-0" stdDeviation="10,10" result="result"/></filter><filter id="eRNHuhEBagO34-filter" x="-150%" y="-150%" width="400%" height="400%"><feGaussianBlur id="eRNHuhEBagO34-filter-blur-0" stdDeviation="10,10" result="result"/></filter><linearGradient id="eRNHuhEBagO175-stroke" x1="49.999" y1="222.22" x2="49.999" y2="1" spreadMethod="pad" gradientUnits="userSpaceOnUse" gradientTransform="translate(0 0)"><stop id="eRNHuhEBagO175-stroke-0" offset="0%" stop-color="rgba(0,222,163,0)"/><stop id="eRNHuhEBagO175-stroke-1" offset="45.7573%" stop-color="#00dea3"/><stop id="eRNHuhEBagO175-stroke-2" offset="100%" stop-color="rgba(0,222,163,0)"/></linearGradient></defs><g transform="translate(88.037109 47.504524)"><g id="eRNHuhEBagO3" transform="matrix(.93 0 0 0.93-34.197771 26.257706)" opacity="0"><g id="eRNHuhEBagO4" transform="matrix(1 0-.034921 1-37.233181-18.656844)" opacity="0.78"><rect width="864.178489" height="454.07989" rx="12" ry="12" transform="matrix(.914163 0 0 0.978814-4.153565-.898735)" fill="#fff"/><g transform="translate(-637.111858-39.186253)"><path d="M1377,859c-17,32-31,0-40,8.5-12.22,11.545-15.4-8.5-25-8.5" transform="matrix(.6 0 0 0.6 578.962583-151.766336)" fill="none" stroke="#ff5793" stroke-width="3" stroke-linecap="round" stroke-linejoin="round"/><text dx="0" dy="0" font-family="&quot;eRNHuhEBagO1:::Open Sans&quot;" font-size="11" font-weight="400" transform="translate(1368.381846-459.331096)" fill="#2bb596"><tspan y="805.669" font-weight="400"><![CDATA[
+75.69%
]]></tspan></text><text dx="0" dy="0" font-family="&quot;eRNHuhEBagO1:::Open Sans&quot;" font-size="12" font-weight="400" letter-spacing="0.43" transform="matrix(.6 0 0 0.6 1380.703589 38.852804)" fill="#6f6c99"><tspan y="690.434" font-weight="400"><![CDATA[
7:59AM
]]></tspan></text><path d="M1225,489.78l63.45-56.968c5.5-4.937,13.77-5.134,19.5-.463l20.93,17.068c4.37,3.563,10.37,4.375,15.53,2.102l28.34-12.488c2.14-.943,4.03-2.373,5.51-4.176L1412,394" transform="matrix(.6 0 0 0.6 553.763404-53.721426)" fill="none" stroke="url(#eRNHuhEBagO12-stroke)" stroke-width="2" stroke-linecap="round" stroke-linejoin="round"/><path d="M1196,464l31.82,12.726c14.46,5.784,30.86,3.859,43.59-5.116L1329,431" transform="matrix(.6 0 0 0.6 614.964086-59.653734)" fill="none" stroke="url(#eRNHuhEBagO13-stroke)" stroke-width="2" stroke-linecap="round" stroke-linejoin="round"/><path d="M1261,389.053l31.2,10.384c3.72,1.238,7.77.971,11.3-.745l28.28-13.766c2.75-1.337,5.84-1.803,8.86-1.337l31.77,4.909c2.36.365,4.77.16,7.04-.596L1412,377.033" transform="matrix(.6 0 0 0.6 558.210162-48.101769)" fill="none" stroke="url(#eRNHuhEBagO14-stroke)" stroke-width="4" stroke-linecap="round" stroke-linejoin="round"/><text dx="0" dy="0" font-family="&quot;eRNHuhEBagO1:::Open Sans&quot;" font-size="13" font-weight="400" transform="translate(1298.62738 0.837907)" fill="#6f6c99"><tspan y="59.927" font-weight="400"><![CDATA[
Pixelz Warrios
]]></tspan></text><path d="M1401.45,54.4479l-2.95,3-2.95-3" fill="none" stroke="#6f6c99" stroke-width="2"/></g></g><g id="eRNHuhEBagO18" transform="matrix(.6 0-.010473 0.6-59.289326-84.681623)" opacity="0.88"><rect width="1316.666667" height="744.409614" rx="18" ry="18" transform="translate(40.415199 117.090615)" opacity="0.14" filter="url(#eRNHuhEBagO19-filter)" fill="#62b9d5"/><rect width="1316.666667" height="744.409614" rx="18" ry="18" transform="translate(22.27681 107.381877)" fill="#fff"/><g transform="matrix(.8 0 0 0.8 194.096818 84.929424)"><rect width="379" height="50" rx="25" ry="25" transform="translate(1037.988862 70.317156)" fill="#f5f3f3"/><rect width="270" height="415" rx="25" ry="25" transform="translate(1146 490)" fill="#f9fcff"/><line x1="1179" y1="582.5" x2="1395" y2="582.5" transform="translate(12.135924 0)" fill="none" stroke="#eaeaea"/><rect width="61" height="25" rx="12.5" ry="12.5" transform="translate(1344.135924 646)" fill="#ffcbea"/><rect width="61" height="25" rx="12.5" ry="12.5" transform="translate(1344.135924 711)" fill="#d3f3d4"/><rect width="61" height="25" rx="12.5" ry="12.5" transform="translate(1344.135924 775)" fill="#ffcbea"/><rect width="61" height="25" rx="12.5" ry="12.5" transform="translate(1344.135924 839)" fill="#d3f3d4"/><rect width="270" height="267" rx="25" ry="25" transform="translate(1146 197)" fill="#fafdff"/><text dx="0" dy="0" font-family="&quot;eRNHuhEBagO1:::Open Sans&quot;" font-size="16" font-weight="400" fill="#2c2c2c"><tspan x="1198.48" y="305.207" font-family="&quot;eRNHuhEBagO1:::Open Sans&quot;" font-size="16" font-weight="400" font-style="normal" fill="#2c2c2c"><![CDATA[
Meet your agents and see 
]]></tspan><tspan x="1185.42" y="329.207" font-family="&quot;eRNHuhEBagO1:::Open Sans&quot;" font-size="16" font-weight="400" font-style="normal" fill="#2c2c2c"><![CDATA[
thier ranks to get best results.
]]></tspan></text></g></g><g transform="translate(-43.297648-21.562312)"><rect width="795.145631" height="449.514563" rx="12" ry="12" transform="translate(3.134312 5.422679)" opacity="0.14" filter="url(#eRNHuhEBagO34-filter)" fill="#62b9d5"/><rect width="795.145631" height="449.514563" rx="12" ry="12" transform="translate(-7.447464-.101684)" fill="#fff"/><g><g id="eRNHuhEBagO37" transform="translate(0-12.189217)"><rect width="778" height="359" rx="4" ry="4" transform="translate(1.000008 92.958422)" fill="#fff"/><g opacity="0.48"><rect width="64" height="317.726192" rx="0" ry="0" transform="translate(389.923741 112.520648)" fill="none" stroke="#e6e6e6"/><rect width="64" height="317.726192" rx="0" ry="0" transform="translate(325.923741 112.520648)" fill="none" stroke="#e6e6e6"/><rect width="64" height="317.726192" rx="0" ry="0" transform="translate(261.92374 112.520648)" fill="none" stroke="#e6e6e6"/><path d="M0,317.726192L0,0" transform="translate(709.923742 112.520648)" fill="none" stroke="#e6e6e6"/><rect width="64" height="317.726192" rx="0" ry="0" transform="translate(645.923742 112.520648)" fill="none" stroke="#e6e6e6"/><rect width="64" height="317.726192" rx="0" ry="0" transform="translate(581.923742 112.520648)" fill="none" stroke="#e6e6e6"/><rect width="64" height="317.726192" rx="0" ry="0" transform="translate(517.923742 112.520648)" fill="none" stroke="#e6e6e6"/><rect width="64" height="317.726192" rx="0" ry="0" transform="translate(453.923741 112.520648)" fill="none" stroke="#e6e6e6"/><rect width="64" height="317.726192" rx="0" ry="0" transform="translate(197.92374 112.520648)" fill="none" stroke="#e6e6e6"/><rect width="64" height="317.726192" rx="0" ry="0" transform="translate(133.92374 112.520648)" fill="none" stroke="#e6e6e6"/></g><g opacity="0.48"><path d="M0,0h715" transform="translate(58.487762 299.206496)" fill="none" stroke="#e6e6e6"/><path d="M715,54L0,54" transform="translate(58.487762 299.206496)" fill="none" stroke="#e6e6e6"/><path d="M0,0h715" transform="translate(58.487762 191.206496)" fill="none" stroke="#e6e6e6"/><path d="M715,54L0,54" transform="translate(58.487762 191.206496)" fill="none" stroke="#e6e6e6"/><path d="M0,0h715" transform="translate(58.487762 245.206496)" fill="none" stroke="#e6e6e6"/><path d="M715,54L0,54" transform="translate(58.487762 245.206496)" fill="none" stroke="#e6e6e6"/><path d="M0,0h715" transform="translate(58.487762 353.206496)" fill="none" stroke="#e6e6e6"/><path d="M715,54L0,54" transform="translate(58.487762 353.206496)" fill="none" stroke="#e6e6e6"/></g><g><text dx="0" dy="0" font-family="&quot;eRNHuhEBagO1:::Open Sans&quot;" font-size="12" font-weight="400" transform="translate(60 0)" fill="#919eab"><tspan y="187.35" font-weight="400"><![CDATA[
10,200,000
]]></tspan></text><text dx="0" dy="0" font-family="&quot;eRNHuhEBagO1:::Open Sans&quot;" font-size="12" font-weight="400" transform="translate(67 0)" fill="#919eab"><tspan y="241.35" font-weight="400"><![CDATA[
9,900,000
]]></tspan></text><text dx="0" dy="0" font-family="&quot;eRNHuhEBagO1:::Open Sans&quot;" font-size="12" font-weight="400" transform="translate(67 0.000001)" fill="#919eab"><tspan y="295.35" font-weight="400"><![CDATA[
9,600,000
]]></tspan></text><text dx="0" dy="0" font-family="&quot;eRNHuhEBagO1:::Open Sans&quot;" font-size="12" font-weight="400" transform="translate(67 0)" fill="#919eab"><tspan y="349.35" font-weight="400"><![CDATA[
9,300,000
]]></tspan></text><text dx="0" dy="0" font-family="&quot;eRNHuhEBagO1:::Open Sans&quot;" font-size="12" font-weight="400" transform="translate(66.233119 0.000001)" fill="#919eab"><tspan y="403.35" font-weight="400"><![CDATA[
9,000,000
]]></tspan></text></g><g><g mask="url(#eRNHuhEBagO75)"><g transform="translate(0 0.000001)"><path id="eRNHuhEBagO73" d="M4584.952137,-23.403804l-8.99805,3.268081-5.135485,19.770827-4.614012,3.34145-5.847125-3.9123-5.098896-4.882822-5.016046,8.49625-4.006561,8.138473-5.134399,5.29872-3.899156-3.880846-8.698116-3.676592-6.59857,11.642539-12.897207-14.91062-3.299285,6.944673L4496.111308,1l-8.098246,18.382956-6.898506,3.268081-4.499025,5.719142-3.59922,1.429785-10.197792,25.123373-8.537265-3.057127-3.760071-4.90882-7.498376-10.008499-6.898505,13.68509-8.398181-6.944672-11.997402,5.719141-3.899155-25.736138h-2.99935l-4.499026,7.148927-4.19909-18.995721-5.698766,3.880847h-3.299285L4386.035151,2.22553l-8.698116,21.446782-3.899155-9.395733-7.198441,9.395733h-4.79896l-2.39948,11.029774-4.199091,7.761692h-8.098246l-5.698765-11.029773-4.199091-13.072325-2.99935,36.561657h-3.899156l-4.499025-10.212753-4.499026,2.246806-1.79961,9.191477h-4.19909l-6.298636,5.923397-4.79896,8.170203h-3.599221l-4.19909,16.54466-8.398181-24.714863h-7.798311l-5.698765,4.493612h-3.599221l-9.597921,7.148927-6.598571-24.306353-5.311062,12.663814-9.085819,16.953171-8.998051,9.395733-2.099545-5.310632h-4.798961l-9.897856,21.446782-6.097053-8.853698-5.083162-7.381289-5.452604,5.853945-7.51154,8.064459-4.721544,12.419518-8.834385,1.337433-5.505488,10.499049-5.505487-10.931686-6.273694-5.964332-5.121384-7.437774-5.377452-15.1209-6.128551-9.037884-6.202522-8.028566-5.39311-19.571195-9.441955,11.262624-10.2772-7.004997-8.60671-5.86634-4.449198,11.346381-3.855957,9.833527-5.361817,13.673828-6.577831,16.774805-6.303312-8.44317-5.088157,12.221384-4.39603,6.935797-5.501827-6.077091-3.132167-4.63692-4.181558-4.786205-3.176588,11.940059-4.657799-4.153854-6.625989,11.236027-5.568224,10.773771-4.157802,7.024536-5.556055,8.910527-8.530148-7.219474-12.788659,19.729484-7.170194-9.659001-8.275831,14.391025-5.946838,10.350769-6.196244-5.659847-5.13829,7.735165-4.710449-9.244019-5.791257-11.365136-19.228031-9.72501-14.655403-30.768915-16.520422,9.653094-14.162932-40.222315-7.078467,12.870928-7.084465-14.48005-20.059655,41.831437-12.981188-8.044381-4.720978-48.267106-11.805443,11.262216-7.078466,28.960509-14.162933-11.262625-14.162932-6.43526-9.441954,12.870929-18.877911,9.653503-9.441955-19.306598-14.162932,3.217426-15.296687,27.351387-9.897856-20.544791h-4.798961l-2.099545,5.310632-8.998051-9.395733-7.798311-29.616985h-6.59857l-6.598571,24.306353-9.597921-7.148927h-3.59922l-5.698766-4.493612h-7.798311l-8.398181,24.714863-4.19909-16.54466h-3.59922l-4.798961-8.170203-6.298636-5.923397h-4.19909l-1.79961-9.191477-4.499026-2.246806-4.499025,10.212753h-3.899156l-2.99935-36.561656-4.19909,13.072324-5.698766,11.029773h-8.098246l-4.19909-7.761692-2.399481-11.029774h-4.79896l-7.198441-9.395733-3.899155,9.395733-8.698116-21.446782-5.098896,13.480835h-3.299285l-5.698766-3.880847-4.19909,18.995721-4.499026-7.148927h-2.99935l-3.899155,25.736138-11.997402-5.719141-8.39818,6.944672-6.898506-13.68509-7.498376,10.008499v3.676591l-12.297336,4.289356-10.197791-25.123373-3.599221-1.429785-4.499025-5.719142-6.898506-3.268081-8.098246-18.382956-9.597921,11.234029-3.299285-6.944673-12.897206,14.91062-6.598571-11.642539-8.698116,3.676592-3.899155,3.880846-4.499026-1.634041-4.499025,4.493612h-6.598571L3380.95286,46.95739h-5.39883l-2.39948,1.429785-7.798311-20.629762-8.848084-3.213626m0,0l-.149967-.054455m.149967.054455l-8.848083,3.213626-7.798311,20.629762-2.39948-1.429785h-5.398831l-5.098895-12.051049h-6.598571l-4.499026-4.493612-4.499025,1.634041-3.899155-3.880846-8.698116-3.676592-6.598571,11.642539-12.897206-14.91062-3.299286,6.944673-9.597921-11.234029-8.098246,18.382956-6.898505,3.268081-4.499026,5.719142-3.59922,1.429785-10.197791,25.123373-12.297337-4.289356v-3.676591l-7.498375-10.008499-6.898506,13.68509-8.398181-6.944672-11.997401,5.719141-3.899156-25.736138h-2.99935l-4.499025,7.148927-4.199091-18.995721-5.698765,3.880847h-3.299286l-5.098895-13.480835-8.698116,21.446782-3.899156-9.395733-7.19844,9.395733h-4.798961l-2.39948,11.029774-4.199091,7.761692h-8.098245L3111.311267,47.3659l-4.199091-13.072324-2.99935,36.561656h-3.899155l-4.499026-10.212753-4.499025,2.246806-1.79961,9.191477h-4.199091l-6.298636,5.923397-4.79896,8.170203h-3.59922l-4.199091,16.54466-8.398181-24.714863h-7.798311l-5.698765,4.493612h-3.599221l-9.597921,7.148927-6.59857-24.306353h-6.598571l-7.798311,29.616985-8.998051,9.395733-2.099545-5.310632h-4.79896l-9.897856,20.544791-15.296687-27.351387-14.162932-3.217426-9.441955,19.306598-18.877911-9.653503-9.441955-12.870929-14.162932,6.43526-14.162932,11.262625-7.078467-28.960509-11.805443-11.262216-4.720977,48.267106-12.981188,8.044381-20.059655-41.831437-7.084466,14.48005-7.078466-12.870928-14.162933,40.222315-16.520421-9.653094-14.162932-17.698293-21.241399,27.351387-16.520422,12.871338-9.441955-20.915719-30.683353,30.569221-6.046691-3.648403-3.395264,6.866238-28.325865-53.094062-9.441954,20.915719-16.520422-20.915719-2.357489,9.653503-18.88391-53.093653-18.883909,12.871337-9.441955-11.262624-18.877911,53.094062-11.805443,16.088762h-21.241399l-14.162932,14.48005-16.520422-28.488679-.59987-1.021275-9.897856-21.446782h-4.79896l-2.099545,5.310632-8.998051-9.395733-7.798311-29.616985h-6.598571l-6.598571,24.306353-9.597921-7.148927h-3.59922l-5.698766-4.493612h-7.79831l-8.398181,24.714863-4.199091-16.54466h-3.59922l-4.798961-8.170203-6.298635-5.923397h-4.199091l-1.79961-9.191477-4.499025-2.246806-4.499026,10.212753h-3.899155l-2.999351-36.561657-4.19909,13.072325-5.698766,11.029773h-8.098246l-4.19909-7.761692-2.39948-11.029774h-4.798961l-7.19844-9.395733-3.899156,9.395733-8.698116-21.446782-5.098895,13.480835h-3.299286l-5.698765-3.880847-4.199091,18.995721-4.499025-7.148927h-2.999351l-3.899155,25.736138-11.997401-5.719141-8.398181,6.944672-6.898506-13.68509-5.098895,11.642539-2.399481,2.042551-12.297336,4.289356L2240,29.799964m1116.508155-5.256177l.149968-.054455" transform="translate(-3808.357512 211.360274)" fill="none" stroke="#075864" stroke-linecap="round" stroke-linejoin="round" stroke-dasharray="10120.6"/><path id="eRNHuhEBagO74" d="M3010,-23.403804l-2.954644,3.391768-1.686313,20.519091-1.51508,3.467914-1.91999-4.060369-1.674299-5.067621-1.647093,8.817806-1.315614,8.446489-1.685957,5.49926-1.280346-4.027724-2.856156-3.815739-2.166739,12.083173-4.23499-15.474941-1.083369,7.207507-3.151621-11.659202-2.65918,19.078694-2.265227,3.391768-1.477322,5.935593-1.181858,1.483898-3.348597,26.074215-2.803338-3.17283-1.234675-5.094603-2.462204-10.38729-2.265227,14.203028-2.757668-7.207506-3.939526,5.935593-1.280345-26.710171h-.984882l-1.477322,7.419491-1.378834-19.71465-1.871274,4.027725h-1.08337l-1.674298-13.991042-2.856157,22.258476-1.280345-9.751333-2.363716,9.751333h-1.57581l-.787905,11.447216-1.378834,8.055448h-2.65918l-1.871274-11.447215-1.378834-13.567072-.984882,37.945402h-1.280346l-1.477322-10.599274-1.477322,2.331841-.590929,9.539345h-1.378833l-2.068251,6.14758-1.575811,8.479419h-1.181857L2915.1362,90.957511l-2.757668-25.650243h-2.560692l-1.871274,4.663681h-1.181858l-3.151621,7.419491-2.166739-25.226272-1.743966,13.1431-2.983464,17.594795-2.954645,9.751333-.689417-5.511623h-1.57581l-3.250109,22.258476-2.002058-9.188783-1.669132-7.660648-1.790444,6.075499-2.466526,8.369673-1.550389,12.889558-2.900902,1.388051-1.807809,10.896406-1.807809-11.345417-2.060061-6.190063-1.681683-7.719271-1.765766-15.693179-2.012402-9.37994-2.03669-8.332422-1.770908-20.311904-3.100407,11.688879-3.374672-7.270114-2.826141-6.088363-1.460961,11.775807-1.266161,10.205695-1.760632,14.19134-2.159929,17.409679-2.069787-8.762718-1.670772,12.683926-1.443502,7.198295-1.806607-6.30709-1.028494-4.812413-1.373077-4.967348-1.04308,12.391953-1.529457-4.311064-2.175743,11.661275-1.828409,11.181525-1.365276,7.290393-1.824414,9.247763-2.801001-7.492709-4.199347,20.476184-2.35444-10.024564-2.717493,14.93568-1.952733,10.742514-2.034629-5.874055-1.687234,8.027917-1.546746-9.593876-1.901646-11.795271-6.31381-10.093072-4.81232-31.933423-5.424727,10.018434-4.65061-41.744605-2.32432,13.358053-2.32629-15.028075-6.586887,43.414627-4.262567-8.348836-1.550203-50.093866-3.876493,11.688456-2.32432,30.056574-4.65061-11.68888-4.65061-6.678815-3.100407,13.358054-6.198843,10.018858-3.100407-20.037293-4.65061,3.339196-5.022895,28.386552-3.250109-21.322348h-1.57581l-.689417,5.511623-2.954644-9.751332-2.560692-30.737896h-2.166739l-2.166739,25.226273-3.151621-7.419492h-1.181857l-1.871275-4.663681h-2.560692l-2.757668,25.650244-1.378833-17.170824h-1.181858l-1.57581-8.47942-2.068251-6.147579h-1.378834l-.590929-9.539346-1.477322-2.33184-1.477322,10.599274h-1.280346l-.984881-37.945401-1.378834,13.56707-1.871275,11.447216h-2.65918l-1.378834-8.055448-.787905-11.447217h-1.57581l-2.363716-9.751332-1.280345,9.751332-2.856156-22.258476-1.674299,13.991043h-1.083369l-1.871275-4.027725-1.378834,19.71465-1.477322-7.419492h-.984881l-1.280346,26.710171-3.939526-5.935592-2.757668,7.207506-2.265227-14.203028-2.462204,10.387289v3.815739l-4.038013,4.451695-3.348597-26.074215-1.181858-1.483898-1.477322-5.935594-2.265227-3.391767-2.65918-19.078694-3.15162,11.659202-1.08337-7.207507-4.23499,15.47494-2.166739-12.083173-2.856156,3.81574-1.280346,4.027724-1.477322-1.695884-1.477322,4.663681h-2.166739l-1.674299,12.507144h-1.772786l-.787905,1.483897-2.560692-21.410534-2.9054-3.335252m0,0l-.049244-.056516m.049244.056516l-2.9054,3.335252-2.560692,21.410534-.787905-1.483897h-1.772786l-1.674299-12.507144h-2.166739l-1.477322-4.663681-1.477322,1.695884-1.280346-4.027724-2.856156-3.81574-2.166739,12.083173-4.23499-15.47494-1.08337,7.207507-3.15162-11.659202-2.65918,19.078694-2.265227,3.391767-1.477322,5.935594-1.181858,1.483898-3.348596,26.074215-4.038014-4.451695v-3.815739l-2.462204-10.387289-2.265227,14.203028-2.757668-7.207506-3.939525,5.935592-1.280346-26.710171h-.984882l-1.477322,7.419492-1.378834-19.71465-1.871274,4.027725h-1.08337l-1.674298-13.991043-2.856156,22.258476-1.280346-9.751332-2.363715,9.751332h-1.575811l-.787905,11.447217-1.378834,8.055448h-2.659179l-1.871275-11.447216-1.378834-13.56707-.984882,37.945401h-1.280345l-1.477323-10.599274-1.477322,2.33184-.590928,9.539346h-1.378835l-2.068251,6.147579-1.57581,8.47942h-1.181857l-1.378834,17.170824-2.757668-25.650244h-2.560692l-1.871274,4.663681h-1.181858l-3.151621,7.419492-2.166739-25.226273h-2.166739l-2.560692,30.737896-2.954644,9.751332-.689417-5.511623h-1.57581l-3.250108,21.322348-5.022896-28.386552-4.65061-3.339196-3.100406,20.037293-6.198844-10.018858-3.100407-13.358054-4.650609,6.678815-4.65061,11.68888-2.324321-30.056574-3.876493-11.688456-1.550203,50.093866-4.262567,8.348836-6.586886-43.414627-2.32629,15.028075-2.32432-13.358053-4.650611,41.744605-5.424726-10.018434-4.65061-18.368118-6.97493,28.386552-5.424727,13.358478-3.100407-21.707314-10.075336,31.726171-1.985521-3.786484-1.114886,7.126104-9.30122-55.103507-3.100406,21.707314-5.424727-21.707314-.774117,10.018858-6.200813-55.103083-6.200814,13.358477-3.100406-11.688879-6.198844,55.103507-3.876493,16.697672h-6.97493l-4.65061,15.028075-5.424727-29.566887-.196976-1.059927-3.250109-22.258476h-1.57581l-.689417,5.511623-2.954644-9.751333-2.560692-30.737895h-2.166739l-2.166739,25.226272-3.151621-7.419491h-1.181857l-1.871275-4.663681h-2.560691l-2.757668,25.650243-1.378834-17.170824h-1.181858l-1.57581-8.479419-2.068251-6.14758h-1.378834l-.590929-9.539345-1.477322-2.331841-1.477322,10.599274h-1.280346l-.984882-37.945402-1.378833,13.567072-1.871275,11.447215h-2.65918l-1.378834-8.055448-.787905-11.447216h-1.57581l-2.363715-9.751333-1.280346,9.751333-2.856156-22.258476-1.674299,13.991042h-1.083369l-1.871275-4.027725-1.378834,19.71465-1.477322-7.419491h-.984882l-1.280345,26.710171-3.939526-5.935593-2.757668,7.207506-2.265227-14.203028-1.674298,12.083173-.787906,2.119855-4.038013,4.451695L2240,31.813561m366.622101-5.455107l.049244-.056516" transform="matrix(1.3 0 0 1-3606.325038 211.360274)" opacity="0" fill="none" stroke="#075864" stroke-linecap="round" stroke-linejoin="round" stroke-dasharray="10120.6"/></g><mask id="eRNHuhEBagO75" mask-type="luminance" x="-150%" y="-150%" height="400%" width="400%"><rect width="644.916645" height="269.817981" rx="0" ry="0" transform="translate(133.541677 135.466707)" fill="#fff" stroke-width="0"/></mask></g><rect width="771" height="28" rx="0" ry="0" transform="translate(8 408)" fill="#fff"/><g><g id="eRNHuhEBagO79" transform="translate(-18.556704-14.432992)" opacity="0"><text dx="0" dy="0" font-family="&quot;eRNHuhEBagO1:::Open Sans&quot;" font-size="8" font-weight="600" transform="translate(609.846576 11.701576)" fill="#606a5e"><tspan y="426.35" font-weight="600"><![CDATA[
Apr
]]></tspan></text><text dx="0" dy="0" font-family="&quot;eRNHuhEBagO1:::Open Sans&quot;" font-size="12" font-weight="400" transform="translate(575.204053 13.000002)" fill="#919eab"><tspan y="426.35" font-weight="400"><![CDATA[
29
]]></tspan></text><text dx="0" dy="0" font-family="&quot;eRNHuhEBagO1:::Open Sans&quot;" font-size="12" font-weight="400" transform="translate(642.793837 13.000002)" fill="#919eab"><tspan y="426.35" font-weight="400"><![CDATA[
7
]]></tspan></text><text dx="0" dy="0" font-family="&quot;eRNHuhEBagO1:::Open Sans&quot;" font-size="12" font-weight="400" transform="translate(513.092943 13)" fill="#919eab"><tspan y="426.35" font-weight="400"><![CDATA[
20
]]></tspan></text><text dx="0" dy="0" font-family="&quot;eRNHuhEBagO1:::Open Sans&quot;" font-size="12" font-weight="400" transform="translate(260.588694 13.000002)" fill="#919eab"><tspan y="426.35" font-weight="400"><![CDATA[
17
]]></tspan></text><text dx="0" dy="0" font-family="&quot;eRNHuhEBagO1:::Open Sans&quot;" font-size="8" font-weight="600" transform="translate(352.453774 11.766742)" fill="#606a5e"><tspan y="426.35" font-weight="600"><![CDATA[
Feb
]]></tspan></text><text dx="0" dy="0" font-family="&quot;eRNHuhEBagO1:::Open Sans&quot;" font-size="8" font-weight="600" transform="translate(162.634151 11.793044)" fill="#606a5e"><tspan y="426.35" font-weight="600"><![CDATA[
Jan
]]></tspan></text><text dx="0" dy="0" font-family="&quot;eRNHuhEBagO1:::Open Sans&quot;" font-size="12" font-weight="400" transform="translate(194.139538 13.000001)" fill="#919eab"><tspan y="426.35" font-weight="400"><![CDATA[
8
]]></tspan></text><text dx="0" dy="0" font-family="&quot;eRNHuhEBagO1:::Open Sans&quot;" font-size="12" font-weight="400" transform="translate(127.062689 13.000001)" fill="#919eab"><tspan y="426.35" font-weight="400"><![CDATA[
29
]]></tspan></text><text dx="0" dy="0" font-family="&quot;eRNHuhEBagO1:::Open Sans&quot;" font-size="12" font-weight="400" transform="translate(447.627491 13.000001)" fill="#919eab"><tspan y="426.35" font-weight="400"><![CDATA[
11
]]></tspan></text><text dx="0" dy="0" font-family="&quot;eRNHuhEBagO1:::Open Sans&quot;" font-size="12" font-weight="400" transform="translate(319.061732 13.262322)" fill="#919eab"><tspan y="426.35" font-weight="400"><![CDATA[
26
]]></tspan></text><text dx="0" dy="0" font-family="&quot;eRNHuhEBagO1:::Open Sans&quot;" font-size="12" font-weight="400" transform="translate(386.345919 13.262323)" fill="#919eab"><tspan y="426.35" font-weight="400"><![CDATA[
2
]]></tspan></text><text dx="0" dy="0" font-family="&quot;eRNHuhEBagO1:::Open Sans&quot;" font-size="12" font-weight="400" transform="translate(703.257351 13)" fill="#919eab"><tspan y="426.35" font-weight="400"><![CDATA[
16
]]></tspan></text></g><g id="eRNHuhEBagO106"><text dx="0" dy="0" font-family="&quot;eRNHuhEBagO1:::Open Sans&quot;" font-size="12" font-weight="400" transform="translate(319.062059 0.000001)" fill="#919eab"><tspan y="426.35" font-weight="400"><![CDATA[
4
]]></tspan></text><text dx="0" dy="0" font-family="&quot;eRNHuhEBagO1:::Open Sans&quot;" font-size="12" font-weight="400" transform="translate(191.061498 0.000001)" fill="#919eab"><tspan y="426.35" font-weight="400"><![CDATA[
29
]]></tspan></text><text dx="0" dy="0" font-family="&quot;eRNHuhEBagO1:::Open Sans&quot;" font-size="12" font-weight="400" transform="translate(258.778266 0.000001)" fill="#919eab"><tspan y="426.35" font-weight="400"><![CDATA[
1
]]></tspan></text><text dx="0" dy="0" font-family="&quot;eRNHuhEBagO1:::Open Sans&quot;" font-size="12" font-weight="400" transform="translate(127.060233 0.317994)" fill="#919eab"><tspan y="426.35" font-weight="400"><![CDATA[
26
]]></tspan></text><text dx="0" dy="0" font-family="&quot;eRNHuhEBagO1:::Open Sans&quot;" font-size="8" font-weight="600" transform="translate(228.122308-1.164183)" fill="#606a5e"><tspan y="426.35" font-weight="600"><![CDATA[
Apr
]]></tspan></text><text dx="0" dy="0" font-family="&quot;eRNHuhEBagO1:::Open Sans&quot;" font-size="12" font-weight="400" transform="translate(385.928772 0.000002)" fill="#919eab"><tspan y="426.35" font-weight="400"><![CDATA[
7
]]></tspan></text><text dx="0" dy="0" font-family="&quot;eRNHuhEBagO1:::Open Sans&quot;" font-size="12" font-weight="400" transform="translate(449.819323 0.000002)" fill="#919eab"><tspan y="426.35" font-weight="400"><![CDATA[
10
]]></tspan></text><text dx="0" dy="0" font-family="&quot;eRNHuhEBagO1:::Open Sans&quot;" font-size="12" font-weight="400" transform="translate(513.092943 0)" fill="#919eab"><tspan y="426.35" font-weight="400"><![CDATA[
13
]]></tspan></text><text dx="0" dy="0" font-family="&quot;eRNHuhEBagO1:::Open Sans&quot;" font-size="12" font-weight="400" transform="translate(640.011 0.000002)" fill="#919eab"><tspan y="426.35" font-weight="400"><![CDATA[
19
]]></tspan></text><text dx="0" dy="0" font-family="&quot;eRNHuhEBagO1:::Open Sans&quot;" font-size="12" font-weight="400" transform="translate(576.636 0.000001)" fill="#919eab"><tspan y="426.35" font-weight="400"><![CDATA[
16
]]></tspan></text><text dx="0" dy="0" font-family="&quot;eRNHuhEBagO1:::Open Sans&quot;" font-size="12" font-weight="400" transform="translate(703.257351 0)" fill="#919eab"><tspan y="426.35" font-weight="400"><![CDATA[
22
]]></tspan></text></g></g></g><g transform="translate(0 13.542839)"><rect width="778" height="45" rx="4" ry="4" transform="translate(1.000008 78.848228)" fill="#f2f9fa"/><text dx="0" dy="0" font-family="&quot;eRNHuhEBagO1:::Raleway&quot;" font-size="14" font-weight="500" transform="translate(0-11)" fill="#686868"><tspan x="22" y="118.442" font-family="&quot;eRNHuhEBagO1:::Raleway&quot;" font-size="14" font-weight="500" font-style="normal" fill="#686868"><![CDATA[
Zoom
]]></tspan></text><g transform="translate(0-12)"><rect id="eRNHuhEBagO134" width="61.038961" height="24.675325" rx="3" ry="3" transform="translate(71.428571 101.389609)" fill="#075864" stroke-width="0"/><rect width="159.506539" height="29" rx="4" ry="4" transform="translate(605.597778 99)" fill="none" stroke="#9fbdbe"/><rect width="36.343262" height="20.190701" rx="10.1" ry="10.1" transform="translate(723.71338 103.06468)" fill="#b8c0c1" stroke="#9fbdbe"/><rect width="16.152561" height="16.152561" rx="8.08" ry="8.08" transform="translate(726.741985 105.08375)" fill="#fff"/><rect width="451" height="29" rx="4" ry="4" transform="translate(69 99)" fill="none" stroke="#9fbdbe"/><g><g><text id="eRNHuhEBagO141" dx="0" dy="0" font-family="&quot;eRNHuhEBagO1:::Open Sans&quot;" font-size="12" font-weight="400" transform="translate(91.802905 0)" fill="#fff"><tspan y="118.155" font-weight="400"><![CDATA[
1
]]></tspan></text><text id="eRNHuhEBagO143" dx="0" dy="0" font-family="&quot;eRNHuhEBagO1:::Open Sans&quot;" font-size="12" font-weight="400" transform="translate(98.477063 0)" fill="#eaeaea"><tspan y="118.155" font-weight="400"><![CDATA[
m
]]></tspan></text></g></g><g><text id="eRNHuhEBagO146" dx="0" dy="0" font-family="&quot;eRNHuhEBagO1:::Open Sans&quot;" font-size="12" font-weight="400" transform="translate(155.000008 0)" fill="#212121"><tspan y="118.155" font-weight="400"><![CDATA[
3
]]></tspan></text><text id="eRNHuhEBagO148" dx="0" dy="0" font-family="&quot;eRNHuhEBagO1:::Open Sans&quot;" font-size="12" font-weight="400" transform="translate(166.035928 0)" fill="#828282"><tspan y="118.155" font-weight="400"><![CDATA[
m
]]></tspan></text></g><g><text dx="0" dy="0" font-family="&quot;eRNHuhEBagO1:::Open Sans&quot;" font-size="12" font-weight="400" fill="#212121"><tspan x="220.5" y="118.155" font-family="&quot;eRNHuhEBagO1:::Open Sans&quot;" font-size="12" font-weight="400" font-style="normal" fill="#212121"><![CDATA[
6
]]></tspan></text><text dx="0" dy="0" font-family="&quot;eRNHuhEBagO1:::Open Sans&quot;" font-size="12" font-weight="400" fill="#828282"><tspan x="228.5" y="118.155" font-family="&quot;eRNHuhEBagO1:::Open Sans&quot;" font-size="12" font-weight="400" font-style="normal" fill="#828282"><![CDATA[
m
]]></tspan></text></g><text dx="0" dy="0" font-family="&quot;eRNHuhEBagO1:::Open Sans&quot;" font-size="12" font-weight="400" fill="#212121"><tspan x="283" y="118.155" font-family="&quot;eRNHuhEBagO1:::Open Sans&quot;" font-size="12" font-weight="400" font-style="normal" fill="#212121"><![CDATA[
YTD
]]></tspan></text><g><text dx="0" dy="0" font-family="&quot;eRNHuhEBagO1:::Open Sans&quot;" font-size="12" font-weight="400" fill="#212121"><tspan x="351" y="118.155" font-family="&quot;eRNHuhEBagO1:::Open Sans&quot;" font-size="12" font-weight="400" font-style="normal" fill="#212121"><![CDATA[
1
]]></tspan></text><text dx="0" dy="0" font-family="&quot;eRNHuhEBagO1:::Open Sans&quot;" font-size="12" font-weight="400" fill="#828282"><tspan x="359" y="118.155" font-family="&quot;eRNHuhEBagO1:::Open Sans&quot;" font-size="12" font-weight="400" font-style="normal" fill="#828282"><![CDATA[
y
]]></tspan></text></g><path d="M454.485437,100L454,100v28.15534h.485437.485437v-28.15534h-.485437Z" transform="translate(-320.07626-.690411)" fill="#9fbdbe"/><path d="M454.485437,100L454,100v28.15534h.485437.485437v-28.15534h-.485437Z" transform="translate(-256.07626-.690411)" fill="#9fbdbe"/><path d="M454.485437,100L454,100v28.15534h.485437.485437v-28.15534h-.485437Z" transform="translate(-191.970874-.690411)" fill="#9fbdbe"/><path d="M454.485437,100L454,100v28.15534h.485437.485437v-28.15534h-.485437Z" transform="translate(-128.07626-.690411)" fill="#9fbdbe"/><path d="M454.485437,100L454,100v28.15534h.485437.485437v-28.15534h-.485437Z" transform="translate(-64.076259-.690411)" fill="#9fbdbe"/><path d="M454.485437,100L454,100v28.15534h.485437.485437v-28.15534h-.485437Z" transform="translate(0-.690411)" fill="#9fbdbe"/><text dx="0" dy="0" font-family="&quot;eRNHuhEBagO1:::Open Sans&quot;" font-size="12" font-weight="400" fill="#212121"><tspan x="415.5" y="118.155" font-family="&quot;eRNHuhEBagO1:::Open Sans&quot;" font-size="12" font-weight="400" font-style="normal" fill="#212121"><![CDATA[
All
]]></tspan></text><text dx="0" dy="0" font-family="&quot;eRNHuhEBagO1:::Open Sans&quot;" font-size="12" font-weight="400" transform="translate(613.674059 0)" fill="#212121"><tspan y="118.155" font-weight="400"><![CDATA[
Comparison Mode 
]]></tspan></text><text dx="0" dy="0" font-family="&quot;eRNHuhEBagO1:::Open Sans&quot;" font-size="12" font-weight="400" fill="#212121"><tspan x="464.5" y="118.155" font-family="&quot;eRNHuhEBagO1:::Open Sans&quot;" font-size="12" font-weight="400" font-style="normal" fill="#212121"><![CDATA[
Custom
]]></tspan></text></g></g><g id="eRNHuhEBagO174" transform="translate(274.892812 193.611011)"><path d="M49.999,1v221.22" fill="none" stroke="url(#eRNHuhEBagO175-stroke)" stroke-width="2" stroke-linecap="round" stroke-linejoin="round"/><g transform="translate(0-22.503678)"><circle r="8" transform="translate(50 96)" fill="#00dea3"/></g><g transform="translate(0-15.329256)"><rect width="100" height="44" rx="8" ry="8" transform="translate(0 34)" fill="#0b544d" fill-opacity="0.78"/><text dx="0" dy="0" font-family="&quot;eRNHuhEBagO1:::Open Sans&quot;" font-size="12" font-weight="600" transform="translate(10.042145 0)" fill="#fff"><tspan y="51.6553" font-weight="600"><![CDATA[
9,801,400
]]></tspan><tspan x="0" y="75.6553" font-weight="600"><![CDATA[
 
]]></tspan></text><text dx="0" dy="0" font-family="&quot;eRNHuhEBagO1:::Open Sans&quot;" font-size="10" font-weight="400" fill="#f1f3f1"><tspan x="69" y="50.8794" font-family="&quot;eRNHuhEBagO1:::Open Sans&quot;" font-size="10" font-weight="400" font-style="normal" fill="#f1f3f1"><![CDATA[
USD
]]></tspan></text><g transform="translate(-7.02681 0)"><text dx="0" dy="0" font-family="&quot;eRNHuhEBagO1:::Open Sans&quot;" font-size="10" font-weight="400" transform="translate(58.210973-2.517726)" fill="#fff"><tspan y="70.3794" font-weight="400"><![CDATA[
6:30 PM
]]></tspan></text><text dx="0" dy="0" font-family="&quot;eRNHuhEBagO1:::Open Sans&quot;" font-size="10" font-weight="400" transform="translate(17.295037-2.517726)" fill="#fff"><tspan y="70.3794" font-weight="400"><![CDATA[
4/04/25
]]></tspan></text></g></g></g></g><g id="eRNHuhEBagO190" transform="translate(0 6.959349)"><rect width="778" height="69" rx="4" ry="4" transform="translate(-.447433 4.698819)" fill="#fff"/><g><text dx="0" dy="0" font-family="&quot;eRNHuhEBagO1:::Open Sans&quot;" font-size="12" font-weight="400" transform="translate(19.188649 0)" fill="#686868"><tspan y="30.942" font-weight="400"><![CDATA[
Total Portfolio Value 
]]></tspan></text><g><rect width="63" height="20" rx="3" ry="3" transform="translate(112.642519 39.880331)" fill="#daedee" stroke-width="0"/><text dx="0" dy="0" font-family="&quot;eRNHuhEBagO1:::Open Sans&quot;" font-size="16" font-weight="600" transform="translate(18-1)" fill="#262f31"><tspan y="55.707" font-weight="600"><![CDATA[
10,212,408
]]></tspan></text><text dx="0" dy="0" font-family="&quot;eRNHuhEBagO1:::Open Sans&quot;" font-size="12" font-weight="400" transform="translate(144.273575 0.548553)" fill="#0d2a2d"><tspan y="54.1553" font-weight="400"><![CDATA[
USD
]]></tspan></text><g transform="matrix(.02 0 0 0.02 115.69951 43.380331)"><path d="M0,0h1235v650L0,650" fill="#b31942"/><path d="M0,75h1235L0,75ZM1235,175L0,175h1235ZM0,275h1235-1235ZM1235,375L0,375h1235ZM0,475h1235-1235ZM1235,575L0,575h1235Z"/><path d="M0,75h1235m0,100L0,175M0,275h1235m0,100L0,375M0,475h1235m0,100L0,575" fill="none" stroke="#fff" stroke-width="50"/><path d="M0,0h494v350h-494" fill="#0a3161"/><path d="M41.1666,15L52.9223,51.1803L22.1455,28.8196h38.0423L29.4109,51.1803L41.1666,15Z" fill="#fff"/><path d="M41.1666,85l11.7557,36.18L22.1455,98.8196h38.0423L29.4109,121.18L41.1666,85Z" fill="#fff"/><path d="M41.1666,155l11.7557,36.18-30.7768-22.36h38.0423L29.4109,191.18L41.1666,155Z" fill="#fff"/><path d="M41.1666,225l11.7557,36.18-30.7768-22.36h38.0423L29.4109,261.18L41.1666,225Z" fill="#fff"/><path d="M41.1666,295l11.7557,36.18-30.7768-22.36h38.0423L29.4109,331.18L41.1666,295Z" fill="#fff"/><path d="M82.3333,50L94.089,86.1803L63.3122,63.8196h38.0418L70.5776,86.1803L82.3333,50Z" fill="#fff"/><path d="M82.3333,120L94.089,156.18L63.3122,133.82h38.0418L70.5776,156.18L82.3333,120Z" fill="#fff"/><path d="M82.3333,190L94.089,226.18L63.3122,203.82h38.0418L70.5776,226.18L82.3333,190Z" fill="#fff"/><path d="M82.3333,260L94.089,296.18L63.3122,273.82h38.0418L70.5776,296.18L82.3333,260Z" fill="#fff"/><path d="M123.5,15l11.756,36.1803-30.777-22.3607h38.042L111.744,51.1803L123.5,15Z" fill="#fff"/><path d="M123.5,85l11.756,36.18-30.777-22.3604h38.042L111.744,121.18L123.5,85Z" fill="#fff"/><path d="M123.5,155l11.756,36.18-30.777-22.36h38.042l-30.777,22.36L123.5,155Z" fill="#fff"/><path d="M123.5,225l11.756,36.18-30.777-22.36h38.042l-30.777,22.36L123.5,225Z" fill="#fff"/><path d="M123.5,295l11.756,36.18-30.777-22.36h38.042l-30.777,22.36L123.5,295Z" fill="#fff"/><path d="M164.667,50l11.755,36.1803-30.776-22.3606h38.042L152.911,86.1803L164.667,50Z" fill="#fff"/><path d="M164.667,120l11.755,36.18-30.776-22.36h38.042l-30.777,22.36L164.667,120Z" fill="#fff"/><path d="M164.667,190l11.755,36.18-30.776-22.36h38.042l-30.777,22.36L164.667,190Z" fill="#fff"/><path d="M164.667,260l11.755,36.18-30.776-22.36h38.042l-30.777,22.36L164.667,260Z" fill="#fff"/><path d="M205.833,15l11.756,36.1803-30.777-22.3607h38.042L194.078,51.1803L205.833,15Z" fill="#fff"/><path d="M205.833,85l11.756,36.18-30.777-22.3604h38.042L194.078,121.18L205.833,85Z" fill="#fff"/><path d="M205.833,155l11.756,36.18-30.777-22.36h38.042l-30.776,22.36L205.833,155Z" fill="#fff"/><path d="M205.833,225l11.756,36.18-30.777-22.36h38.042l-30.776,22.36L205.833,225Z" fill="#fff"/><path d="M205.833,295l11.756,36.18-30.777-22.36h38.042l-30.776,22.36L205.833,295Z" fill="#fff"/><path d="M247,50l11.756,36.1803-30.777-22.3606h38.042L235.244,86.1803L247,50Z" fill="#fff"/><path d="M247,120l11.756,36.18-30.777-22.36h38.042l-30.777,22.36L247,120Z" fill="#fff"/><path d="M247,190l11.756,36.18-30.777-22.36h38.042l-30.777,22.36L247,190Z" fill="#fff"/><path d="M247,260l11.756,36.18-30.777-22.36h38.042l-30.777,22.36L247,260Z" fill="#fff"/><path d="M288.167,15l11.755,36.1803-30.777-22.3607h38.043L276.411,51.1803L288.167,15Z" fill="#fff"/><path d="M288.167,85l11.755,36.18-30.777-22.3604h38.043L276.411,121.18L288.167,85Z" fill="#fff"/><path d="M288.167,155l11.755,36.18-30.777-22.36h38.043l-30.777,22.36L288.167,155Z" fill="#fff"/><path d="M288.167,225l11.755,36.18-30.777-22.36h38.043l-30.777,22.36L288.167,225Z" fill="#fff"/><path d="M288.167,295l11.755,36.18-30.777-22.36h38.043l-30.777,22.36L288.167,295Z" fill="#fff"/><path d="M329.333,50l11.756,36.1803-30.777-22.3606h38.042L317.578,86.1803L329.333,50Z" fill="#fff"/><path d="M329.333,120l11.756,36.18-30.777-22.36h38.042l-30.776,22.36L329.333,120Z" fill="#fff"/><path d="M329.333,190l11.756,36.18-30.777-22.36h38.042l-30.776,22.36L329.333,190Z" fill="#fff"/><path d="M329.333,260l11.756,36.18-30.777-22.36h38.042l-30.776,22.36L329.333,260Z" fill="#fff"/><path d="M370.5,15l11.756,36.1803-30.777-22.3607h38.042L358.744,51.1803L370.5,15Z" fill="#fff"/><path d="M370.5,85l11.756,36.18-30.777-22.3604h38.042L358.744,121.18L370.5,85Z" fill="#fff"/><path d="M370.5,155l11.756,36.18-30.777-22.36h38.042l-30.777,22.36L370.5,155Z" fill="#fff"/><path d="M370.5,225l11.756,36.18-30.777-22.36h38.042l-30.777,22.36L370.5,225Z" fill="#fff"/><path d="M370.5,295l11.756,36.18-30.777-22.36h38.042l-30.777,22.36L370.5,295Z" fill="#fff"/><path d="M411.667,50l11.755,36.1803-30.776-22.3606h38.042L399.911,86.1803L411.667,50Z" fill="#fff"/><path d="M411.667,120l11.755,36.18-30.776-22.36h38.042l-30.777,22.36L411.667,120Z" fill="#fff"/><path d="M411.667,190l11.755,36.18-30.776-22.36h38.042l-30.777,22.36L411.667,190Z" fill="#fff"/><path d="M411.667,260l11.755,36.18-30.776-22.36h38.042l-30.777,22.36L411.667,260Z" fill="#fff"/><path d="M452.833,15l11.756,36.1803-30.777-22.3607h38.042L441.078,51.1803L452.833,15Z" fill="#fff"/><path d="M452.833,85l11.756,36.18-30.777-22.3604h38.042L441.078,121.18L452.833,85Z" fill="#fff"/><path d="M452.833,155l11.756,36.18-30.777-22.36h38.042l-30.776,22.36L452.833,155Z" fill="#fff"/><path d="M452.833,225l11.756,36.18-30.777-22.36h38.042l-30.776,22.36L452.833,225Z" fill="#fff"/><path d="M452.833,295l11.756,36.18-30.777-22.36h38.042l-30.776,22.36L452.833,295Z" fill="#fff"/></g><text dx="0" dy="0" font-family="&quot;eRNHuhEBagO1:::Open Sans&quot;" font-size="12" font-weight="400" transform="translate(187.510386 0.548553)" fill="#81989a"><tspan y="54.1553" font-weight="400"><![CDATA[
EUR
]]></tspan></text><text dx="0" dy="0" font-family="&quot;eRNHuhEBagO1:::Open Sans&quot;" font-size="12" font-weight="400" transform="translate(276.383931 0.548554)" fill="#81989a"><tspan y="54.1553" font-weight="400"><![CDATA[
GBP
]]></tspan></text><text dx="0" dy="0" font-family="&quot;eRNHuhEBagO1:::Open Sans&quot;" font-size="12" font-weight="400" transform="translate(233.32833 0.548553)" fill="#81989a"><tspan y="54.1553" font-weight="400"><![CDATA[
JPY
]]></tspan></text><rect width="200" height="24" rx="4" ry="4" transform="translate(111.208466 37.880331)" fill="none" stroke="#c1ced0"/><g transform="matrix(.7 0 0 0.7 128.908466 42.580331)"><path d="M390.714286,100L390,100v28.571429h.714286.714286v-28.571429h-.714286Z" transform="translate(-256.381299-104.256427)" fill="#dee0e1"/><path d="M390.714286,100L390,100v28.571429h.714286.714286v-28.571429h-.714286Z" transform="translate(-196.714285-104.256427)" fill="#dee0e1"/><path d="M390.714286,100L390,100v28.571429h.714286.714286v-28.571429h-.714286Z" transform="translate(-321.25928-104.256427)" fill="#dee0e1"/></g></g></g><g display="none" transform="translate(-27 0)"><g><g clip-path="url(#eRNHuhEBagO273)"><g><path d="M510.584,38.001l-3.958,3.9583-2.084-2.0833-3.125,3.125" fill="none" stroke="#3ee27d" stroke-linecap="round" stroke-linejoin="round"/><path d="M508.084,38.001h2.5v2.5" fill="none" stroke="#3ee27d" stroke-linecap="round" stroke-linejoin="round"/></g><clipPath id="eRNHuhEBagO273"><rect width="10" height="10" rx="0" ry="0" transform="translate(501 35.5)" fill="#fff"/></clipPath></g><text dx="0" dy="0" font-family="&quot;eRNHuhEBagO1:::Raleway&quot;" font-size="12" font-weight="500" transform="translate(518.574514 0)" fill="#075864"><tspan y="44.736" font-weight="500"><![CDATA[
0.76%
]]></tspan></text></g><g><g clip-path="url(#eRNHuhEBagO282)"><g><path d="M585.584,38.001l-3.958,3.9583-2.084-2.0833-3.125,3.125" fill="none" stroke="#3ee27d" stroke-linecap="round" stroke-linejoin="round"/><path d="M583.084,38.001h2.5v2.5" fill="none" stroke="#3ee27d" stroke-linecap="round" stroke-linejoin="round"/></g><clipPath id="eRNHuhEBagO282"><rect width="10" height="10" rx="0" ry="0" transform="translate(576 35.5)" fill="#fff"/></clipPath></g><text dx="0" dy="0" font-family="&quot;eRNHuhEBagO1:::Raleway&quot;" font-size="12" font-weight="500" transform="translate(589.552567 0)" fill="#075864"><tspan y="44.736" font-weight="500"><![CDATA[
2.15%
]]></tspan></text></g><g><g clip-path="url(#eRNHuhEBagO291)"><g><path d="M657.584,38.001l-3.958,3.9583-2.084-2.0833-3.125,3.125" fill="none" stroke="#3ee27d" stroke-linecap="round" stroke-linejoin="round"/><path d="M655.084,38.001h2.5v2.5" fill="none" stroke="#3ee27d" stroke-linecap="round" stroke-linejoin="round"/></g><clipPath id="eRNHuhEBagO291"><rect width="10" height="10" rx="0" ry="0" transform="translate(648 35.5)" fill="#fff"/></clipPath></g><text dx="0" dy="0" font-family="&quot;eRNHuhEBagO1:::Raleway&quot;" font-size="12" font-weight="500" transform="translate(661.552567 0)" fill="#075864"><tspan y="44.736" font-weight="500"><![CDATA[
4.61%
]]></tspan></text></g><g><g clip-path="url(#eRNHuhEBagO300)"><g><path d="M730.584,38.001l-3.958,3.9583-2.084-2.0833-3.125,3.125" fill="none" stroke="#3ee27d" stroke-linecap="round" stroke-linejoin="round"/><path d="M728.084,38.001h2.5v2.5" fill="none" stroke="#3ee27d" stroke-linecap="round" stroke-linejoin="round"/></g><clipPath id="eRNHuhEBagO300"><rect width="10" height="10" rx="0" ry="0" transform="translate(721 35.5)" fill="#fff"/></clipPath></g><text dx="0" dy="0" font-family="&quot;eRNHuhEBagO1:::Raleway&quot;" font-size="12" font-weight="500" transform="translate(733.552567 0)" fill="#075864"><tspan y="44.736" font-weight="500"><![CDATA[
13.85%
]]></tspan></text></g></g></g></g></g></g><g transform="translate(-71-24)"><g id="eRNHuhEBagO305" transform="translate(-3.757414-305.30154)"><ellipse id="eRNHuhEBagO306" rx="14.54" ry="14.54" transform="translate(734.297383 490.031087)" opacity="0" fill="none" stroke="#74abf3" stroke-width="2" stroke-opacity="0.48"/><ellipse id="eRNHuhEBagO307" rx="14.54" ry="14.54" transform="translate(734.297383 490.031087)" opacity="0" fill="#a5bce3" fill-opacity="0.48" stroke="#81acd2"/></g></g></g>
<script><![CDATA[
(function(s,i,u,o,c,w,d,t,n,x,e,p,a,b){(a=Array.from(d.querySelectorAll('svg#' + i.root)).filter(n=> !n.svgatorPlayer)[0]||{}).svgatorPlayer={ready:(function(a){b=[];return function(c){return c?(b.push(c),a.svgatorPlayer):b}})(a)};w[o]=w[o]||{};w[o][s]=w[o][s]||[];w[o][s].push(i);e=d.createElementNS(n,t);e.async=true;e.setAttributeNS(x,'href',[u,s,'.','j','s','?','v','=',c].join(''));e.setAttributeNS(null,'src',[u,s,'.','j','s','?','v','=',c].join(''));p=d.getElementsByTagName(t)[0];p.parentNode.insertBefore(e,p);})('91c80d77',{"root":"eRNHuhEBagO1","version":"2025-04-07","animations":[{"elements":{"eRNHuhEBagO3":{"transform":{"data":{"t":{"x":413.01062,"y":-193.176407}},"keys":{"o":[{"t":0,"v":{"x":-418.297648,"y":205.911765,"type":"corner"}},{"t":500,"v":{"x":-454.256401,"y":180.709564,"type":"corner"},"e":[0.387278,1.343319,0.716708,1.605744]},{"t":5000,"v":{"x":-454.256401,"y":180.709564,"type":"corner"}},{"t":5500,"v":{"x":-283.297648,"y":189.911765,"type":"corner"},"e":[0.39,0.575,0.565,1]}],"s":[{"t":0,"v":{"x":0.93,"y":0.93}},{"t":500,"v":{"x":1.03,"y":1.03}},{"t":5000,"v":{"x":1.03,"y":1.03}},{"t":5500,"v":{"x":0.93,"y":0.93},"e":[0.39,0.575,0.565,1]}]}},"opacity":[{"t":0,"v":0,"e":[0.39,0.575,0.565,1]},{"t":500,"v":1},{"t":5000,"v":1},{"t":5500,"v":0,"e":[0.68,-0.55,0.265,1.55]}]},"eRNHuhEBagO4":{"transform":{"data":{"t":{"x":-380.665556,"y":-218.593434}},"keys":{"o":[{"t":0,"v":{"x":335.798924,"y":199.93659,"type":"corner"}},{"t":500,"v":{"x":387.497836,"y":228.19251,"type":"corner"}},{"t":5000,"v":{"x":387.497836,"y":228.19251,"type":"corner"}},{"t":5500,"v":{"x":340.134981,"y":196.354007,"type":"corner"}}],"k":[{"t":0,"v":{"x":-2,"y":0}},{"t":500,"v":{"x":-3,"y":0}},{"t":5000,"v":{"x":-3,"y":0}},{"t":5500,"v":{"x":-2,"y":0}}]}}},"eRNHuhEBagO18":{"transform":{"data":{"s":{"x":0.6,"y":0.6},"t":{"x":-104.336974,"y":-113.793401}},"keys":{"o":[{"t":0,"v":{"x":2.121096,"y":-16.405582,"type":"corner"}},{"t":500,"v":{"x":33.257538,"y":-2.986724,"type":"corner"}},{"t":5000,"v":{"x":34.121616,"y":-2.452743,"type":"corner"}},{"t":5500,"v":{"x":1.951879,"y":-18.775117,"type":"corner"}}],"k":[{"t":0,"v":{"x":-1,"y":0}},{"t":500,"v":{"x":-2,"y":0}},{"t":5000,"v":{"x":-2,"y":0}},{"t":5500,"v":{"x":-1,"y":0}}]}}},"eRNHuhEBagO37":{"transform":{"data":{"t":{"x":-400,"y":-273.901001}},"keys":{"o":[{"t":0,"v":{"x":400,"y":261.711784,"type":"corner"},"e":[0.39,0.575,0.565,1]},{"t":500,"v":{"x":404,"y":263.307595,"type":"corner"}}],"s":[{"t":2200,"v":{"x":1,"y":1},"e":[0.55,0.055,0.675,0.19]},{"t":2500,"v":{"x":0.97,"y":0.97},"e":[0.215,0.61,0.355,1]},{"t":2800,"v":{"x":1,"y":1}}]}}},"eRNHuhEBagO73":{"transform":{"data":{"o":{"x":778.03424,"y":282.697591,"type":"corner"},"t":{"x":-4586.391752,"y":-71.337317}},"keys":{"s":[{"t":2500,"v":{"x":1,"y":1},"e":[0.6,-0.28,0.735,0.045]},{"t":2900,"v":{"x":0.68,"y":1}}]}},"opacity":[{"t":2700,"v":1},{"t":2900,"v":0}]},"eRNHuhEBagO74":{"transform":{"data":{"o":{"x":2355.98424,"y":282.697591,"type":"corner"},"t":{"x":-4586.391752,"y":-71.337317}},"keys":{"s":[{"t":2800,"v":{"x":1.3,"y":1},"e":[0.175,0.885,0.32,1.275]},{"t":3200,"v":{"x":1,"y":1}}]}},"opacity":[{"t":2800,"v":0},{"t":3000,"v":1}]},"eRNHuhEBagO79":{"transform":{"data":{"t":{"x":-385.978196,"y":-436.987884}},"keys":{"o":[{"t":2600,"v":{"x":367.421492,"y":422.554892,"type":"corner"}},{"t":2900,"v":{"x":385.978196,"y":424.000871,"type":"corner"}}]}},"opacity":[{"t":2600,"v":0},{"t":3400,"v":1}]},"eRNHuhEBagO106":{"transform":{"data":{"t":{"x":-384.598709,"y":-421.997849}},"keys":{"o":[{"t":2600,"v":{"x":384.598709,"y":421.997849,"type":"corner"}},{"t":3400,"v":{"x":418.522713,"y":423.519814,"type":"corner"}}]}},"opacity":[{"t":2600,"v":1},{"t":2900,"v":0}]},"eRNHuhEBagO134":{"transform":{"data":{"t":{"x":-24.636241,"y":-10.709458}},"keys":{"o":[{"t":2500,"v":{"x":96.064812,"y":112.099067,"type":"corner"},"e":[0.645,0.045,0.355,1]},{"t":3000,"v":{"x":160.927772,"y":112.099067,"type":"corner"}}]}}},"eRNHuhEBagO141":{"fill":[{"t":2500,"v":{"t":"c","v":{"r":255,"g":255,"b":255,"a":1}}},{"t":2800,"v":{"t":"c","v":{"r":33,"g":33,"b":33,"a":1}}}]},"eRNHuhEBagO143":{"fill":[{"t":2500,"v":{"t":"c","v":{"r":234,"g":234,"b":234,"a":1}}},{"t":2800,"v":{"t":"c","v":{"r":130,"g":130,"b":130,"a":1}}}]},"eRNHuhEBagO146":{"fill":[{"t":2500,"v":{"t":"c","v":{"r":33,"g":33,"b":33,"a":1}}},{"t":2800,"v":{"t":"c","v":{"r":255,"g":255,"b":255,"a":1}}}]},"eRNHuhEBagO148":{"fill":[{"t":2500,"v":{"t":"c","v":{"r":130,"g":130,"b":130,"a":1}}},{"t":2800,"v":{"t":"c","v":{"r":234,"g":234,"b":234,"a":1}}}]},"eRNHuhEBagO174":{"transform":{"data":{"t":{"x":-50,"y":-111.610001}},"keys":{"o":[{"t":2800,"v":{"x":324.892812,"y":305.221012,"type":"corner"},"e":[0.55,0.085,0.68,0.53]},{"t":2900,"v":{"x":628.805907,"y":305.221012,"type":"corner"}}]}},"opacity":[{"t":2400,"v":1},{"t":2600,"v":0},{"t":3200,"v":0},{"t":3400,"v":1}]},"eRNHuhEBagO190":{"transform":{"data":{"t":{"x":-400,"y":-40.5}},"keys":{"o":[{"t":0,"v":{"x":400,"y":47.459349,"type":"corner"}},{"t":500,"v":{"x":403.999969,"y":44.232759,"type":"corner"}}]}}},"eRNHuhEBagO305":{"transform":{"data":{"t":{"x":-734.29738,"y":-490.031087}},"keys":{"o":[{"t":1200,"v":{"x":730.539966,"y":184.729547,"type":"corner"}},{"t":1300,"v":{"x":226.975865,"y":219.424864,"type":"corner"},"e":[0.25,0.46,0.45,0.94]},{"t":2100,"v":{"x":188.10914,"y":91.564441,"type":"corner"}}]}}},"eRNHuhEBagO306":{"transform":{"data":{"o":{"x":734.297383,"y":490.031087,"type":"corner"}},"keys":{"s":[{"t":2200,"v":{"x":1,"y":1},"e":[0.42,0,0.58,1]},{"t":2500,"v":{"x":2.101332,"y":2.101332}}]}},"opacity":[{"t":2200,"v":0,"e":[0.42,0,0.58,1]},{"t":2330,"v":1,"e":[0.42,0,0.58,1]},{"t":2500,"v":0}]},"eRNHuhEBagO307":{"transform":{"data":{"o":{"x":734.297383,"y":490.031087,"type":"corner"}},"keys":{"s":[{"t":2100,"v":{"x":1,"y":1},"e":[0.433963,0,0.659745,0.689596]},{"t":2400,"v":{"x":0.92,"y":0.92}},{"t":2500,"v":{"x":1,"y":1}}]}},"opacity":[{"t":1300,"v":0,"e":[0.42,0,0.58,1]},{"t":2100,"v":1,"e":[0.42,0,0.58,1]},{"t":2400,"v":0}]}},"s":"MDRA1ZDk4M2Y4MCTkyOGY3ZTkxWODY4YzhiM2ZHUNTc1MjUyVjARkTDRkNDkzZVjgxODY4ZjgyYODA5MTg2WThPjOGIzZjU3NGJU0OTNmODY5MUTgyOGY3ZTkxNODY4YzhiOTANzZkk1NzRkNDEkzZjgzODY4OAUE4OTNmNTc0CZTQ5M2Y3ZTgD5OTE4MjhmOGRI3ZTkxODIzZYjU3ODM3ZTg5SOTA4MjQ5M2YD5MDhkODI4MjJgxM2Y1NzRlNHDkzZjgzOGQ5BMEYzZjU3QjRBlNGQ0ZDlh"}],"options":"MDLAxMDgyMjk3YWTdiTzY4Nzk3NYkIyOTQxMjkG3Mzc2Njg2YjGI5ODQ/"},'https://cdn.svgator.com/ply/','__SVGATOR_PLAYER__','2025-04-07',window,document,'script','http://www.w3.org/2000/svg','http://www.w3.org/1999/xlink')
]]></script>

<style><![CDATA[
@font-face {font-family: 'eRNHuhEBagO1:::Open Sans';font-style: normal;font-weight: 400;font-stretch: normal;src: url(https://fonts.gstatic.com/l/font?kit=memSYaGs126MiZpBA-UvWbX2vVnXBbObj2OVZyOOSr4dVJWUgsjZ0C4ne28e4II8UB53qS8NKr3dNIsQYZbj4zX5KLWzmtyXpBmNtK57nsP9F1Kc7EGxfipcER_bbA1ddAMDhQ&skey=62c1cbfccc78b4b2&v=v43) format('truetype');}@font-face {font-family: 'eRNHuhEBagO1:::Open Sans';font-style: normal;font-weight: 600;font-stretch: normal;src: url(https://fonts.gstatic.com/l/font?kit=memSYaGs126MiZpBA-UvWbX2vVnXBbObj2OVZyOOSr4dVJWUgsgH1y4ne28e4II8UB53qS8NKr3dNIsQYZbj4zX5KLWzmtyXpBmNtK57nsP9F1Kc7EGxfipcER_bbA1ddAMDhQ&skey=62c1cbfccc78b4b2&v=v43) format('truetype');}@font-face {font-family: 'eRNHuhEBagO1:::Raleway';font-style: normal;font-weight: 500;src: url(https://fonts.gstatic.com/l/font?kit=1Ptxg8zYS_SKggPN4iEgvnHyvveLxVvoooCPLIwfABxx7-GVUBN0tDQ-67CvTjXO3F9FVS-pV9q5cLqxWGNhjlhz4ACUlxcGnYMK0hqe2uTWW7-xXQ&skey=30a27f2564731c64&v=v36) format('truetype');}
]]></style>
</svg>
