<svg id="eCq34BFoNcW1" xmlns="http://www.w3.org/2000/svg" xmlns:xlink="http://www.w3.org/1999/xlink" viewBox="0 0 894 504" shape-rendering="geometricPrecision" text-rendering="geometricPrecision" project-id="b351f93e20264cdd832319e79cd83a47" export-id="349871246d264bcaaaedfa60b1ce3f4f" cached="false" width="894" height="504"><defs><filter id="eCq34BFoNcW17-filter" x="-150%" y="-150%" width="400%" height="400%"><feGaussianBlur id="eCq34BFoNcW17-filter-blur-0" stdDeviation="10,10" result="result"/></filter><filter id="eCq34BFoNcW37-filter" x="-150%" y="-150%" width="400%" height="400%"><feGaussianBlur id="eCq34BFoNcW37-filter-blur-0" stdDeviation="10,10" result="result"/></filter><linearGradient id="eCq34BFoNcW40-fill" x1="36.5" y1="0" x2="36.5" y2="415" spreadMethod="pad" gradientUnits="userSpaceOnUse" gradientTransform="translate(0 0)"><stop id="eCq34BFoNcW40-fill-0" offset="0%" stop-color="#0278c9"/><stop id="eCq34BFoNcW40-fill-1" offset="100%" stop-color="#00c7ec"/></linearGradient><linearGradient id="eCq34BFoNcW80-stroke" x1="93" y1="255.5" x2="768" y2="255.5" spreadMethod="pad" gradientUnits="userSpaceOnUse" gradientTransform="translate(0 0)"><stop id="eCq34BFoNcW80-stroke-0" offset="0%" stop-color="#d3d1d1"/><stop id="eCq34BFoNcW80-stroke-1" offset="100%" stop-color="rgba(211,209,209,0)"/></linearGradient><linearGradient id="eCq34BFoNcW81-stroke" x1="93" y1="255.5" x2="768" y2="255.5" spreadMethod="pad" gradientUnits="userSpaceOnUse" gradientTransform="translate(0 0)"><stop id="eCq34BFoNcW81-stroke-0" offset="0%" stop-color="#d3d1d1"/><stop id="eCq34BFoNcW81-stroke-1" offset="100%" stop-color="rgba(211,209,209,0)"/></linearGradient><linearGradient id="eCq34BFoNcW92-stroke" x1="93" y1="291.5" x2="768" y2="291.5" spreadMethod="pad" gradientUnits="userSpaceOnUse" gradientTransform="translate(0 0)"><stop id="eCq34BFoNcW92-stroke-0" offset="0%" stop-color="#d3d1d1"/><stop id="eCq34BFoNcW92-stroke-1" offset="100%" stop-color="rgba(211,209,209,0)"/></linearGradient><linearGradient id="eCq34BFoNcW103-stroke" x1="93" y1="327.5" x2="768" y2="327.5" spreadMethod="pad" gradientUnits="userSpaceOnUse" gradientTransform="translate(0 0)"><stop id="eCq34BFoNcW103-stroke-0" offset="0%" stop-color="#d3d1d1"/><stop id="eCq34BFoNcW103-stroke-1" offset="100%" stop-color="rgba(211,209,209,0)"/></linearGradient><linearGradient id="eCq34BFoNcW114-stroke" x1="93" y1="363.5" x2="768" y2="363.5" spreadMethod="pad" gradientUnits="userSpaceOnUse" gradientTransform="translate(0 0)"><stop id="eCq34BFoNcW114-stroke-0" offset="0%" stop-color="#d3d1d1"/><stop id="eCq34BFoNcW114-stroke-1" offset="100%" stop-color="rgba(211,209,209,0)"/></linearGradient></defs><g transform="translate(88.037109 47.504524)"><g id="eCq34BFoNcW3" transform="matrix(.93 0 0 0.93-71.491636 5.70959)" opacity="0"><g id="eCq34BFoNcW4" transform="matrix(1 0-.034921 1 7.01025-9.865108)" opacity="0.78"><rect width="864.178489" height="454.07989" rx="12" ry="12" transform="matrix(.914163 0 0 0.978814-4.153565-.898735)" fill="#fff"/><g transform="matrix(.6 0 0 0.6-68.054463-41.059002)"><g transform="translate(-7.669178-281.049428)"><text dx="0" dy="0" font-family="&quot;eCq34BFoNcW1:::Open Sans&quot;" font-size="12" font-weight="400" letter-spacing="0.428571" fill="#6f6c99"><tspan x="1372.66" y="736.655" font-family="&quot;eCq34BFoNcW1:::Open Sans&quot;" font-size="12" font-weight="400" font-style="normal" letter-spacing="0.428571" fill="#6f6c99"><![CDATA[
5.000
]]></tspan></text><text dx="0" dy="0" font-family="&quot;eCq34BFoNcW1:::Open Sans&quot;" font-size="12" font-weight="400" letter-spacing="0.428571" fill="#6f6c99"><tspan x="1372.66" y="696.655" font-family="&quot;eCq34BFoNcW1:::Open Sans&quot;" font-size="12" font-weight="400" font-style="normal" letter-spacing="0.428571" fill="#6f6c99"><![CDATA[
5.500
]]></tspan></text><text dx="0" dy="0" font-family="&quot;eCq34BFoNcW1:::Open Sans&quot;" font-size="12" font-weight="400" letter-spacing="0.428571" transform="translate(-.127927-2.440998)" fill="#6f6c99"><tspan x="1372.66" y="656.655" font-family="&quot;eCq34BFoNcW1:::Open Sans&quot;" font-size="12" font-weight="400" font-style="normal" letter-spacing="0.428571" fill="#6f6c99"><![CDATA[
6.000
]]></tspan></text><text dx="0" dy="0" font-family="&quot;eCq34BFoNcW1:::Open Sans&quot;" font-size="12" font-weight="400" letter-spacing="0.428571" fill="#6f6c99"><tspan x="1372.66" y="616.655" font-family="&quot;eCq34BFoNcW1:::Open Sans&quot;" font-size="12" font-weight="400" font-style="normal" letter-spacing="0.428571" fill="#6f6c99"><![CDATA[
6.500
]]></tspan></text></g></g></g><g id="eCq34BFoNcW16" transform="matrix(.6 0-.010473 0.6-12.776972-79.494043)" opacity="0.88"><rect width="1316.666667" height="744.409614" rx="18" ry="18" transform="translate(38.797076 117.090615)" opacity="0.14" filter="url(#eCq34BFoNcW17-filter)" fill="#46bcff"/><rect width="1316.666667" height="744.409614" rx="18" ry="18" transform="translate(22.27681 107.381877)" fill="#fff"/><g transform="matrix(.748171 0 0 0.748171 272.525486 99.940764)"><text dx="0" dy="0" font-family="&quot;eCq34BFoNcW1:::Open Sans&quot;" font-size="12" font-weight="300" fill="#1b0dd4"><tspan x="1352" y="517.655" font-family="&quot;eCq34BFoNcW1:::Open Sans&quot;" font-size="12" font-weight="300" font-style="normal" fill="#1b0dd4"><![CDATA[
See All
]]></tspan></text><text dx="0" dy="0" font-family="&quot;eCq34BFoNcW1:::Open Sans&quot;" font-size="12" font-weight="400" transform="translate(1332.695348 0)" fill="#6f6c99"><tspan y="806.655" font-weight="400"><![CDATA[
08/26/2018
]]></tspan></text><text dx="0" dy="0" font-family="&quot;eCq34BFoNcW1:::Open Sans&quot;" font-size="12" font-weight="400" transform="translate(1334.680187 0)" fill="#6f6c99"><tspan y="858.655" font-weight="400"><![CDATA[
08/26/2018
]]></tspan></text><text dx="0" dy="0" font-family="&quot;eCq34BFoNcW1:::Open Sans&quot;" font-size="12" font-weight="400" transform="translate(1337.654099 0)" fill="#6f6c99"><tspan y="948.655" font-weight="400"><![CDATA[
08/26/2018
]]></tspan></text><text dx="0" dy="0" font-family="&quot;eCq34BFoNcW1:::Open Sans&quot;" font-size="12" font-weight="400" transform="translate(1335.963035 2.705225)" fill="#6f6c99"><tspan y="897.655" font-weight="400"><![CDATA[
08/26/2018
]]></tspan></text><rect width="189" height="73" rx="9.5" ry="9.5" transform="translate(1206.5 652.5)" fill="none" stroke="#e2e2e8" stroke-dasharray="4,4"/><circle r="9.5" transform="translate(1332.5 53.5)" fill="none" stroke="#6f6c99" stroke-width="2"/><path d="M1339,61l4.79,4.7929" fill="none" stroke="#6f6c99" stroke-width="2"/><path d="M1382,61c1.1,0,2,.8954,2,2s-.9,2-2,2-2-.8954-2-2s.9-2,2-2Zm8,0c1.1,0,2,.8954,2,2s-.9,2-2,2-2-.8954-2-2s.9-2,2-2Zm8,0c1.1,0,2,.8954,2,2s-.9,2-2,2-2-.8954-2-2s.9-2,2-2Zm-16-8c1.1,0,2,.8954,2,2s-.9,2-2,2-2-.8954-2-2s.9-2,2-2Zm8,0c1.1,0,2,.8954,2,2s-.9,2-2,2-2-.8954-2-2s.9-2,2-2Zm8,0c1.1,0,2,.8954,2,2s-.9,2-2,2-2-.8954-2-2s.9-2,2-2Zm-16-8c1.1,0,2,.8954,2,2s-.9,2-2,2-2-.8954-2-2s.9-2,2-2Zm8,0c1.1,0,2,.8954,2,2s-.9,2-2,2-2-.8954-2-2s.9-2,2-2Zm8,0c1.1,0,2,.8954,2,2s-.9,2-2,2-2-.8954-2-2s.9-2,2-2Z" fill="#6f6c99"/><rect width="413" height="108" rx="0" ry="0" transform="translate(991.5 251)" opacity="0.05" fill="#6f6c99"/><path d="M1389.5,263c0,1.105-.9,2-2,2s-2-.895-2-2s.9-2,2-2s2,.895,2,2Zm0,7c0,1.105-.9,2-2,2s-2-.895-2-2s.9-2,2-2s2,.895,2,2Zm0,7c0,1.105-.9,2-2,2s-2-.895-2-2s.9-2,2-2s2,.895,2,2Z" fill="#6f6c99"/></g></g><g><rect width="795.145631" height="449.514563" rx="12" ry="12" transform="translate(-.932284-4.645632)" opacity="0.14" filter="url(#eCq34BFoNcW37-filter)" fill="#46bcff"/><rect width="795.145631" height="449.514563" rx="12" ry="12" transform="translate(-10.641022-9.5)" fill="#fff"/><g transform="translate(-1.941748-.970874)"><rect width="73" height="431" rx="10" ry="10" fill="url(#eCq34BFoNcW40-fill)"/><g transform="translate(0 8.232132)"><path d="M43.2004,92.1847l-4.8-3.3583c-1.3084-.9167-3.3167-.8667-4.575.1083l-4.175,3.2583c-.8334.65-1.4917,1.9834-1.4917,3.0334v5.7496c0,2.125,1.725,3.859,3.85,3.859h8.9833c2.125,0,3.85-1.725,3.85-3.85v-5.6503c0-1.125-.725-2.5083-1.6416-3.15Zm-6.075,9.3163c0,.342-.2834.625-.625.625s-.625-.283-.625-.625v-2.4996c0-.3417.2833-.625.625-.625s.625.2833.625.625v2.4996Z" fill="#fff"/><g><rect width="73" height="42" rx="0" ry="0" transform="translate(0 126.5)" fill="#004a77"/><g><path d="M33.5003,139.167c-2.1833,0-3.9583,1.775-3.9583,3.958c0,2.142,1.675,3.875,3.8583,3.95.0667-.008.1334-.008.1834,0c.0166,0,.025,0,.0416,0c.0084,0,.0084,0,.0167,0c2.1333-.075,3.8083-1.808,3.8167-3.95c0-2.183-1.775-3.958-3.9584-3.958Z" fill="#fff"/><path d="M37.7333,149.292c-2.325-1.55-6.1167-1.55-8.4583,0-1.0584.709-1.6417,1.667-1.6417,2.692s.5833,1.975,1.6333,2.675c1.1667.783,2.7,1.175,4.2334,1.175c1.5333,0,3.0666-.392,4.2333-1.175c1.05-.708,1.6333-1.658,1.6333-2.692-.0083-1.025-.5833-1.975-1.6333-2.675Z" fill="#fff"/><path d="M42.6588,143.617c.1333,1.616-1.0167,3.033-2.6083,3.225-.0084,0-.0084,0-.0167,0h-.025c-.05,0-.1,0-.1417.016-.8083.042-1.55-.216-2.1083-.691.8583-.767,1.35-1.917,1.25-3.167-.0583-.675-.2917-1.292-.6417-1.817.3167-.158.6834-.258,1.0584-.291c1.6333-.142,3.0916,1.075,3.2333,2.725Z" fill="#fff"/><path d="M44.3254,151.324c-.0667.809-.5834,1.509-1.45,1.984-.8334.458-1.8834.675-2.925.65.6-.542.95-1.217,1.0166-1.934.0834-1.033-.4083-2.025-1.3916-2.816-.5584-.442-1.2084-.792-1.9167-1.05c1.8417-.534,4.1583-.175,5.5833.975.7667.616,1.1584,1.391,1.0834,2.191Z" fill="#fff"/></g></g><g><path d="M44.0005,247.458h-15c-.3417,0-.625-.283-.625-.625s.2833-.625.625-.625h15c.3417,0,.625.283.625.625s-.2833.625-.625.625Z" fill="#fff"/><path d="M31.1662,235.482h-1.3334c-.4583,0-.8333.375-.8333.834v7.183c0,.458.375.833.8333.833h1.3334c.4583,0,.8333-.375.8333-.833v-7.183c0-.467-.375-.834-.8333-.834Z" fill="#fff"/><path d="M37.1662,232.826h-1.3334c-.4583,0-.8333.375-.8333.833v9.842c0,.458.375.833.8333.833h1.3334c.4583,0,.8333-.375.8333-.833v-9.842c0-.458-.375-.833-.8333-.833Z" fill="#fff"/><path d="M43.1667,230.167h-1.3334c-.4583,0-.8333.375-.8333.833v12.5c0,.459.375.834.8333.834h1.3334c.4583,0,.8333-.375.8333-.834v-12.5c0-.458-.375-.833-.8333-.833Z" fill="#fff"/></g><g><path d="M44.8338,272.541v9.909c0,.808-.6583,1.55-1.4666,1.65l-.2584.033c-1.3666.183-3.2916.75-4.8416,1.4-.5417.225-1.1417-.183-1.1417-.775v-11.592c0-.308.175-.591.45-.741c1.525-.825,3.8333-1.559,5.4-1.692h.05c1,0,1.8083.808,1.8083,1.808Z" fill="#fff"/><path d="M35.4249,272.425c-1.525-.825-3.8334-1.559-5.4-1.692h-.0584c-1,0-1.8083.808-1.8083,1.808v9.909c0,.808.6583,1.55,1.4667,1.65l.2583.033c1.3667.183,3.2917.75,4.8417,1.4.5416.225,1.1416-.183,1.1416-.775v-11.592c0-.316-.1666-.591-.4416-.741Zm-4.7584,2.525h1.875c.3417,0,.625.283.625.625c0,.35-.2833.625-.625.625h-1.875c-.3416,0-.625-.275-.625-.625c0-.342.2834-.625.625-.625Zm2.5,3.75h-2.5c-.3416,0-.625-.275-.625-.625c0-.342.2834-.625.625-.625h2.5c.3417,0,.625.283.625.625c0,.35-.2833.625-.625.625Z" transform="translate(.2173 0)" fill="#fff"/></g><g transform="translate(0 0.000001)"><path d="M31.5002,199.333c-2.3,0-4.1667,1.859-4.1667,4.167s1.8667,4.167,4.1667,4.167s4.1666-1.867,4.1666-4.167-1.8583-4.167-4.1666-4.167Zm-1.7,2.467h1.7c.3166,0,.5666.258.5666.567c0,.308-.25.566-.5666.566h-1.7c-.3167,0-.5667-.258-.5667-.566c0-.309.25-.567.5667-.567Zm3.4,3.4h-3.4c-.3167,0-.5667-.258-.5667-.567c0-.308.2583-.566.5667-.566h3.4083c.3167,0,.5667.258.5667.566c0,.309-.2584.567-.575.567Z" fill="#fff"/><path d="M40.667,191h-8.3333c-2.5,0-4.1667,1.25-4.1667,4.166v2.617c0,.608.625.992,1.1833.75.9167-.4,1.9584-.55,3.05-.375c2.1834.358,3.9667,2.083,4.4084,4.25.125.633.1416,1.25.0583,1.842-.0667.491.3333.925.825.925h2.975c2.5,0,4.1667-1.25,4.1667-4.167v-5.842c0-2.916-1.6667-4.166-4.1667-4.166Zm.3917,4.658l-2.6084,2.083c-.55.442-1.25.659-1.95.659s-1.4083-.217-1.95-.659l-2.6083-2.083c-.2667-.217-.3083-.617-.1-.883.2167-.267.6083-.317.875-.1l2.6083,2.083c.6334.508,1.7084.508,2.3417,0l2.6083-2.083c.2667-.217.6667-.175.875.1.2167.266.175.666-.0916.883Z" fill="#fff"/></g><path d="M43.2503,316.183c-1.5083,0-2.125-1.066-1.375-2.375.4334-.758.175-1.725-.5833-2.158l-1.4417-.825c-.6583-.392-1.5083-.158-1.9.5l-.0916.158c-.75,1.309-1.9834,1.309-2.7417,0l-.0917-.158c-.375-.658-1.225-.892-1.8833-.5l-1.4417.825c-.7583.433-1.0166,1.408-.5833,2.167.7583,1.3.1417,2.366-1.3667,2.366-.8666,0-1.5833.709-1.5833,1.584v1.466c0,.867.7083,1.584,1.5833,1.584c1.5084,0,2.125,1.066,1.3667,2.375-.4333.758-.175,1.725.5833,2.158l1.4417.825c.6583.392,1.5083.158,1.9-.5l.0917-.158c.75-1.309,1.9833-1.309,2.7416,0l.0917.158c.3917.658,1.2417.892,1.9.5l1.4417-.825c.7583-.433,1.0166-1.408.5833-2.158-.7583-1.309-.1417-2.375,1.3667-2.375.8666,0,1.5833-.709,1.5833-1.584v-1.466c-.0083-.867-.7167-1.584-1.5917-1.584Zm-6.75,5.025c-1.4916,0-2.7083-1.216-2.7083-2.708s1.2167-2.708,2.7083-2.708s2.7084,1.216,2.7084,2.708-1.2167,2.708-2.7084,2.708Z" fill="#fff"/></g></g><g id="eCq34BFoNcW62" transform="translate(-3.223799 6.243414)"><rect width="699" height="265" rx="4" ry="4" transform="translate(81 159)" fill="#fff"/><g><g><path d="M81.17131,164.18465c-.17131-3.246991.358427-5.263705,4.833732-5.263705L260,159l-17.86,34.194c-1.997,4.16-6.203,6.806-10.817,6.806L82,200c-.5523,0-1-.448-1-1l.17131-34.81535Z" fill="#028ed3"/><text dx="0" dy="0" font-family="&quot;eCq34BFoNcW1:::Outfit&quot;" font-size="20" font-weight="600" fill="#fff"><tspan x="105" y="187.9" font-family="&quot;eCq34BFoNcW1:::Outfit&quot;" font-size="20" font-weight="600" font-style="normal" fill="#fff"><![CDATA[
Loan Details
]]></tspan></text></g><g transform="translate(8.140996 21.868559)"><g><text dx="0" dy="0" font-family="&quot;eCq34BFoNcW1:::Outfit&quot;" font-size="14" font-weight="400" fill="#8a8a8a"><tspan x="93" y="242.18" font-family="&quot;eCq34BFoNcW1:::Outfit&quot;" font-size="14" font-weight="400" font-style="normal" fill="#8a8a8a"><![CDATA[
Balance:
]]></tspan></text><text dx="0" dy="0" font-family="&quot;eCq34BFoNcW1:::Outfit&quot;" font-size="16" font-weight="400" transform="translate(153.565632 0)" fill="#212121"><tspan y="242.92" font-weight="400"><![CDATA[
$3,541.67
]]></tspan></text></g><g><text dx="0" dy="0" font-family="&quot;eCq34BFoNcW1:::Outfit&quot;" font-size="14" font-weight="400" fill="#8a8a8a"><tspan x="345" y="242.18" font-family="&quot;eCq34BFoNcW1:::Outfit&quot;" font-size="14" font-weight="400" font-style="normal" fill="#8a8a8a"><![CDATA[
Payoff:
]]></tspan></text><text dx="0" dy="0" font-family="&quot;eCq34BFoNcW1:::Outfit&quot;" font-size="16" font-weight="400" transform="translate(398.192501 0)" fill="#212121"><tspan y="242.92" font-weight="400"><![CDATA[
$3,791.67
]]></tspan></text></g><path d="M93,255h675" transform="translate(0-37.149735)" fill="none" stroke="url(#eCq34BFoNcW80-stroke)"/><path d="M93,255h675" fill="none" stroke="url(#eCq34BFoNcW81-stroke)"/><g><text dx="0" dy="0" font-family="&quot;eCq34BFoNcW1:::Outfit&quot;" font-size="14" font-weight="400" fill="#8a8a8a"><tspan x="93" y="278.18" font-family="&quot;eCq34BFoNcW1:::Outfit&quot;" font-size="14" font-weight="400" font-style="normal" fill="#8a8a8a"><![CDATA[
Amount:
]]></tspan></text><text dx="0" dy="0" font-family="&quot;eCq34BFoNcW1:::Outfit&quot;" font-size="16" font-weight="400" transform="translate(152.155932 0)" fill="#212121"><tspan y="278.92" font-weight="400"><![CDATA[
$5,000.00
]]></tspan></text></g><g><text dx="0" dy="0" font-family="&quot;eCq34BFoNcW1:::Outfit&quot;" font-size="14" font-weight="400" transform="translate(0-.300696)" fill="#8a8a8a"><tspan x="345" y="278.18" font-family="&quot;eCq34BFoNcW1:::Outfit&quot;" font-size="14" font-weight="400" font-style="normal" fill="#8a8a8a"><![CDATA[
Term:
]]></tspan></text><text dx="0" dy="0" font-family="&quot;eCq34BFoNcW1:::Outfit&quot;" font-size="16" font-weight="400" transform="translate(389.206258-.488863)" fill="#212121"><tspan y="278.92" font-weight="400"><![CDATA[
24 months 
]]></tspan></text></g><path d="M93,291h675" fill="none" stroke="url(#eCq34BFoNcW92-stroke)"/><g><text dx="0" dy="0" font-family="&quot;eCq34BFoNcW1:::Outfit&quot;" font-size="14" font-weight="400" fill="#8a8a8a"><tspan x="93" y="314.18" font-family="&quot;eCq34BFoNcW1:::Outfit&quot;" font-size="14" font-weight="400" font-style="normal" fill="#8a8a8a"><![CDATA[
Loan type:
]]></tspan></text><text dx="0" dy="0" font-family="&quot;eCq34BFoNcW1:::Outfit&quot;" font-size="16" font-weight="400" fill="#212121"><tspan x="163" y="314.92" font-family="&quot;eCq34BFoNcW1:::Outfit&quot;" font-size="16" font-weight="400" font-style="normal" fill="#212121"><![CDATA[
Cash
]]></tspan></text></g><g transform="translate(0 0.000001)"><text dx="0" dy="0" font-family="&quot;eCq34BFoNcW1:::Outfit&quot;" font-size="14" font-weight="400" fill="#8a8a8a"><tspan x="345" y="314.18" font-family="&quot;eCq34BFoNcW1:::Outfit&quot;" font-size="14" font-weight="400" font-style="normal" fill="#8a8a8a"><![CDATA[
Loan description:
]]></tspan></text><text dx="0" dy="0" font-family="&quot;eCq34BFoNcW1:::Outfit&quot;" font-size="16" font-weight="400" transform="translate(458.158964 0)" fill="#212121"><tspan y="314.92" font-weight="400"><![CDATA[
Unsecured - Standard 
]]></tspan></text></g><path d="M93,327h675" fill="none" stroke="url(#eCq34BFoNcW103-stroke)"/><g><text dx="0" dy="0" font-family="&quot;eCq34BFoNcW1:::Outfit&quot;" font-size="14" font-weight="400" transform="translate(92.155932 0)" fill="#8a8a8a"><tspan y="350.18" font-weight="400"><![CDATA[
Origination fee:
]]></tspan></text><text dx="0" dy="0" font-family="&quot;eCq34BFoNcW1:::Outfit&quot;" font-size="16" font-weight="400" transform="translate(195 0)" fill="#212121"><tspan y="350.92" font-weight="400"><![CDATA[
$250.00
]]></tspan></text></g><g transform="translate(0 0.000001)"><text dx="0" dy="0" font-family="&quot;eCq34BFoNcW1:::Outfit&quot;" font-size="14" font-weight="400" transform="translate(344.870447 0)" fill="#8a8a8a"><tspan y="350.18" font-weight="400"><![CDATA[
Processing fee:
]]></tspan></text><text dx="0" dy="0" font-family="&quot;eCq34BFoNcW1:::Outfit&quot;" font-size="16" font-weight="400" transform="translate(445.540562 0)" fill="#212121"><tspan y="350.92" font-weight="400"><![CDATA[
$100.00
]]></tspan></text></g><path d="M93,363h675" fill="none" stroke="url(#eCq34BFoNcW114-stroke)"/><g><text dx="0" dy="0" font-family="&quot;eCq34BFoNcW1:::Outfit&quot;" font-size="14" font-weight="400" fill="#8a8a8a"><tspan x="93" y="386.18" font-family="&quot;eCq34BFoNcW1:::Outfit&quot;" font-size="14" font-weight="400" font-style="normal" fill="#8a8a8a"><![CDATA[
Maturity:
]]></tspan></text><text dx="0" dy="0" font-family="&quot;eCq34BFoNcW1:::Outfit&quot;" font-size="16" font-weight="400" fill="#212121"><tspan x="154" y="386.92" font-family="&quot;eCq34BFoNcW1:::Outfit&quot;" font-size="16" font-weight="400" font-style="normal" fill="#212121"><![CDATA[
07/14/2024
]]></tspan></text><g><path d="M253.865,375.022v-1.105c0-.29-.241-.531-.531-.531-.291,0-.532.241-.532.531v1.062h-4.604v-1.062c0-.29-.241-.531-.531-.531s-.531.241-.531.531v1.105c-1.913.177-2.841,1.317-2.982,3.01-.015.206.155.376.354.376h11.985c.205,0,.375-.177.354-.376-.142-1.693-1.07-2.833-2.982-3.01Z" fill="#b5b4b4"/><path d="M256.167,379.47h-11.334c-.389,0-.708.319-.708.709v4.363c0,2.125,1.062,3.542,3.542,3.542h5.666c2.479,0,3.542-1.417,3.542-3.542v-4.363c0-.39-.319-.709-.708-.709Zm-7.643,5.929c-.036.028-.071.064-.106.085-.043.028-.086.05-.128.064-.043.021-.085.035-.128.042-.049.007-.092.014-.141.014-.092,0-.184-.021-.269-.056-.092-.036-.163-.085-.234-.149-.128-.135-.206-.319-.206-.503s.078-.368.206-.503c.071-.064.142-.113.234-.149.127-.056.269-.07.41-.042.043.007.085.021.128.042.042.015.085.036.128.064.035.028.07.057.106.085.127.135.205.319.205.503s-.078.368-.205.503Zm0-2.479c-.135.127-.319.205-.503.205s-.369-.078-.503-.205c-.128-.135-.206-.319-.206-.503s.078-.368.206-.503c.198-.198.51-.262.772-.149.092.036.17.085.234.149.127.135.205.319.205.503s-.078.368-.205.503Zm2.479,2.479c-.135.127-.319.205-.503.205s-.368-.078-.503-.205c-.127-.135-.205-.319-.205-.503s.078-.368.205-.503c.262-.262.744-.262,1.006,0c.127.135.205.319.205.503s-.078.368-.205.503Zm0-2.479c-.036.028-.071.056-.106.085-.043.028-.085.049-.128.064-.042.021-.085.035-.127.042-.05.007-.092.014-.142.014-.184,0-.368-.078-.503-.205-.127-.135-.205-.319-.205-.503s.078-.368.205-.503c.064-.064.142-.113.234-.149.262-.113.574-.049.772.149.127.135.205.319.205.503s-.078.368-.205.503Zm2.479,2.479c-.135.127-.319.205-.503.205s-.368-.078-.503-.205c-.127-.135-.205-.319-.205-.503s.078-.368.205-.503c.262-.262.744-.262,1.006,0c.128.135.205.319.205.503s-.077.368-.205.503Zm0-2.479c-.035.028-.071.056-.106.085-.043.028-.085.049-.128.064-.042.021-.085.035-.127.042-.05.007-.099.014-.142.014-.184,0-.368-.078-.503-.205-.127-.135-.205-.319-.205-.503s.078-.368.205-.503c.071-.064.142-.113.234-.149.127-.056.269-.071.411-.042.042.007.085.021.127.042.043.014.085.036.128.064.035.028.071.057.106.085.128.135.205.319.205.503s-.077.368-.205.503Z" fill="#b5b4b4"/></g></g><g transform="translate(.000001 0.000001)"><text dx="0" dy="0" font-family="&quot;eCq34BFoNcW1:::Outfit&quot;" font-size="14" font-weight="400" transform="translate(344.720003 0)" fill="#8a8a8a"><tspan y="386.18" font-weight="400"><![CDATA[
Total repayment:
]]></tspan></text><text dx="0" dy="0" font-family="&quot;eCq34BFoNcW1:::Outfit&quot;" font-size="16" font-weight="400" transform="translate(455.637341 0)" fill="#212121"><tspan y="386.92" font-weight="400"><![CDATA[
$6,350.00
]]></tspan></text></g><g transform="translate(-252.083025-35.716405)"><text dx="0" dy="0" font-family="&quot;eCq34BFoNcW1:::Outfit&quot;" font-size="14" font-weight="400" transform="translate(345.856216 0.743262)" fill="#8a8a8a"><tspan y="242.18" font-weight="400"><![CDATA[
Status: 
]]></tspan></text><text dx="0" dy="0" font-family="&quot;eCq34BFoNcW1:::Outfit&quot;" font-size="16" font-weight="400" transform="translate(394.738957 0)" fill="#212121"><tspan y="242.92" font-weight="400"><![CDATA[
Current✔️
]]></tspan></text></g></g></g><g transform="translate(0 0.43103)"><g><rect id="eCq34BFoNcW135" width="141.819605" height="26.342717" rx="4" ry="4" transform="translate(630.043109 167.568976)" fill="#008658" stroke-width="0"/><g><text id="eCq34BFoNcW137" dx="0" dy="0" font-family="&quot;eCq34BFoNcW1:::Outfit&quot;" font-size="16" font-weight="600" transform="translate(641.081566-.847803)" fill="#fff"><tspan y="186.92" font-weight="600"><![CDATA[
Multi-channel
]]></tspan></text><text dx="0" dy="0" font-family="&quot;eCq34BFoNcW1:::Outfit&quot;" font-size="16" font-weight="500" transform="translate(405.727026-.394552)" fill="#2f383d"><tspan y="186.92" font-weight="500"><![CDATA[
Delinquency Communications: 
]]></tspan></text><text id="eCq34BFoNcW141" dx="0" dy="0" font-family="&quot;eCq34BFoNcW1:::Outfit&quot;" font-size="16" font-weight="600" transform="translate(651.147191 25.485501)" opacity="0" fill="#fff"><tspan y="186.92" font-weight="600"><![CDATA[
Digital Only 
]]></tspan></text></g></g><path id="eCq34BFoNcW143" d="M767.234,179.036c-1.282,0-1.807-.907-1.169-2.019.368-.644.149-1.466-.496-1.834l-1.225-.702c-.56-.332-1.282-.134-1.615.425l-.078.135c-.638,1.112-1.686,1.112-2.331,0l-.078-.135c-.318-.559-1.041-.757-1.6-.425l-1.226.702c-.644.368-.864,1.197-.496,1.841.645,1.105.121,2.012-1.161,2.012-.737,0-1.346.602-1.346,1.346v1.247c0,.736.602,1.345,1.346,1.345c1.282,0,1.806.907,1.161,2.019-.368.645-.148,1.466.496,1.835l1.226.701c.559.333,1.282.135,1.615-.425l.078-.135c.637-1.112,1.685-1.112,2.33,0l.078.135c.333.56,1.055.758,1.615.425l1.225-.701c.645-.369.864-1.197.496-1.835-.644-1.112-.12-2.019,1.162-2.019.736,0,1.346-.602,1.346-1.345v-1.247c-.007-.737-.61-1.346-1.353-1.346Zm-5.738,4.271c-1.268,0-2.302-1.034-2.302-2.302s1.034-2.302,2.302-2.302s2.302,1.034,2.302,2.302-1.034,2.302-2.302,2.302Z" transform="translate(-6.970555 0)" fill="#fff"/></g></g><g transform="translate(-3.223799-.970874)"><rect width="699" height="162" rx="4" ry="4" transform="translate(81 0)" fill="#fff"/><g transform="translate(-.357327-1.728696)"><text dx="0" dy="0" font-family="&quot;eCq34BFoNcW1:::Open Sans&quot;" font-size="18" font-weight="600" transform="translate(100.749368-3)" fill="#05273d"><tspan y="31.707" font-weight="600"><![CDATA[
Account Information
]]></tspan></text><g transform="translate(0-6)"><g><text dx="0" dy="0" font-family="&quot;eCq34BFoNcW1:::Outfit&quot;" font-size="12" font-weight="400" fill="#8a8a8a"><tspan x="198" y="64.44" font-family="&quot;eCq34BFoNcW1:::Outfit&quot;" font-size="12" font-weight="400" font-style="normal" fill="#8a8a8a"><![CDATA[
Last name:
]]></tspan></text><text dx="0" dy="0" font-family="&quot;eCq34BFoNcW1:::Outfit&quot;" font-size="14" font-weight="400" fill="#212121"><tspan x="261" y="65.18" font-family="&quot;eCq34BFoNcW1:::Outfit&quot;" font-size="14" font-weight="400" font-style="normal" fill="#212121"><![CDATA[
Wilson
]]></tspan></text></g><g><text dx="0" dy="0" font-family="&quot;eCq34BFoNcW1:::Outfit&quot;" font-size="12" font-weight="400" fill="#8a8a8a"><tspan x="198" y="86.44" font-family="&quot;eCq34BFoNcW1:::Outfit&quot;" font-size="12" font-weight="400" font-style="normal" fill="#8a8a8a"><![CDATA[
First name:
]]></tspan></text><text dx="0" dy="0" font-family="&quot;eCq34BFoNcW1:::Outfit&quot;" font-size="14" font-weight="400" transform="translate(263 0)" fill="#212121"><tspan y="87.18" font-weight="400"><![CDATA[
Wade
]]></tspan></text></g><g><text dx="0" dy="0" font-family="&quot;eCq34BFoNcW1:::Outfit&quot;" font-size="12" font-weight="400" fill="#8a8a8a"><tspan x="198" y="108.44" font-family="&quot;eCq34BFoNcW1:::Outfit&quot;" font-size="12" font-weight="400" font-style="normal" fill="#8a8a8a"><![CDATA[
SSN:
]]></tspan></text><text dx="0" dy="0" font-family="&quot;eCq34BFoNcW1:::Outfit&quot;" font-size="14" font-weight="400" fill="#212121"><tspan x="227" y="109.18" font-family="&quot;eCq34BFoNcW1:::Outfit&quot;" font-size="14" font-weight="400" font-style="normal" fill="#212121"><![CDATA[
XXX-XX-5237
]]></tspan></text></g><g transform="translate(.000001 0.634938)"><text dx="0" dy="0" font-family="&quot;eCq34BFoNcW1:::Outfit&quot;" font-size="12" font-weight="400" fill="#8a8a8a"><tspan x="198" y="130.44" font-family="&quot;eCq34BFoNcW1:::Outfit&quot;" font-size="12" font-weight="400" font-style="normal" fill="#8a8a8a"><![CDATA[
Date of birth:
]]></tspan></text><text dx="0" dy="0" font-family="&quot;eCq34BFoNcW1:::Outfit&quot;" font-size="14" font-weight="400" fill="#212121"><tspan x="274" y="131.18" font-family="&quot;eCq34BFoNcW1:::Outfit&quot;" font-size="14" font-weight="400" font-style="normal" fill="#212121"><![CDATA[
04/07/1992
]]></tspan></text></g><g transform="translate(0 22.963773)"><text dx="0" dy="0" font-family="&quot;eCq34BFoNcW1:::Outfit&quot;" font-size="12" font-weight="400" transform="translate(198.898593 0.000001)" fill="#8a8a8a"><tspan y="130.44" font-weight="400"><![CDATA[
Loan number: 
]]></tspan></text><text dx="0" dy="0" font-family="&quot;eCq34BFoNcW1:::Outfit&quot;" font-size="14" font-weight="400" transform="translate(278.601819 0)" fill="#212121"><tspan y="131.18" font-weight="400"><![CDATA[
PCL-10475823-P1
]]></tspan></text></g></g><g transform="translate(43.154255-6)"><g transform="translate(177.912161-66.231377)"><text dx="0" dy="0" font-family="&quot;eCq34BFoNcW1:::Outfit&quot;" font-size="12" font-weight="400" transform="translate(197.087839 0)" fill="#8a8a8a"><tspan y="130.44" font-weight="400"><![CDATA[
Employment:
]]></tspan></text><text dx="0" dy="0" font-family="&quot;eCq34BFoNcW1:::Outfit&quot;" font-size="14" font-weight="400" transform="translate(273.474301 0)" fill="#212121"><tspan y="131.18" font-weight="400"><![CDATA[
Horizon Tech, Marketing Specialist 
]]></tspan></text></g><g transform="translate(.000001 0)"><text dx="0" dy="0" font-family="&quot;eCq34BFoNcW1:::Outfit&quot;" font-size="12" font-weight="400" transform="translate(374.999999 0)" fill="#8a8a8a"><tspan y="86.44" font-weight="400"><![CDATA[
Address:
]]></tspan></text><text dx="0" dy="0" font-family="&quot;eCq34BFoNcW1:::Outfit&quot;" font-size="14" font-weight="400" transform="translate(425.828238 0)" fill="#212121"><tspan y="87.18" font-weight="400"><![CDATA[
74 Lake Street, Madison 
]]></tspan></text></g><g><text dx="0" dy="0" font-family="&quot;eCq34BFoNcW1:::Outfit&quot;" font-size="12" font-weight="400" fill="#8a8a8a"><tspan x="375" y="108.44" font-family="&quot;eCq34BFoNcW1:::Outfit&quot;" font-size="12" font-weight="400" font-style="normal" fill="#8a8a8a"><![CDATA[
Co-signers:
]]></tspan></text><text dx="0" dy="0" font-family="&quot;eCq34BFoNcW1:::Outfit&quot;" font-size="14" font-weight="400" transform="translate(441.934053 0)" fill="#212121"><tspan y="109.18" text-decoration="underline" font-weight="400"><![CDATA[
White M.
]]></tspan><tspan y="109.18" font-weight="400"><![CDATA[
, 
]]></tspan><tspan y="109.18" text-decoration="underline" font-weight="400"><![CDATA[
Smith D
]]></tspan><tspan y="109.18" font-weight="400"><![CDATA[
.
]]></tspan></text></g><g transform="translate(0 1)"><text dx="0" dy="0" font-family="&quot;eCq34BFoNcW1:::Outfit&quot;" font-size="12" font-weight="400" fill="#8a8a8a"><tspan x="375" y="130.44" font-family="&quot;eCq34BFoNcW1:::Outfit&quot;" font-size="12" font-weight="400" font-style="normal" fill="#8a8a8a"><![CDATA[
Contact info:
]]></tspan></text><text dx="0" dy="0" font-family="&quot;eCq34BFoNcW1:::Outfit&quot;" font-size="14" font-weight="400" fill="#212121"><tspan x="449" y="131.18" font-family="&quot;eCq34BFoNcW1:::Outfit&quot;" font-size="14" font-weight="400" font-style="normal" fill="#212121"><![CDATA[
(253) 438-6385
]]></tspan></text></g></g><g transform="matrix(.765664 0 0 0.765664-532.633667-138.946128)"><rect width="87.952737" height="88.811803" rx="43.98" ry="43.98" transform="translate(826.206449 240.826451)" fill="#b7e1f5" stroke-width="0"/><g mask="url(#eCq34BFoNcW230)"><g transform="matrix(2.074024 0 0 2.074024 817.783127 252.072077)"><path d="M25.7213,11.306c.0078-.1132.026-.2275.0676-.3331.0364-.0919.1041-.1856.1041-.2873-.0026-.1742.2681-.1742.2707,0c0,.1199-.0494.2217-.0989.3274-.039.0843-.0624.1767-.0702.2696-.0156.2126.0338.42.1041.6191.0234.069-.0287.1481-.0938.1666-.0754.0206-.1431-.0255-.1665-.0947-.0755-.2121-.1275-.4409-.1171-.6676Z" fill="#dd4a2c"/><path d="M44.561378,37.398881L4.125503,37.194879c.243061-.6014.902747-4.996728,3.210987-6.494479c1.54073-1.0047,3.15441-1.9,4.82531-2.6729c1.3917-.6454,2.7389-1.4367,4.0665-2.2165.1769-.1039.3534-.2075.5296-.3106.2915-.164.5857-.3306.8251-.5622.4971-.4893.4997-1.1842.3383-1.8244-.1691-.6811-.3072-1.3586-.4347-2.0467-.0546-.2894-.0546-.6025.2369-.7597.1275-.0679.5934-.2129.7339-.2337.6246-.0924,2.1289-.1965,2.7588-.1952c1.4848.0034,2.9653-.0258,4.4464-.055.806-.0158,1.6121-.0317,2.4192-.0423.8172-.0107,2.0795-.0229,2.8837.0973.2993.0448.9395.3373,1.0332.667.0868.3011-.01.7098-.0914,1.0533-.0212.0894-.0413.1744-.0569.2519-.0389.1892-.094.3924-.1511.6033-.1991.7343-.4231,1.5607-.0753,2.2057.2408.4488.7209.6969,1.1663.927.0842.0434.167.0863.2468.1297.5908.3227,1.1895.6324,1.7881.9317.9796.493,1.9824.9701,2.97,1.4399.2062.0981,1.458618.82245,1.663218.91995c0,0,1.440492.763532,2.756438,2.010966s1.604106,4.390401,2.093295,5.524054" clip-rule="evenodd" fill="#1c1c1c" fill-rule="evenodd"/><path d="M29.6956,15.1239l.1275,5.6398c0,0-3.6072.5499-4.82.5603-1.2519.0115-4.9892-.4906-4.9892-.4906l-.1301-5.6796l9.8118-.0299Z" fill="#dd4a2c"/><path d="M30.5025,20.604c-.0287-.0901-.1198-.1283-.2109-.1125-1.2857.2244-2.5843.3816-3.8882.4708-.1796.0123-.3019.0198-.4216.0266-.7236.0416-1.4523.0632-2.1784.0617-.7157-.0013-1.4288-.024-2.1419-.1015-.3878-.043-.7757-.1026-1.1608-.1754-.2004-.0378-.3982-.0753-.5986-.1174-.0989-.0216-.1978-.0417-.2967-.0614-.0468-.0089-.0911-.019-.1353-.0276-.0599-.0115-.1093-.0068-.1692-.0029-.0937.006-.1223.1124-.0468.1627.039.0252.0754.0551.1196.0708.0417.0153.0885.0268.1328.0398.0859.026.1743.0518.2654.0736.0651.1635.1197.2861.1432.3948.0208.101.039.203.052.3059.0286.2292.0286.459.026.6896-.0026.2272.0079.4508.0339.6767.026.2228.0625.4427.0781.6665.0078.1276.0156.2525.013.3774c0,.1223-.0209.2577.0104.3774.013.052.078.052.1041.013.065-.0859.0807-.2056.0937-.3123.0156-.1171.0208-.2316.0208-.3514-.0026-.2238-.013-.4528-.0286-.679-.0156-.2332-.026-.4669-.0234-.7009.0026-.2311.0052-.4619-.0157-.6928-.013-.134-.0338-.268-.0598-.4005-.0105-.0593-.0235-.1187-.0391-.1775.0182-.0895.0599-.0807.1016-.0718.3513.0728.7078.1246,1.0644.1707.4893.0627.976.1015,1.4679.1223-.0676.5775-.1145,1.1337-.0989,1.6844.0052.2764.0208.5526.039.8284.0105.1328.0208.2681.0364.4008.0078.0729.0209.1458.0365.216.013.0625.0313.1328.0781.177.0312.0313.0781.0208.1041-.013.0365-.0546.039-.1301.0416-.1952c0-.0703.0001-.1405-.0025-.2108-.0079-.1353-.0131-.2681-.0157-.4008-.0078-.2733-.0052-.5439.0052-.8156.0182-.5489.0391-1.0944.1015-1.6407.1276-.0154.255-.013.38-.0117.8848.0096,1.7671-.0104,2.6494-.0609-.0104.0525-.0182.1051-.0286.1566-.0209.1127-.0416.2259-.0598.3397-.0365.23-.0573.4617-.0756.6938-.0312.4446-.0754.8912-.0754,1.3362c0,.1275.0026.2525.013.3774.0026.0624.0078.1249.0156.1848.0104.0702.0338.1223.0599.1847.1093-.0442.1327-.0858.1431-.1327.0104-.0624.0157-.1223.0235-.1848.0104-.1093.0181-.216.0286-.3253.0182-.2264.0416-.4502.0702-.6754.0573-.4315.0729-.8679.1406-1.2974.0208-.1262.0442-.2511.0703-.3766.0182-.1002.0442-.2024.0598-.3047.4529-.0305.9084-.069,1.3612-.1161.3852-.0398.7677-.0856,1.1529-.1369-.0234.1577-.0312.2199-.0416.2816-.0182.1314-.0338.2629-.052.3943-.0339.2426-.0652.4854-.0886.7295-.0442.4963-.039.9864.0053,1.4835.0104.1379.0234.2811.0416.419.0182.1327.0364.2707.1041.3878.1639-.2108.1406-.4763.1406-.7001c0-.2473-.0053-.4919-.0027-.7376.0026-.4838.0599-.965.138-1.4418.0234-.1361.0494-.2717.0754-.4071.0156-.0697.0287-.1397.0417-.2097.3357-.2978.6454-.3462.9525-.3982.0911-.0154.1406-.1195.1198-.1978Z" clip-rule="evenodd" fill="#003878" fill-rule="evenodd"/><path d="M31.2025,3.70512c-.2369-.41876-.5231-.80785-.8614-1.15582-.7496-.76959-1.7256-1.27345-2.7432-1.551923-1.3664-.374514-2.8368-.401582-4.2318-.203264-1.6657.236837-3.1752.839077-4.3151,2.188787-2.1914,2.59219-1.4757,5.89905-1.1035,9.0045.0729.591,1.3117,3.3378,1.3117,3.3378l11.9251-.9388-.2004-.0078c.3123-.7409.7443-1.5056.9578-2.2819.2238-.8133.2133-1.8367.2628-2.68617.1119-1.94206-.0287-3.99602-1.002-5.70541Z" fill="#933428"/><path d="M33.5655,10.6754c-.0573-.197-.1639-.3773-.3019-.5327-.2706-.30374-.6819-.50388-1.1009-.49893-.2602.00312-.4944.08875-.6818.26442-.0417.03852-.0807.07964-.1171.12281-.4477.3212-.8277.6429-.8954,1.116-.0416.2689-.0234.5479-.026.8191-.0026.2813-.0078.5624-.0104.8437-.0078.558-.0183,1.1158-.0287,1.6735-.0026.1369-.013.2774.0079.413.0208.1265.0936.2304.2003.3051.1952.1384.4633.147.6924.089.5075-.1302.8146-.5671,1.0488-.988.2603-.4632.4763-.9481.6793-1.4369.1015-.2459.1978-.4932.2941-.7407.0937-.2425.1926-.4854.2472-.7396.0495-.2343.0599-.4776-.0078-.7098Z" fill="#ff9064"/><path d="M16.3051,11.3852c.0547.2542.1536.4971.2473.7396.0963.2475.1952.4948.2941.7407.203.4888.419.9737.6792,1.4369.2343.4209.5414.8578,1.0515.988.2265.058.4945.0494.6897-.089.1067-.0747.1796-.1786.2004-.3051.0234-.1356.0104-.2761.0078-.413-.0104-.5577-.0208-1.1155-.0286-1.6735-.0026-.2813-.0052-.5624-.0104-.8437-.0026-.2712.0155-.5502-.0235-.8191-.0703-.4731-.4476-.7948-.8172-1.0756-.1171-.08357-.1562-.12469-.1978-.16321-.1874-.17567-.4216-.2613-.6819-.26442-.419-.00495-.8302.19519-1.1009.49893-.1353.1554-.2446.3357-.3018.5327-.0677.2322-.0573.4755-.0079.7098Z" fill="#ff9064"/><path d="M18.9677,5.67525c.1379-.22331.2888-.44115.4528-.64779.1483-.18843.3071-.36462.4996-.50959.38-.28602.8329-.49762,1.291-.6189.5725-.15017,1.1659-.18349,1.7541-.18687.648-.00338,1.2935.00703,1.9389.04633.6455-.0393,1.2935-.04971,1.939-.04633.5881.00338,1.1842.0367,1.7542.18687.4606.12128.9108.33288,1.2908.6189.1926.14497.3514.32116.5023.50959.164.20664.3124.42448.4529.64779.1536.24464.294.49657.4242.75423c0,.16682-.0026.33339-.0052.49996-.026,2.30538-.0625,4.61906-.2655,6.91696-.0806.8973-.2706,1.8317-.5986,2.6783-.1457.3797-.3253.7469-.5257,1.1011-.2082.3668-.4373.7212-.6871,1.0603-.2629.3553-.5492.6939-.8589,1.008-.3097.3126-.6454.6012-1.0071.8498-.354.2423-.734.4471-1.1374.5918-.3956.1419-.8172.2309-1.2388.2324-.4373.0021-.8693-.0765-1.2805-.2202-.406-.1415-.7885-.3438-1.1425-.5842-.3644-.247-.7027-.5346-1.015-.8467-.3123-.3133-.5986-.6519-.8641-1.0074-.2524-.3412-.4841-.6983-.6949-1.0679-.2108-.3701-.3878-.7373-.5336-1.117-.3305-.8466-.5205-1.781-.5986-2.6783-.203-2.2979-.2393-4.61158-.2679-6.91696-.0026-.16657-.0027-.33314-.0053-.49996.1301-.25766.2733-.50959.4269-.75423Z" fill="#ff9064"/><path d="M30.7235,7.81992c.0443,1.07045.151,2.32278.2369,2.53128.0546.1301.1223.2564.1822.3842.1665-.0701.2107-.1661.2549-.259.0677-.1361.1224-.2795.1952-.413.0807-.14553.1614-.28971.2473-.43181c0,0-.4971-4.22219-.4919-4.77967.0183-1.33956-2.9018-2.32074-6.5559-2.17994-3.654-.1408-5.9209,1.03766-6.366,2.40767-.1743.53015-.6818,4.55194-.6818,4.55194.2082.34146.4502.67281.6141,1.03761.0261.0581.1068.0636.1406.0097.6507-1.03143.4476-2.26662.557-3.41437.013-.13455.151-.96062-.0546-1.01527.0468.01249.8145.22902.8614.23501.2472.03123.5075-.02056.7235-.14418.2238-.12649.3774-.32585.4763-.55618c1.0879,1.09023,2.4725,1.36819,3.7295,1.35049c1.2597.0177,2.6443-.26026,3.5005-1.09986.3306-.0203.4841.17906.7053.30555.2186.12362.4789.17541.7262.14418.0442-.00599,1.0019-.24282,1.0462-.25505-.0807.00911-.0833.74278-.0469,1.5907Z" clip-rule="evenodd" fill="#933428" fill-rule="evenodd"/><path d="M28.2536,3.83393c-.4867.05101-.9213.25167-1.3403.4885-.203.11322-.4008.23111-.6065.33782-.2186.11373-.4112.19832-.6454.27405-.4789.15434-.9707.22695-1.4678.25818-.2525.01588-.5076.02785-.7574-.00807-.2291-.03331-.4555-.11061-.6637-.21367-.2394-.1192-.4529-.27718-.6663-.4388-.1067-.08224-.2133-.16735-.32-.25011-.1224-.09317-.2474-.2004-.3879-.26546-.0364-.01796-.091.02186-.0624.06428.0755.11217.1795.20222.2758.29722.0885.09031.1849.17671.2786.26312.1795.16422.3668.31908.5672.45805.203.14185.4139.26833.6507.34511.255.08198.5258.10827.7912.11243.5258.00859,1.0567-.03591,1.5694-.14808.5023-.10983.963-.31076,1.4106-.55592.229-.12441.4581-.25063.6949-.3589.2082-.08615.2681-.1067.328-.12492.0624-.01952.1274-.03618.1925-.05023.2759-.03878.393-.12258.3878-.25557-.0053-.11322-.1015-.24231-.229-.22903Z" fill="#4f1700"/><path d="M26.372,2.84607c-.138-.08744-.3488.01145-.4867.0557-.2655.08458-.5232.18843-.7886.26911-.2551.07755-.5024.13117-.7704.11633-.2551-.01431-.4893-.09473-.7183-.20456-.2655-.12623-.4998-.30971-.773-.41694.1015.25349.2967.40757.4919.55123.2004.14575.4164.2613.6507.34198.5023.17307,1.0358.05622,1.5329-.0851.1405-.04008.281-.08224.4216-.12102.0676-.01822.1328-.03592.2004-.05179.2629.00807.3565-.08797.3721-.19442.013-.1054-.0468-.2043-.1326-.26052Z" fill="#4f1700"/><path d="M21.9321,11.9717c.2186,0,.4607-.1184.5648-.2756.0937-.145.1093-.2983.0495-.4818.3487.0781.5075.1192.7209.265.0859.0242.2212-.013.2499-.0659.0494-.0921.0207-.1944-.0677-.2545-.5544-.375-.95-.4685-1.3846-.4685-.2368.0099-.3904.0393-.5205.0664-.1458.031-.2655.0585-.3852.1077-.125.0521-.2369.1229-.3592.203-.1301.0841-.2602.1689-.3305.2853.203.0812.3383.0049.4788-.0758.0911-.051.1822-.1038.2811-.1371.0495-.018.1042-.0328.1666-.0463-.0468.5088.0963.7469.3774.8523.0469.0172.0989.0258.1587.0258Z" fill="#4f1700"/><path d="M27.8088,11.9717c-.2187,0-.4607-.1184-.5622-.2756-.0963-.145-.1119-.2983-.0521-.4818-.3487.0781-.5075.1192-.7209.265-.0859.0242-.2211-.013-.2498-.0659-.0494-.0921-.0209-.1944.0676-.2545.5544-.375.95-.4685,1.3846-.4685.2368.0099.3904.0393.5205.0664.1458.031.2655.0585.3852.1077.1249.0521.2369.1229.3618.203.1276.0841.2576.1689.3279.2853-.203.0812-.3383.0049-.4788-.0758-.0885-.051-.1822-.1038-.2785-.1371-.052-.018-.1067-.0328-.1692-.0463.0495.5088-.0963.7469-.3773.8523-.0469.0172-.099.0258-.1588.0258Z" fill="#4f1700"/><path d="M22.2,16.5019c-.0338-.0825-.1119-.1348-.2004-.0968-.0885.037-.1093.1306-.0729.2124.0443.0944.0729.1965.0911.3001.0026.0442.0105.0892.0157.1342.0104.0659.091.1062.1508.0974.0651-.0099.1172-.0646.1172-.1335-.0026-.1765-.0338-.3501-.1015-.5138Z" fill="#dd4a2c"/><path d="M27.9805,16.349c-.0807-.0218-.1901.0271-.2057.1161-.0234.1502-.0416.2962-.0208.4484.0104.0896.0703.1617.1692.1484.0832-.0112.1249-.0744.1275-.1484-.0026-.1218.0052-.2441.0443-.3602.0286-.0848-.0312-.1814-.1145-.2043Z" fill="#dd4a2c"/><path d="M27.0382,16.4469c-.5778-.1777-1.1815-.2701-1.7853-.2785-.3045-.0041-.6091.0102-.9136.0266-.3071.0169-.6168.0398-.9239.0843-.1536.0221-.3071.0484-.4528.0955-.0755.0242-.1458.0536-.2134.0958-.0833.0541-.1276.108-.164.2004-.039.0992.0677.1796.1561.164.1198-.0214.2135-.0661.3332-.0945.1275-.0299.2576-.0484.3851-.0661.2681-.0378.544-.0515.8173-.0682.5778-.0351,1.1529-.0588,1.7281.0156.3097.0401.6194.1085.9213.1965.2395.07.3513-.2977.1119-.3714Z" transform="matrix(1 0 0-1 0.072981 33.540596)" fill="#dd4a2c"/><path d="M23.0225,11.9369c-.0884-.0869-.1951-.0299-.2602.05-.0651.0835-.1432.139-.2342.1952-.0469.0286-.1172.0502-.1406.102.1067.1319.2212.0895.3123.0471.1249-.0586.5101-.2069.3227-.3943Z" fill="#dd4a2c"/><path d="M27.2621,12.1111c-.0651-.0562-.1432-.0807-.2212-.1158-.151-.0602-.19-.0511-.2343-.0578-.0832-.012-.1405.0726-.0807.139.0989.1205.1354.1426.1718.1652.0703.0456.1328.1013.2161.1255.1405.0424.268-.1551.1483-.2561Z" fill="#dd4a2c"/><path d="M30.0287,9.87714c-.0625-.32558-.5232-.66262-.7913-.81513-.3513-.1978-.7495-.28056-1.1477-.28238-.3227-.00156-.6428.04033-.9577.09238-.2343.038-.5492.04867-.7236.22956-.1483.15225-.1874.37529-.19.57881-.052-.09421-.0676-.19832-.0598-.3058.0052-.05882-.0937-.08432-.1197-.03045-.1223.2423-.0131.56138.2446.68867.1405.0708.3124.0682.4659.0424.1744-.0286.3384-.10072.5153-.12883.2056-.0328.4138-.04034.622-.03982.3488.00052.7001.00338,1.0489.0406.2889.03071.661.19365.9421.11395.0521-.0143.1016-.0395.1328-.0822.0208-.02837.026-.06324.0182-.10176Z" fill="#933428"/><path d="M20.1934,10.0834c.1224-.0041.2474-.0606.3697-.0799.1665-.026.3331-.04448.4997-.05775.432-.03488.8666-.06194,1.2986-.0216.2212.02056.4399.06063.6533.11895.1926.0515.4033.0812.5881-.0104.2577-.12729.3644-.44637.2421-.68867-.026-.05388-.1249-.02837-.1197.03045.0078.10748-.0078.21159-.0598.3058c0-.25401-.0599-.51531-.2993-.6673-.2161-.13898-.5727-.14601-.8225-.17724-.4997-.0622-1.0176-.10697-1.499.05595-.4789.1611-.8823.48305-1.153.90701-.1327.2072.1223.291.3018.2847Z" fill="#933428"/><path d="M16.9507,10.9528c.0547-.1054.1353-.2002.2446-.2512.2342-.1101.518.0055.6793.1911.177.2043.2837.4775.3852.7245.0781.1892.1457.3829.2056.5786-.0052-.2376-.0104-.4752-.013-.7126-.0052-.3225-.039-.6488-.0234-.971.0026-.0557.0832-.068.0988-.013.1015.3425.1172.7172.151,1.0714.0598.6424.0677,1.2909.1016,1.9353.0312.6343.0936,1.2691.2185,1.8921.0365.171-.2238.2441-.2629.0724-.0807-.3618-.1353-.7274-.1743-1.096-.0365-.3578-.0573-.7162-.0703-1.0751-.0442-.1268-.065-.2647-.0963-.394-.0312-.1252-.0624-.2502-.0962-.3743-.1093-.0776-.2005-.1707-.341-.1879-.1275-.0161-.2394.0354-.3123.1408-.0755.1127-.1145.2504-.1223.386-.0078.1384.0182.2722.0182.4093c0,.0485-.0365.0969-.0859.0607-.0469-.032-.0833-.115-.1067-.1637-.0546-.115-.0781-.2441-.0677-.3696.0156-.184.0729-.369.1874-.5158.1171-.1502.2993-.2324.4893-.2197.0703.0047.1457.0211.2186.0474-.0365-.1114-.0755-.222-.1171-.3318-.0833-.2254-.177-.4576-.3097-.6603-.1015-.1562-.2889-.3397-.4919-.2387-.0833.0411-.1327.1234-.1718.2041-.0416.0832-.0546.1777-.1223.2441-.0312.0307-.0885.0174-.0989-.026-.0312-.1174.0313-.2538.0859-.3571Z" clip-rule="evenodd" fill="#dd4a2c" fill-rule="evenodd"/><path d="M30.5751,15.4984c.1093-.3506.1873-.7089.2446-1.0717.0989-.6421.1301-1.2933.1562-1.9418.013-.3277.0234-.6556.0442-.983.0104-.1614.0183-.3227.0365-.4833.0156-.1518.0181-.3337.0936-.469.026-.0461.0938-.0326.1094.0143.0286.0877.0233.1793.0207.2704-.0026.0945-.0051.189-.0103.2837-.0052.126-.0104.2519-.013.3781.1223-.4052.3018-.7878.7339-.9554.2446-.0942.5153-.058.7262.0948.2082.1499.3253.3854.3253.641.0026.1033-.1432.0973-.1562,0-.0234-.2186-.2238-.4185-.4294-.4849-.4503-.1468-.7886.2897-.9136.6692-.026.084-.0494.1699-.0677.2563.2889-.0377.5779.0755.7444.3451.1041.1705.1276.3719.0859.5656-.0312.1488-.078.2987-.1561.4296-.0365.0578-.0807.1604-.125.0685-.026-.0578-.013-.1379-.0026-.1981.013-.0825.0339-.1631.0495-.2451.026-.1442.0416-.3038-.0339-.4354-.1249-.2148-.3982-.2928-.6246-.2114-.013.0711-.0234.1424-.0364.2134-.052.2876-.1067.5739-.164.8605-.039.8359-.1223,1.6659-.354,2.467-.052.1816-.3409.1022-.2836-.0784Z" clip-rule="evenodd" fill="#dd4a2c" fill-rule="evenodd"/><path d="M25.3412,14.911c.0234-.0901.1354-.1707.2317-.1322.0416.0164.078.032.1144.0572.2291.1354.3254.0164.354-.1134.0131-.0607.0182-.1234.0416-.1809.0313-.0778.1016.0744.1146.1012.039.0752.0676.158.0598.2436-.013.132-.1119.2444-.2316.3035-.1744.0874-.3591.0559-.5309-.0276-.0963-.0476-.1874-.1346-.1536-.2514Z" fill="#dd4a2c"/><path d="M23.6235,10.9147c-.0078.5234-.0312,1.0499-.1405,1.5649-.0494.247-.1171.4956-.216.7303-.0208.0505-.0261.0615-.0547.113-.0286.0497-.0573.0981-.0911.1447-.0338.0487-.0442.0606-.0858.102-.3279.2329-.6221.2704-.8823.3136-.2941.0487-.5908.076-.8901.0841-.5101.014-1.0827.0112-1.5147-.2514-.1848-.1132-.3072-.2694-.4061-.4518-.0936-.1757-.1561-.3954-.2003-.5997-.0521-.2522-.0859-.5075-.1171-.7625-.0313-.2686-.0651-.5385-.0833-.8084-.0156-.2275-.0157-.4578.1196-.6564.1146-.165.2941-.2831.5076-.3719.2524-.10461.5388-.14391.812-.17826.2889-.03618.5778-.06376.8693-.08016.3019-.01744.6063-.02213.9082-.01094.2317.00859.4607.03046.6897.06924.1354.02264.2681.05413.4034.07938.1822.03331.3097.12184.3514.30844.026.1048.0182.2142.0208.3203.0026.1138,0,.228,0,.3415Zm.38-.5736c-.0208-.234-.1145-.47914-.3201-.61136-.0442-.02862-.091-.05179-.1405-.07001-.2134-.07808-.4451-.08458-.6663-.12102-.1041-.0177-.2108-.03227-.3175-.0432-.3149-.03175-.6325-.04243-.9474-.03748-.3227.0052-.6454.02654-.9655.05804-.3175.03149-.6403.06246-.9474.14184-.2811.07209-.5466.18947-.7548.37349-.2186.1921-.3357.4357-.3695.7061-.0339.2779.0183.5634.0495.8401.0338.3027.0702.6051.1223.9062.0781.468.203.9596.5726,1.318.4008.3898,1.0149.4726,1.5771.4926.3279.0117.6559,0,.9812-.0351.3202-.0344.6585-.0737.963-.1746.2811-.0924.4944-.2608.6454-.4906.1405-.2173.2239-.4651.2915-.7079.1588-.5604.2108-1.1405.2264-1.7162.0078-.2743.0235-.5551,0-.8289Z" fill="#e9ecf5"/><path d="M26.1923,10.5058c0-.1358.0209-.2847.0963-.4015.0729-.11768.2186-.15776.3487-.18431.1692-.03461.3384-.0635.5102-.08328.7495-.08745,1.5173-.04451,2.2643.04606.0442.00547.091.01119.1353.01744.2264.02993.4554.06663.6688.14679.2004.0752.4112.1955.5387.3722.1432.1949.1484.4437.1302.6743-.0183.2699-.0494.5398-.0807.8084-.0312.255-.0651.5103-.1197.7625-.0417.2043-.1067.424-.2004.5997-.0963.1824-.2186.3386-.4034.4518-.432.2626-1.0072.2654-1.5147.2514-.2993-.0081-.5961-.0354-.8902-.0841-.2602-.0432-.5569-.0807-.7729-.2202-.1536-.1348-.1613-.1467-.1977-.1954-.0313-.0466-.0626-.095-.0886-.1447-.0286-.0515-.0338-.0625-.0546-.113-.1015-.2347-.1666-.4833-.2187-.7303-.1067-.515-.1327-1.0415-.1379-1.5649-.0026-.1291-.0156-.2701-.013-.4089Zm-.3669.6642c.0156.5757.0676,1.1558.2237,1.7162.0677.2428.151.4906.2941.7079.151.2298.3644.3982.6429.4906.3045.1009.6428.1402.9629.1746.3279.0351.6559.0468.9838.0351.5622-.02,1.1738-.1028,1.5746-.4926.3696-.3584.4945-.85.5752-1.318.0495-.3011.0885-.6035.1223-.9062.0312-.2767.0807-.5622.0469-.8401-.0313-.2704-.1484-.514-.367-.7061-.2082-.18402-.4763-.3014-.7548-.37349-.3071-.07938-.6324-.11035-.9499-.14184-.3202-.0315-.6403-.05284-.963-.05804-.3696-.00573-.7365.01119-1.1035.0557-.1821.02212-.3644.05153-.544.08874-.1613.03306-.3382.05518-.471.16007-.1848.1676-.255.37476-.2732.57856-.0235.2738-.0078.5546,0,.8289Z" fill="#e9ecf5"/><path d="M24.9118,14.9939c-.3878-.0125-.8589-.0427-1.1191-.3777-.2785-.3594-.0286-.8487.0989-1.218.1614-.464.3201-.9327.3565-1.4262.0313-.425-.0181-.8508-.0806-1.2719l-.3149.1931c.0468.3753.0755.7527.0417,1.1311-.0443.4807-.177.9487-.3332,1.4041-.1483.4388-.3254.9369-.0105,1.3497.3227.4258.8615.5049,1.3612.5312.203.0107.203-.3089,0-.3154Z" fill="#dd4a2c"/><path d="M26.1899,10.9018c-.0364-.1785-.1406-.2644-.2317-.3263-.1692-.1166-.3565-.2051-.5491-.2587-.1587-.044-.3201-.0659-.4815-.0656-.1613-.0003-.3227.0216-.4814.0656-.1926.0536-.3827.1421-.5492.2587-.0911.0619-.1952.1478-.2238.267-.0052.1353.013.2082.0754.2595.0599.051.0417.1395.0963.0692.026-.0359.1484-.1517.177-.1871.0833-.1067.2498-.1796.3747-.2291.1432-.0583.2968-.0931.453-.1015.3123-.0174.6272.0768.89.2507.0417.0291.0859.0611.1145.1051.1718.2535.3384.0115.3358-.1075Z" fill="#e9ecf5"/></g><mask id="eCq34BFoNcW230" mask-type="luminance" x="-150%" y="-150%" height="400%" width="400%"><rect width="87.952737" height="88.811803" rx="43.98" ry="43.98" transform="translate(826.206449 240.826451)" fill="#fff" stroke-width="0"/></mask></g></g></g><g transform="translate(0-6)"><path d="M719.234,23.5361c-1.282,0-1.807-.9067-1.169-2.0188.368-.6446.149-1.4662-.496-1.8346l-1.225-.7012c-.56-.3329-1.282-.1346-1.615.425l-.078.1346c-.638,1.112-1.686,1.112-2.331,0l-.078-.1346c-.318-.5596-1.041-.7579-1.6-.425l-1.226.7012c-.644.3684-.864,1.1971-.496,1.8417.645,1.105.121,2.0117-1.161,2.0117-.737,0-1.346.602-1.346,1.3458v1.2467c0,.7366.602,1.3458,1.346,1.3458c1.282,0,1.806.9067,1.161,2.0187-.368.6446-.148,1.4663.496,1.8346l1.226.7013c.559.3329,1.282.1346,1.615-.425l.078-.1346c.637-1.1121,1.685-1.1121,2.33,0l.078.1346c.333.5596,1.055.7579,1.615.425l1.225-.7013c.645-.3683.864-1.1971.496-1.8346-.644-1.112-.12-2.0187,1.162-2.0187.736,0,1.346-.6021,1.346-1.3458v-1.2467c-.007-.7367-.61-1.3458-1.353-1.3458Zm-5.738,4.2712c-1.268,0-2.302-1.0342-2.302-2.3021s1.034-2.3021,2.302-2.3021s2.302,1.0342,2.302,2.3021-1.034,2.3021-2.302,2.3021Z" fill="#b5b4b4"/><g transform="translate(.000001 0)"><path d="M742.043,18.4175h-7.084c-1.955,0-3.541,1.5797-3.541,3.5277v4.2361.7084c0,1.948,1.586,3.5277,3.541,3.5277h1.063c.191,0,.446.1275.567.2833l1.062,1.4097c.468.6234,1.233.6234,1.7,0l1.063-1.4097c.134-.1771.347-.2833.566-.2833h1.063c1.955,0,3.541-1.5797,3.541-3.5277v-4.9445c0-1.948-1.586-3.5277-3.541-3.5277Zm-2.834,8.3234h-4.25c-.29,0-.531-.2408-.531-.5313c0-.2904.241-.5313.531-.5313h4.25c.291,0,.532.2409.532.5313c0,.2905-.241.5313-.532.5313Zm2.834-3.5419h-7.084c-.29,0-.531-.2408-.531-.5313c0-.2904.241-.5312.531-.5312h7.084c.29,0,.531.2408.531.5312c0,.2905-.241.5313-.531.5313Z" fill="#b5b4b4"/><text dx="0" dy="0" font-family="&quot;eCq34BFoNcW1:::Outfit&quot;" font-size="12" font-weight="400" fill="#b5b4b4"><tspan x="748" y="28.9395" font-family="&quot;eCq34BFoNcW1:::Outfit&quot;" font-size="12" font-weight="400" font-style="normal" fill="#b5b4b4"><![CDATA[
(2)
]]></tspan></text></g></g></g></g></g><g transform="translate(-71-24)"><g id="eCq34BFoNcW239" transform="translate(-492.78151-377.794851)"><ellipse id="eCq34BFoNcW240" rx="14.54" ry="14.54" transform="translate(734.297383 490.031087)" opacity="0" fill="none" stroke="#74abf3" stroke-width="2" stroke-opacity="0.48"/><ellipse id="eCq34BFoNcW241" rx="14.54" ry="14.54" transform="translate(734.297383 490.031087)" opacity="0" fill="#a5bce3" fill-opacity="0.48" stroke="#81acd2"/></g></g></g>
<script><![CDATA[
(function(s,i,u,o,c,w,d,t,n,x,e,p,a,b){(a=Array.from(d.querySelectorAll('svg#' + i.root)).filter(n=> !n.svgatorPlayer)[0]||{}).svgatorPlayer={ready:(function(a){b=[];return function(c){return c?(b.push(c),a.svgatorPlayer):b}})(a)};w[o]=w[o]||{};w[o][s]=w[o][s]||[];w[o][s].push(i);e=d.createElementNS(n,t);e.async=true;e.setAttributeNS(x,'href',[u,s,'.','j','s','?','v','=',c].join(''));e.setAttributeNS(null,'src',[u,s,'.','j','s','?','v','=',c].join(''));p=d.getElementsByTagName(t)[0];p.parentNode.insertBefore(e,p);})('91c80d77',{"root":"eCq34BFoNcW1","version":"2025-04-07","animations":[{"elements":{"eCq34BFoNcW3":{"transform":{"data":{"t":{"x":-390,"y":-207.5}},"keys":{"o":[{"t":0,"v":{"x":291.208364,"y":198.68459,"type":"corner"},"e":[0.39,0.575,0.565,1]},{"t":500,"v":{"x":331.720111,"y":183.009216,"type":"corner"}},{"t":5000,"v":{"x":331.720111,"y":183.009216,"type":"corner"}},{"t":5500,"v":{"x":429.208364,"y":198.68459,"type":"corner"},"e":[0.39,0.575,0.565,1]}],"s":[{"t":0,"v":{"x":0.93,"y":0.93},"e":[0.39,0.575,0.565,1]},{"t":500,"v":{"x":1.03,"y":1.03}},{"t":5000,"v":{"x":1.03,"y":1.03}},{"t":5500,"v":{"x":0.93,"y":0.93},"e":[0.39,0.575,0.565,1]}]}},"opacity":[{"t":0,"v":0},{"t":500,"v":1},{"t":5000,"v":1},{"t":5500,"v":0}]},"eCq34BFoNcW4":{"transform":{"data":{"t":{"x":-380.665556,"y":-218.593434}},"keys":{"o":[{"t":0,"v":{"x":380.042355,"y":208.728326,"type":"corner"}},{"t":500,"v":{"x":426.45359,"y":239.312557,"type":"corner"}},{"t":5000,"v":{"x":426.45359,"y":239.312557,"type":"corner"}},{"t":5500,"v":{"x":379.561008,"y":214.685766,"type":"corner"}}],"k":[{"t":0,"v":{"x":-2,"y":0}},{"t":500,"v":{"x":-3,"y":0}},{"t":5000,"v":{"x":-3,"y":0}},{"t":5500,"v":{"x":-2,"y":0}}]}}},"eCq34BFoNcW16":{"transform":{"data":{"s":{"x":0.6,"y":0.6},"t":{"x":-104.336974,"y":-113.793401}},"keys":{"o":[{"t":0,"v":{"x":48.63345,"y":-11.218002,"type":"corner"}},{"t":500,"v":{"x":74.15504,"y":10.075071,"type":"corner"}},{"t":5000,"v":{"x":74.15504,"y":10.075071,"type":"corner"}},{"t":5500,"v":{"x":41.106583,"y":-5.841656,"type":"corner"}}],"k":[{"t":0,"v":{"x":-1,"y":0}},{"t":500,"v":{"x":-2,"y":0}},{"t":5000,"v":{"x":-2,"y":0}},{"t":5500,"v":{"x":-1,"y":0}}]}}},"eCq34BFoNcW62":{"transform":{"data":{"o":{"x":427.276201,"y":293.243414,"type":"corner"},"t":{"x":-430.5,"y":-287}},"keys":{"s":[{"t":2200,"v":{"x":1,"y":1},"e":[0.6,-0.28,0.735,0.045]},{"t":2600,"v":{"x":0.98,"y":0.98},"e":[0.175,0.885,0.32,1.275]},{"t":3000,"v":{"x":1,"y":1}}]}}},"eCq34BFoNcW135":{"fill":[{"t":2200,"v":{"t":"c","v":{"r":0,"g":134,"b":88,"a":1}}},{"t":2600,"v":{"t":"c","v":{"r":212,"g":126,"b":2,"a":1}}}]},"eCq34BFoNcW137":{"transform":{"data":{"t":{"x":-16.134973,"y":-180.937159}},"keys":{"o":[{"t":2400,"v":{"x":657.216539,"y":180.089356,"type":"corner"}},{"t":2900,"v":{"x":657.737881,"y":159.568612,"type":"corner"}}]}},"opacity":[{"t":2500,"v":1,"e":[0.175,0.885,0.32,1.275]},{"t":2700,"v":0}]},"eCq34BFoNcW141":{"transform":{"data":{"t":{"x":-16.134973,"y":-180.937159}},"keys":{"o":[{"t":2400,"v":{"x":667.282164,"y":206.42266,"type":"corner"}},{"t":2900,"v":{"x":667.097239,"y":180.534783,"type":"corner"}}]}},"opacity":[{"t":2700,"v":0,"e":[0.175,0.885,0.32,1.275]},{"t":2900,"v":1}]},"eCq34BFoNcW143":{"transform":{"data":{"o":{"x":754.529445,"y":181.005333,"type":"corner"},"t":{"x":-761.5,"y":-181.005333}},"keys":{"r":[{"t":2500,"v":0},{"t":2800,"v":180}],"s":[{"t":2500,"v":{"x":1,"y":1}},{"t":2800,"v":{"x":1,"y":1}}]}}},"eCq34BFoNcW239":{"transform":{"data":{"t":{"x":-734.29738,"y":-490.031087}},"keys":{"o":[{"t":1500,"v":{"x":241.51587,"y":112.236236,"type":"corner"}},{"t":1600,"v":{"x":783.012171,"y":284.953601,"type":"corner"},"e":[0.39,0.575,0.565,1]},{"t":2400,"v":{"x":730.539966,"y":184.729547,"type":"corner"}}]}}},"eCq34BFoNcW240":{"transform":{"data":{"o":{"x":734.297383,"y":490.031087,"type":"corner"}},"keys":{"s":[{"t":2400,"v":{"x":1,"y":1},"e":[0.42,0,0.58,1]},{"t":2700,"v":{"x":2.101332,"y":2.101332}}]}},"opacity":[{"t":2400,"v":0,"e":[0.42,0,0.58,1]},{"t":2530,"v":1,"e":[0.42,0,0.58,1]},{"t":2700,"v":0}]},"eCq34BFoNcW241":{"transform":{"data":{"o":{"x":734.297383,"y":490.031087,"type":"corner"}},"keys":{"s":[{"t":2400,"v":{"x":1,"y":1},"e":[0.42,0,0.58,1]},{"t":2700,"v":{"x":0.92,"y":0.92}},{"t":2800,"v":{"x":1,"y":1}}]}},"opacity":[{"t":1600,"v":0,"e":[0.42,0,0.58,1]},{"t":2400,"v":1,"e":[0.42,0,0.58,1]},{"t":2700,"v":0}]}},"s":"MDGA1ZDk2RTNkNL2Y5MDhkN2M4QZjg0OGE4OTNQkNTU1MDUwNGYI0YjQ3M2Q3ZMjg0OGQ4MDdlGOGY4NEY4YTgP5M2Q1NTRjNDBczZDg0OGY4MIEg4ZDdjOGY4MNDhhTjg5OGUSzZDU1UTRiS0Tc0NzNkODE4NCDg3ODczZDU1MNGNKNDczZDdGjODc4ZjgwOGWQ4OVc3YzhmOXDAzZFk1NTgxSN2M4NzhlODAV0NzNkOGU4YjCgwRjgwN2YzZMDU1NGM0NzNkQODE4YlU4ZTNQkNTU0YzRiVDTRiOTg/"}],"options":"MDMAxMDgyMjk3YFTdiNjg3OTdiAMjk0MTI5TTcAzNzY2ODZiMjXk4NA|"},'https://cdn.svgator.com/ply/','__SVGATOR_PLAYER__','2025-04-07',window,document,'script','http://www.w3.org/2000/svg','http://www.w3.org/1999/xlink')
]]></script>

<style><![CDATA[
@font-face {font-family: 'eCq34BFoNcW1:::Open Sans';font-style: normal;font-weight: 300;font-stretch: normal;src: url(https://fonts.gstatic.com/l/font?kit=memSYaGs126MiZpBA-UvWbX2vVnXBbObj2OVZyOOSr4dVJWUgsiH0C4nexYe4YE5Uhxpty0PLLvfNoUeY-6b4TP_Kre_n8WJugOXsqp2kfXHElWZ70y-ci5YFBzGcBFZcAkJix7HkDhJGijPag&skey=62c1cbfccc78b4b2&v=v43) format('truetype');}@font-face {font-family: 'eCq34BFoNcW1:::Open Sans';font-style: normal;font-weight: 400;font-stretch: normal;src: url(https://fonts.gstatic.com/l/font?kit=memSYaGs126MiZpBA-UvWbX2vVnXBbObj2OVZyOOSr4dVJWUgsjZ0C4nexYe4YE5Uhxpty0PLLvfNoUeY-6b4TP_Kre_n8WJugOXsqp2kfXHElWZ70y-ci5YFBzGcBFZcAkJix7HkDhJGijPag&skey=62c1cbfccc78b4b2&v=v43) format('truetype');}@font-face {font-family: 'eCq34BFoNcW1:::Open Sans';font-style: normal;font-weight: 600;font-stretch: normal;src: url(https://fonts.gstatic.com/l/font?kit=memSYaGs126MiZpBA-UvWbX2vVnXBbObj2OVZyOOSr4dVJWUgsgH1y4nexYe4YE5Uhxpty0PLLvfNoUeY-6b4TP_Kre_n8WJugOXsqp2kfXHElWZ70y-ci5YFBzGcBFZcAkJix7HkDhJGijPag&skey=62c1cbfccc78b4b2&v=v43) format('truetype');}@font-face {font-family: 'eCq34BFoNcW1:::Outfit';font-style: normal;font-weight: 400;src: url(https://fonts.gstatic.com/l/font?kit=QGYyz_MVcBeNP4NjuGObqx1XmO1I4TC1C4GmVwgNi47xDg_lcPFsF2Xz32S5Ef90J3Uv-I17GbXogI1sMtw4OJu1lJpOgOY-QzP3AYhX0qgatFOdD1FPqwyFEoOS&skey=bafc0b239d492b2c&v=v15) format('truetype');}@font-face {font-family: 'eCq34BFoNcW1:::Outfit';font-style: normal;font-weight: 500;src: url(https://fonts.gstatic.com/l/font?kit=QGYyz_MVcBeNP4NjuGObqx1XmO1I4QK1C4GmVwgNi47xDg_lcPFsF2Xz32S5Ef90J3Uv-I17GbXogI1sMtw4OJu1lJpOgOY-QzP3AYhX0qgatFOdD1FPqwyFEoOS&skey=bafc0b239d492b2c&v=v15) format('truetype');}@font-face {font-family: 'eCq34BFoNcW1:::Outfit';font-style: normal;font-weight: 600;src: url(https://fonts.gstatic.com/l/font?kit=QGYyz_MVcBeNP4NjuGObqx1XmO1I4e6yC4GmVwgNi47xDg_lcPFsF2Xz32S5Ef90J3Uv-I17GbXogI1sMtw4OJu1lJpOgOY-QzP3AYhX0qgatFOdD1FPqwyFEoOS&skey=bafc0b239d492b2c&v=v15) format('truetype');}
]]></style>
</svg>
